<svg width="130" height="71" viewBox="0 0 130 71" fill="none" xmlns="http://www.w3.org/2000/svg">
<g clip-path="url(#clip0_1_799)">
<path d="M0.401245 5.03883H2.98436V70.546H0.401245V5.03883Z" fill="#A5C33B"/>
<path d="M3.53923 63.3652H2.91949V4.25777H3.53923V63.3652Z" fill="#7FAF42"/>
<path d="M12.025 62.9878H2.98438V65.5072H12.025V62.9878Z" fill="#B2D143"/>
<path d="M12.025 68.0266H2.98438V70.546H12.025V68.0266Z" fill="#7FAF42"/>
<path d="M2.98438 12.8745V62.9878H12.025V7.55826" fill="#A5C33B"/>
<path d="M12.025 5.03883H2.98438V12.5977L12.025 7.55825" fill="#7FAF42"/>
<path d="M12.7483 70.3192H12.1279V4.25777H12.7483V70.3192Z" fill="#B2D143"/>
<path d="M72.7281 0V5.03883H0.402649V0H72.7281Z" fill="#A5C33B"/>
<path d="M14.6081 5.03883H12.025V70.546H14.6081V5.03883Z" fill="#A5C33B"/>
<path d="M15.2022 63.3652H14.5819V4.25777H15.2022V63.3652Z" fill="#7FAF42"/>
<path d="M23.6487 62.9878H14.6081V65.5072H23.6487V62.9878Z" fill="#B2D143"/>
<path d="M23.6487 68.0266H14.6081V70.546H23.6487V68.0266Z" fill="#7FAF42"/>
<path d="M14.6081 12.8745V62.9878H23.6487V7.55826" fill="#A5C33B"/>
<path d="M23.6487 5.03883H14.6081V12.5977L23.6487 7.55825" fill="#7FAF42"/>
<path d="M24.4101 4.25777H23.7904V70.3192H24.4101V4.25777Z" fill="#B2D143"/>
<path d="M26.2318 5.03883H23.6487V70.546H26.2318V5.03883Z" fill="#A5C33B"/>
<path d="M26.8647 63.3652H26.2443V4.25777H26.8647V63.3652Z" fill="#7FAF42"/>
<path d="M35.2724 62.9878H26.2318V65.5072H35.2724V62.9878Z" fill="#B2D143"/>
<path d="M35.2724 68.0266H26.2318V70.546H35.2724V68.0266Z" fill="#7FAF42"/>
<path d="M26.2318 12.8745V62.9878H35.2724V7.55826" fill="#A5C33B"/>
<path d="M35.2724 5.03883H26.2318V12.5977L35.2724 7.55825" fill="#7FAF42"/>
<path d="M36.0725 4.25777H35.4528V70.3192H36.0725V4.25777Z" fill="#B2D143"/>
<path d="M35.2724 5.03883H37.8555V70.546H35.2724V5.03883Z" fill="#A5C33B"/>
<path d="M38.5271 63.3652H37.9067V4.25777H38.5271V63.3652Z" fill="#7FAF42"/>
<path d="M46.8961 62.9878H37.8555V65.5072H46.8961V62.9878Z" fill="#B2D143"/>
<path d="M46.8961 68.0266H37.8555V70.546H46.8961V68.0266Z" fill="#7FAF42"/>
<path d="M37.8555 12.8745V62.9878H46.8961V7.55826" fill="#A5C33B"/>
<path d="M46.8961 5.03883H37.8555V12.5977L46.8961 7.55825" fill="#7FAF42"/>
<path d="M47.7355 4.25777H47.1158V70.3192H47.7355V4.25777Z" fill="#B2D143"/>
<path d="M49.4792 5.03883H46.8961V70.546H49.4792V5.03883Z" fill="#A5C33B"/>
<path d="M50.1895 63.3652H49.5692V4.25777H50.1895V63.3652Z" fill="#7FAF42"/>
<path d="M49.4792 62.9878H58.5199V65.5072H49.4792V62.9878Z" fill="#B2D143"/>
<path d="M49.4792 68.0266H58.5199V70.546H49.4792V68.0266Z" fill="#7FAF42"/>
<path d="M49.4792 12.8745V62.9878H58.5199V7.55826" fill="#A5C33B"/>
<path d="M58.5199 5.03883H49.4792V12.5977L58.5199 7.55825" fill="#7FAF42"/>
<path d="M59.3979 70.3192H58.7782V4.25777H59.3979V70.3192Z" fill="#B2D143"/>
<path d="M61.103 5.03883H58.5198V70.546H61.103V5.03883Z" fill="#A5C33B"/>
<path d="M61.8519 63.3652H61.2322V4.25777H61.8519V63.3652Z" fill="#7FAF42"/>
<path d="M70.1436 62.9878H61.103V65.5072H70.1436V62.9878Z" fill="#B2D143"/>
<path d="M70.1436 68.0266H61.103V70.546H70.1436V68.0266Z" fill="#7FAF42"/>
<path d="M12.025 65.5072H2.98438V68.0266H12.025V65.5072Z" fill="#A5C33B"/>
<path d="M23.6487 65.5072H14.6081V68.0266H23.6487V65.5072Z" fill="#A5C33B"/>
<path d="M35.2724 65.5072H26.2318V68.0266H35.2724V65.5072Z" fill="#A5C33B"/>
<path d="M46.8961 65.5072H37.8555V68.0266H46.8961V65.5072Z" fill="#A5C33B"/>
<path d="M49.4792 65.5072H58.5199V68.0266H49.4792V65.5072Z" fill="#A5C33B"/>
<path d="M70.1436 65.5072H61.103V68.0266H70.1436V65.5072Z" fill="#A5C33B"/>
<path d="M61.103 12.8745V62.9878H70.1436V7.55826" fill="#A5C33B"/>
<path d="M70.1436 5.03883H61.103V12.5977L70.1436 7.55825" fill="#7FAF42"/>
<path d="M71.0604 70.3192H70.4407V4.25777H71.0604V70.3192Z" fill="#B2D143"/>
<path d="M70.1436 5.03883H72.7267V70.546H70.1436V5.03883Z" fill="#A5C33B"/>
<path d="M4.27502 10.0782H2.98376V65.5072H4.27502V10.0782Z" fill="#7FAF42"/>
<path d="M12.0244 5.03883H10.7331V65.5066H12.0244V5.03883Z" fill="#B2D143"/>
<path d="M15.8994 10.0782H14.6081V65.5072H15.8994V10.0782Z" fill="#7FAF42"/>
<path d="M23.6481 5.03883H22.3568V65.5066H23.6481V5.03883Z" fill="#B2D143"/>
<path d="M27.5225 10.0782H26.2312V65.5072H27.5225V10.0782Z" fill="#7FAF42"/>
<path d="M35.2718 5.03883H33.9805V65.5066H35.2718V5.03883Z" fill="#B2D143"/>
<path d="M39.1468 10.0782H37.8555V65.5072H39.1468V10.0782Z" fill="#7FAF42"/>
<path d="M46.8955 5.03883H45.6042V65.5066H46.8955V5.03883Z" fill="#B2D143"/>
<path d="M50.7705 10.0782H49.4792V65.5072H50.7705V10.0782Z" fill="#7FAF42"/>
<path d="M58.5192 5.03883H57.228V65.5066H58.5192V5.03883Z" fill="#B2D143"/>
<path d="M62.3942 10.0782H61.103V65.5072H62.3942V10.0782Z" fill="#7FAF42"/>
<path d="M70.143 5.03883H68.8517V65.5066H70.143V5.03883Z" fill="#B2D143"/>
<path d="M57.4691 5.03883H60.0522V70.546H57.4691V5.03883Z" fill="#A5C33B"/>
<path d="M60.6077 63.3652H59.9879V4.25777H60.6077V63.3652Z" fill="#7FAF42"/>
<path d="M69.0928 62.9878H60.0522V65.5072H69.0928V62.9878Z" fill="#B2D143"/>
<path d="M69.0928 68.0266H60.0522V70.546H69.0928V68.0266Z" fill="#7FAF42"/>
<path d="M60.0522 12.8745V62.9878H69.0928V7.55826" fill="#A5C33B"/>
<path d="M69.0928 5.03883H60.0522V12.5977L69.0928 7.55825" fill="#7FAF42"/>
<path d="M69.8161 70.3192H69.1964V4.25777H69.8161V70.3192Z" fill="#B2D143"/>
<path d="M129.795 0V5.03883H57.4691V0H129.795Z" fill="#A5C33B"/>
<path d="M71.6759 5.03883H69.0928V70.546H71.6759V5.03883Z" fill="#A5C33B"/>
<path d="M72.2701 63.3652H71.6504V4.25777H72.2701V63.3652Z" fill="#7FAF42"/>
<path d="M80.7166 62.9878H71.676V65.5072H80.7166V62.9878Z" fill="#B2D143"/>
<path d="M80.7166 68.0266H71.676V70.546H80.7166V68.0266Z" fill="#7FAF42"/>
<path d="M71.676 12.8745V62.9878H80.7166V7.55826" fill="#A5C33B"/>
<path d="M80.7166 5.03883H71.676V12.5977L80.7166 7.55825" fill="#7FAF42"/>
<path d="M81.4786 4.25777H80.8588V70.3192H81.4786V4.25777Z" fill="#B2D143"/>
<path d="M83.2997 5.03883H80.7166V70.546H83.2997V5.03883Z" fill="#A5C33B"/>
<path d="M83.9325 63.3652H83.3128V4.25777H83.9325V63.3652Z" fill="#7FAF42"/>
<path d="M92.3403 62.9878H83.2997V65.5072H92.3403V62.9878Z" fill="#B2D143"/>
<path d="M92.3403 68.0266H83.2997V70.546H92.3403V68.0266Z" fill="#7FAF42"/>
<path d="M83.2997 12.8745V62.9878H92.3403V7.55826" fill="#A5C33B"/>
<path d="M92.3403 5.03883H83.2997V12.5977L92.3403 7.55825" fill="#7FAF42"/>
<path d="M93.141 4.25777H92.5212V70.3192H93.141V4.25777Z" fill="#B2D143"/>
<path d="M92.3403 5.03883H94.9234V70.546H92.3403V5.03883Z" fill="#A5C33B"/>
<path d="M95.595 63.3652H94.9752V4.25777H95.595V63.3652Z" fill="#7FAF42"/>
<path d="M103.964 62.9878H94.9234V65.5072H103.964V62.9878Z" fill="#B2D143"/>
<path d="M103.964 68.0266H94.9234V70.546H103.964V68.0266Z" fill="#7FAF42"/>
<path d="M94.9234 12.8745V62.9878H103.964V7.55826" fill="#A5C33B"/>
<path d="M103.964 5.03883H94.9234V12.5977L103.964 7.55825" fill="#7FAF42"/>
<path d="M104.803 4.25777H104.184V70.3192H104.803V4.25777Z" fill="#B2D143"/>
<path d="M106.547 5.03883H103.964V70.546H106.547V5.03883Z" fill="#A5C33B"/>
<path d="M107.257 63.3652H106.638V4.25777H107.257V63.3652Z" fill="#7FAF42"/>
<path d="M106.547 62.9878H115.588V65.5072H106.547V62.9878Z" fill="#B2D143"/>
<path d="M106.547 68.0266H115.588V70.546H106.547V68.0266Z" fill="#7FAF42"/>
<path d="M106.547 12.8745V62.9878H115.588V7.55826" fill="#A5C33B"/>
<path d="M115.588 5.03883H106.547V12.5977L115.588 7.55825" fill="#7FAF42"/>
<path d="M116.466 70.3192H115.846V4.25777H116.466V70.3192Z" fill="#B2D143"/>
<path d="M118.171 5.03883H115.588V70.546H118.171V5.03883Z" fill="#A5C33B"/>
<path d="M118.92 63.3652H118.3V4.25777H118.92V63.3652Z" fill="#7FAF42"/>
<path d="M127.211 62.9878H118.171V65.5072H127.211V62.9878Z" fill="#B2D143"/>
<path d="M127.211 68.0266H118.171V70.546H127.211V68.0266Z" fill="#7FAF42"/>
<path d="M69.0928 65.5072H60.0522V68.0266H69.0928V65.5072Z" fill="#A5C33B"/>
<path d="M80.7166 65.5072H71.676V68.0266H80.7166V65.5072Z" fill="#A5C33B"/>
<path d="M92.3403 65.5072H83.2997V68.0266H92.3403V65.5072Z" fill="#A5C33B"/>
<path d="M103.964 65.5072H94.9234V68.0266H103.964V65.5072Z" fill="#A5C33B"/>
<path d="M106.547 65.5072H115.588V68.0266H106.547V65.5072Z" fill="#A5C33B"/>
<path d="M127.211 65.5072H118.171V68.0266H127.211V65.5072Z" fill="#A5C33B"/>
<path d="M118.171 12.8745V62.9878H127.211V7.55826" fill="#A5C33B"/>
<path d="M127.211 5.03883H118.171V12.5977L127.211 7.55825" fill="#7FAF42"/>
<path d="M128.129 70.3192H127.509V4.25777H128.129V70.3192Z" fill="#B2D143"/>
<path d="M127.211 5.03883H129.795V70.546H127.211V5.03883Z" fill="#A5C33B"/>
<path d="M61.3435 10.0782H60.0522V65.5072H61.3435V10.0782Z" fill="#7FAF42"/>
<path d="M69.0928 5.03883H67.8016V65.5066H69.0928V5.03883Z" fill="#B2D143"/>
<path d="M72.9672 10.0782H71.676V65.5072H72.9672V10.0782Z" fill="#7FAF42"/>
<path d="M80.7166 5.03883H79.4253V65.5066H80.7166V5.03883Z" fill="#B2D143"/>
<path d="M84.5909 10.0782H83.2997V65.5072H84.5909V10.0782Z" fill="#7FAF42"/>
<path d="M92.3403 5.03883H91.049V65.5066H92.3403V5.03883Z" fill="#B2D143"/>
<path d="M96.2147 10.0782H94.9234V65.5072H96.2147V10.0782Z" fill="#7FAF42"/>
<path d="M103.964 5.03883H102.673V65.5066H103.964V5.03883Z" fill="#B2D143"/>
<path d="M107.838 10.0782H106.547V65.5072H107.838V10.0782Z" fill="#7FAF42"/>
<path d="M115.588 5.03883H114.296V65.5066H115.588V5.03883Z" fill="#B2D143"/>
<path d="M119.462 10.0782H118.171V65.5072H119.462V10.0782Z" fill="#7FAF42"/>
<path d="M127.211 5.03883H125.92V65.5066H127.211V5.03883Z" fill="#B2D143"/>
</g>
<defs>
<clipPath id="clip0_1_799">
<rect width="129.022" height="70.546" fill="white"/>
</clipPath>
</defs>
</svg>
