<svg width="120" height="71" viewBox="0 0 120 71" fill="none" xmlns="http://www.w3.org/2000/svg">
<g clip-path="url(#clip0_1_658)">
<path d="M0 5.03883H3.20285V70.546H0V5.03883Z" fill="#A5C33B"/>
<path d="M3.89164 63.3658H3.12308V4.25777H3.89164V63.3658Z" fill="#7FAF42"/>
<path d="M14.4146 62.9878H3.20343V65.5072H14.4146V62.9878Z" fill="#B2D143"/>
<path d="M14.4146 68.0266H3.20343V70.546H14.4146V68.0266Z" fill="#7FAF42"/>
<path d="M3.20285 12.8745V62.9878H14.414V7.55884" fill="#A5C33B"/>
<path d="M14.414 5.03883H3.20285V12.5977L14.414 7.55884" fill="#7FAF42"/>
<path d="M15.3112 70.3192H14.542V4.25777H15.3112V70.3192Z" fill="#B2D143"/>
<path d="M89.6875 0V5.03883H0V0H89.6875Z" fill="#A5C33B"/>
<path d="M17.6168 5.03883H14.414V70.546H17.6168V5.03883Z" fill="#A5C33B"/>
<path d="M18.3539 63.3658H17.5853V4.25777H18.3539V63.3658Z" fill="#7FAF42"/>
<path d="M28.8286 62.9878H17.6175V65.5072H28.8286V62.9878Z" fill="#B2D143"/>
<path d="M28.8286 68.0266H17.6175V70.546H28.8286V68.0266Z" fill="#7FAF42"/>
<path d="M17.6175 12.8745V62.9878H28.828V7.55884" fill="#A5C33B"/>
<path d="M28.828 5.03883H17.6175V12.5977L28.828 7.55884" fill="#7FAF42"/>
<path d="M29.7728 4.25777H29.0042V70.3192H29.7728V4.25777Z" fill="#B2D143"/>
<path d="M32.0309 5.03883H28.828V70.546H32.0309V5.03883Z" fill="#A5C33B"/>
<path d="M32.8161 63.3658H32.0475V4.25777H32.8161V63.3658Z" fill="#7FAF42"/>
<path d="M43.2426 62.9878H32.0315V65.5072H43.2426V62.9878Z" fill="#B2D143"/>
<path d="M43.2426 68.0266H32.0315V70.546H43.2426V68.0266Z" fill="#7FAF42"/>
<path d="M32.0315 12.8745V62.9878H43.242V7.55884" fill="#A5C33B"/>
<path d="M43.242 5.03883H32.0315V12.5977L43.242 7.55884" fill="#7FAF42"/>
<path d="M44.235 4.25777H43.4665V70.3192H44.235V4.25777Z" fill="#B2D143"/>
<path d="M43.242 5.03883H46.4455V70.546H43.242V5.03883Z" fill="#A5C33B"/>
<path d="M47.2783 63.3658H46.5098V4.25777H47.2783V63.3658Z" fill="#7FAF42"/>
<path d="M57.6566 62.9878H46.4455V65.5072H57.6566V62.9878Z" fill="#B2D143"/>
<path d="M57.6566 68.0266H46.4455V70.546H57.6566V68.0266Z" fill="#7FAF42"/>
<path d="M46.4455 12.8745V62.9878H57.6566V7.55884" fill="#A5C33B"/>
<path d="M57.6566 5.03883H46.4455V12.5977L57.6566 7.55884" fill="#7FAF42"/>
<path d="M58.6973 4.25777H57.9287V70.3192H58.6973V4.25777Z" fill="#B2D143"/>
<path d="M60.8595 5.03883H57.6566V70.546H60.8595V5.03883Z" fill="#A5C33B"/>
<path d="M61.7406 63.3658H60.9714V4.25777H61.7406V63.3658Z" fill="#7FAF42"/>
<path d="M60.8595 62.9878H72.0707V65.5072H60.8595V62.9878Z" fill="#B2D143"/>
<path d="M60.8595 68.0266H72.0707V70.546H60.8595V68.0266Z" fill="#7FAF42"/>
<path d="M60.8595 12.8745V62.9878H72.0707V7.55884" fill="#A5C33B"/>
<path d="M72.0707 5.03883H60.8595V12.5977L72.0707 7.55884" fill="#7FAF42"/>
<path d="M73.1595 70.3192H72.3909V4.25777H73.1595V70.3192Z" fill="#B2D143"/>
<path d="M75.2735 5.03883H72.0706V70.546H75.2735V5.03883Z" fill="#A5C33B"/>
<path d="M76.2028 63.3658H75.4337V4.25777H76.2028V63.3658Z" fill="#7FAF42"/>
<path d="M86.4847 62.9878H75.2735V65.5072H86.4847V62.9878Z" fill="#B2D143"/>
<path d="M86.4847 68.0266H75.2735V70.546H86.4847V68.0266Z" fill="#7FAF42"/>
<path d="M14.4146 65.5072H3.20343V68.0266H14.4146V65.5072Z" fill="#A5C33B"/>
<path d="M28.8286 65.5072H17.6175V68.0266H28.8286V65.5072Z" fill="#A5C33B"/>
<path d="M43.2426 65.5072H32.0315V68.0266H43.2426V65.5072Z" fill="#A5C33B"/>
<path d="M57.6566 65.5072H46.4455V68.0266H57.6566V65.5072Z" fill="#A5C33B"/>
<path d="M60.8595 65.5072H72.0707V68.0266H60.8595V65.5072Z" fill="#A5C33B"/>
<path d="M86.4847 65.5072H75.2735V68.0266H86.4847V65.5072Z" fill="#A5C33B"/>
<path d="M75.2735 12.8745V62.9878H86.4847V7.55884" fill="#A5C33B"/>
<path d="M86.4847 5.03883H75.2735V12.5977L86.4847 7.55884" fill="#7FAF42"/>
<path d="M87.6217 70.3192H86.8531V4.25777H87.6217V70.3192Z" fill="#B2D143"/>
<path d="M86.4846 5.03883H89.6875V70.546H86.4846V5.03883Z" fill="#A5C33B"/>
<path d="M4.80427 10.0782H3.20285V65.5072H4.80427V10.0782Z" fill="#7FAF42"/>
<path d="M14.414 5.03883H12.8126V65.5066H14.414V5.03883Z" fill="#B2D143"/>
<path d="M19.2189 10.0782H17.6175V65.5072H19.2189V10.0782Z" fill="#7FAF42"/>
<path d="M28.828 5.03883H27.2266V65.5066H28.828V5.03883Z" fill="#B2D143"/>
<path d="M33.6329 10.0782H32.0315V65.5072H33.6329V10.0782Z" fill="#7FAF42"/>
<path d="M43.242 5.03883H41.6406V65.5066H43.242V5.03883Z" fill="#B2D143"/>
<path d="M48.0469 10.0782H46.4455V65.5072H48.0469V10.0782Z" fill="#7FAF42"/>
<path d="M57.6561 5.03883H56.0546V65.5066H57.6561V5.03883Z" fill="#B2D143"/>
<path d="M62.4609 10.0782H60.8595V65.5072H62.4609V10.0782Z" fill="#7FAF42"/>
<path d="M72.07 5.03883H70.4686V65.5066H72.07V5.03883Z" fill="#B2D143"/>
<path d="M76.8749 10.0782H75.2735V65.5072H76.8749V10.0782Z" fill="#7FAF42"/>
<path d="M86.4847 5.03883H84.8832V65.5066H86.4847V5.03883Z" fill="#B2D143"/>
<path d="M30.2741 5.03883H33.4775V70.546H30.2741V5.03883Z" fill="#A5C33B"/>
<path d="M34.1663 63.3658H33.3972V4.25777H34.1663V63.3658Z" fill="#7FAF42"/>
<path d="M44.6887 62.9878H33.4775V65.5072H44.6887V62.9878Z" fill="#B2D143"/>
<path d="M44.6887 68.0266H33.4775V70.546H44.6887V68.0266Z" fill="#7FAF42"/>
<path d="M33.4775 12.8745V62.9878H44.6887V7.55884" fill="#A5C33B"/>
<path d="M44.6887 5.03883H33.4775V12.5977L44.6887 7.55884" fill="#7FAF42"/>
<path d="M45.5852 70.3192H44.8167V4.25777H45.5852V70.3192Z" fill="#B2D143"/>
<path d="M119.962 0V5.03883H30.2741V0H119.962Z" fill="#A5C33B"/>
<path d="M47.8915 5.03883H44.6887V70.546H47.8915V5.03883Z" fill="#A5C33B"/>
<path d="M48.6285 63.3658H47.8594V4.25777H48.6285V63.3658Z" fill="#7FAF42"/>
<path d="M59.1027 62.9878H47.8915V65.5072H59.1027V62.9878Z" fill="#B2D143"/>
<path d="M59.1027 68.0266H47.8915V70.546H59.1027V68.0266Z" fill="#7FAF42"/>
<path d="M47.8915 12.8745V62.9878H59.1027V7.55884" fill="#A5C33B"/>
<path d="M59.1027 5.03883H47.8915V12.5977L59.1027 7.55884" fill="#7FAF42"/>
<path d="M60.0475 4.25777H59.2789V70.3192H60.0475V4.25777Z" fill="#B2D143"/>
<path d="M62.3055 5.03883H59.1027V70.546H62.3055V5.03883Z" fill="#A5C33B"/>
<path d="M63.0902 63.3658H62.3216V4.25777H63.0902V63.3658Z" fill="#7FAF42"/>
<path d="M73.5167 62.9878H62.3055V65.5072H73.5167V62.9878Z" fill="#B2D143"/>
<path d="M73.5167 68.0266H62.3055V70.546H73.5167V68.0266Z" fill="#7FAF42"/>
<path d="M62.3055 12.8745V62.9878H73.5167V7.55884" fill="#A5C33B"/>
<path d="M73.5167 5.03883H62.3055V12.5977L73.5167 7.55884" fill="#7FAF42"/>
<path d="M74.5097 4.25777H73.7411V70.3192H74.5097V4.25777Z" fill="#B2D143"/>
<path d="M73.5167 5.03883H76.7195V70.546H73.5167V5.03883Z" fill="#A5C33B"/>
<path d="M77.5524 63.3658H76.7838V4.25777H77.5524V63.3658Z" fill="#7FAF42"/>
<path d="M87.9307 62.9878H76.7195V65.5072H87.9307V62.9878Z" fill="#B2D143"/>
<path d="M87.9307 68.0266H76.7195V70.546H87.9307V68.0266Z" fill="#7FAF42"/>
<path d="M76.7195 12.8745V62.9878H87.9307V7.55884" fill="#A5C33B"/>
<path d="M87.9307 5.03883H76.7195V12.5977L87.9307 7.55884" fill="#7FAF42"/>
<path d="M88.9719 4.25777H88.2034V70.3192H88.9719V4.25777Z" fill="#B2D143"/>
<path d="M91.1336 5.03883H87.9307V70.546H91.1336V5.03883Z" fill="#A5C33B"/>
<path d="M92.0146 63.3658H91.2461V4.25777H92.0146V63.3658Z" fill="#7FAF42"/>
<path d="M91.1342 62.9878H102.345V65.5072H91.1342V62.9878Z" fill="#B2D143"/>
<path d="M91.1342 68.0266H102.345V70.546H91.1342V68.0266Z" fill="#7FAF42"/>
<path d="M91.1342 12.8745V62.9878H102.345V7.55884" fill="#A5C33B"/>
<path d="M102.345 5.03883H91.1342V12.5977L102.345 7.55884" fill="#7FAF42"/>
<path d="M103.434 70.3192H102.665V4.25777H103.434V70.3192Z" fill="#B2D143"/>
<path d="M105.548 5.03883H102.345V70.546H105.548V5.03883Z" fill="#A5C33B"/>
<path d="M106.477 63.3658H105.708V4.25777H106.477V63.3658Z" fill="#7FAF42"/>
<path d="M116.759 62.9878H105.548V65.5072H116.759V62.9878Z" fill="#B2D143"/>
<path d="M116.759 68.0266H105.548V70.546H116.759V68.0266Z" fill="#7FAF42"/>
<path d="M44.6887 65.5072H33.4775V68.0266H44.6887V65.5072Z" fill="#A5C33B"/>
<path d="M59.1027 65.5072H47.8915V68.0266H59.1027V65.5072Z" fill="#A5C33B"/>
<path d="M73.5167 65.5072H62.3055V68.0266H73.5167V65.5072Z" fill="#A5C33B"/>
<path d="M87.9307 65.5072H76.7195V68.0266H87.9307V65.5072Z" fill="#A5C33B"/>
<path d="M91.1342 65.5072H102.345V68.0266H91.1342V65.5072Z" fill="#A5C33B"/>
<path d="M116.759 65.5072H105.548V68.0266H116.759V65.5072Z" fill="#A5C33B"/>
<path d="M105.548 12.8745V62.9878H116.759V7.55884" fill="#A5C33B"/>
<path d="M116.759 5.03883H105.548V12.5977L116.759 7.55884" fill="#7FAF42"/>
<path d="M117.896 70.3192H117.127V4.25777H117.896V70.3192Z" fill="#B2D143"/>
<path d="M116.759 5.03883H119.962V70.546H116.759V5.03883Z" fill="#A5C33B"/>
<path d="M35.079 10.0782H33.4775V65.5072H35.079V10.0782Z" fill="#7FAF42"/>
<path d="M44.6881 5.03883H43.0867V65.5066H44.6881V5.03883Z" fill="#B2D143"/>
<path d="M49.493 10.0782H47.8915V65.5072H49.493V10.0782Z" fill="#7FAF42"/>
<path d="M59.1021 5.03883H57.5007V65.5066H59.1021V5.03883Z" fill="#B2D143"/>
<path d="M63.907 10.0782H62.3055V65.5072H63.907V10.0782Z" fill="#7FAF42"/>
<path d="M73.5167 5.03883H71.9153V65.5066H73.5167V5.03883Z" fill="#B2D143"/>
<path d="M78.321 10.0782H76.7195V65.5072H78.321V10.0782Z" fill="#7FAF42"/>
<path d="M87.9307 5.03883H86.3293V65.5066H87.9307V5.03883Z" fill="#B2D143"/>
<path d="M92.7356 10.0782H91.1342V65.5072H92.7356V10.0782Z" fill="#7FAF42"/>
<path d="M102.345 5.03883H100.743V65.5066H102.345V5.03883Z" fill="#B2D143"/>
<path d="M107.15 10.0782H105.548V65.5072H107.15V10.0782Z" fill="#7FAF42"/>
<path d="M116.759 5.03883H115.157V65.5066H116.759V5.03883Z" fill="#B2D143"/>
</g>
<defs>
<clipPath id="clip0_1_658">
<rect width="119.962" height="70.546" fill="white"/>
</clipPath>
</defs>
</svg>
