<svg width="51" height="71" viewBox="0 0 51 71" fill="none" xmlns="http://www.w3.org/2000/svg">
<path fill-rule="evenodd" clip-rule="evenodd" d="M12.5411 59.6778C15.7291 59.6778 18.3378 62.1234 18.3378 65.1119C18.3378 68.1004 15.7297 70.546 12.5411 70.546C9.33471 70.546 6.72659 68.1004 6.72659 65.1119C6.72659 62.1234 9.33471 59.6778 12.5411 59.6778ZM40.2178 59.6778C43.4242 59.6778 46.0323 62.1234 46.0323 65.1119C46.0323 68.1004 43.4242 70.546 40.2178 70.546C37.0298 70.546 34.4211 68.1004 34.4211 65.1119C34.4211 62.1234 37.0298 59.6778 40.2178 59.6778Z" fill="#333745"/>
<path d="M43.4342 7.14391H2.97662V7.16173V7.14391L4.99354 52.5979C4.99354 54.4601 6.19778 55.9606 7.69246 55.9606H44.6961C46.1908 55.9606 47.3951 54.4601 47.3951 52.5979L49.412 7.14391H43.4342Z" fill="#A5C33B"/>
<path d="M50.6026 3.57195H0V8.92987H50.6026V3.57195Z" fill="#A5C33B"/>
<path d="M50.0073 4.16727H1.19064V4.76259H50.0073V4.16727Z" fill="#7FAF42"/>
<path d="M3.8354 0H46.7672C48.2286 0 49.412 1.26794 49.412 2.85756V3.57195H1.19064V2.85756C1.19064 1.26794 2.37399 0 3.8354 0Z" fill="#A5C33B"/>
<path fill-rule="evenodd" clip-rule="evenodd" d="M37.241 0.595322H45.84V2.91871H37.241V0.595322ZM26.3907 0.653231H34.9897V2.97662H26.3907V0.653231ZM15.6129 0.653231H24.2119V2.97662H15.6129V0.653231ZM4.7626 0.595322H13.3616V2.91871H4.7626V0.595322Z" fill="#7FAF42"/>
</svg>
