<svg width="120" height="71" fill="none" xmlns="http://www.w3.org/2000/svg"><g clip-path="url(#a)"><path d="M0 5.039h3.203v65.507H0V5.039Z" fill="#A5C33B"/><path d="M3.892 63.366h-.769V4.258h.769v59.108Z" fill="#7FAF42"/><path d="M14.415 62.988H3.203v2.52h11.212v-2.52Z" fill="#B2D143"/><path d="M14.415 68.027H3.203v2.519h11.212v-2.52Z" fill="#7FAF42"/><path d="M3.203 12.874v50.114h11.211V7.558" fill="#A5C33B"/><path d="M14.414 5.039H3.203v7.559l11.211-5.04" fill="#7FAF42"/><path d="M15.311 70.32h-.769V4.257h.77v66.061Z" fill="#B2D143"/><path d="M89.688 0v5.039H0V0h89.688ZM17.617 5.039h-3.203v65.507h3.203V5.039Z" fill="#A5C33B"/><path d="M18.354 63.366h-.769V4.258h.769v59.108Z" fill="#7FAF42"/><path d="M28.829 62.988H17.617v2.52H28.83v-2.52Z" fill="#B2D143"/><path d="M28.829 68.027H17.617v2.519H28.83v-2.52Z" fill="#7FAF42"/><path d="M17.617 12.874v50.114h11.211V7.558" fill="#A5C33B"/><path d="M28.828 5.039h-11.21v7.559l11.21-5.04" fill="#7FAF42"/><path d="M29.773 4.258h-.769v66.061h.769V4.258Z" fill="#B2D143"/><path d="M32.03 5.039h-3.202v65.507h3.203V5.039Z" fill="#A5C33B"/><path d="M32.816 63.366h-.769V4.258h.77v59.108Z" fill="#7FAF42"/><path d="M43.243 62.988H32.03v2.52h11.212v-2.52Z" fill="#B2D143"/><path d="M43.243 68.027H32.03v2.519h11.212v-2.52Z" fill="#7FAF42"/><path d="M32.032 12.874v50.114h11.21V7.558" fill="#A5C33B"/><path d="M43.242 5.039h-11.21v7.559l11.21-5.04" fill="#7FAF42"/><path d="M44.235 4.258h-.768v66.061h.768V4.258Z" fill="#B2D143"/><path d="M43.242 5.039h3.204v65.507h-3.204V5.039Z" fill="#A5C33B"/><path d="M47.278 63.366h-.768V4.258h.768v59.108Z" fill="#7FAF42"/><path d="M57.657 62.988H46.446v2.52h11.21v-2.52Z" fill="#B2D143"/><path d="M57.657 68.027H46.446v2.519h11.21v-2.52Z" fill="#7FAF42"/><path d="M46.446 12.874v50.114h11.21V7.558" fill="#A5C33B"/><path d="M57.657 5.039H46.446v7.559l11.21-5.04" fill="#7FAF42"/><path d="M58.697 4.258h-.768v66.061h.768V4.258Z" fill="#B2D143"/><path d="M60.86 5.039h-3.203v65.507h3.203V5.039Z" fill="#A5C33B"/><path d="M61.74 63.366h-.769V4.258h.77v59.108Z" fill="#7FAF42"/><path d="M60.86 62.988h11.21v2.52H60.86v-2.52Z" fill="#B2D143"/><path d="M60.86 68.027h11.21v2.519H60.86v-2.52Z" fill="#7FAF42"/><path d="M60.86 12.874v50.114h11.21V7.558" fill="#A5C33B"/><path d="M72.07 5.039H60.86v7.559l11.21-5.04" fill="#7FAF42"/><path d="M73.16 70.32h-.77V4.257h.77v66.061Z" fill="#B2D143"/><path d="M75.273 5.039h-3.202v65.507h3.203V5.039Z" fill="#A5C33B"/><path d="M76.203 63.366h-.77V4.258h.77v59.108Z" fill="#7FAF42"/><path d="M86.485 62.988H75.273v2.52h11.212v-2.52Z" fill="#B2D143"/><path d="M86.485 68.027H75.273v2.519h11.212v-2.52Z" fill="#7FAF42"/><path d="M14.415 65.507H3.203v2.52h11.212v-2.52Zm14.414 0H17.617v2.52H28.83v-2.52Zm14.414 0H32.03v2.52h11.212v-2.52Zm14.414 0H46.446v2.52h11.21v-2.52Zm3.203 0h11.21v2.52H60.86v-2.52Zm25.625 0H75.273v2.52h11.212v-2.52ZM75.273 12.874v50.114h11.212V7.558" fill="#A5C33B"/><path d="M86.485 5.039H75.273v7.559l11.212-5.04" fill="#7FAF42"/><path d="M87.622 70.32h-.769V4.257h.769v66.061Z" fill="#B2D143"/><path d="M86.485 5.039h3.203v65.507h-3.203V5.039Z" fill="#A5C33B"/><path d="M4.804 10.078H3.203v55.43h1.601v-55.43Z" fill="#7FAF42"/><path d="M14.414 5.039h-1.601v60.468h1.601V5.039Z" fill="#B2D143"/><path d="M19.219 10.078h-1.602v55.43h1.602v-55.43Z" fill="#7FAF42"/><path d="M28.828 5.039h-1.601v60.468h1.601V5.039Z" fill="#B2D143"/><path d="M33.633 10.078H32.03v55.43h1.602v-55.43Z" fill="#7FAF42"/><path d="M43.242 5.039h-1.601v60.468h1.601V5.039Z" fill="#B2D143"/><path d="M48.047 10.078h-1.601v55.43h1.6v-55.43Z" fill="#7FAF42"/><path d="M57.656 5.039h-1.601v60.468h1.601V5.039Z" fill="#B2D143"/><path d="M62.46 10.078h-1.6v55.43h1.6v-55.43Z" fill="#7FAF42"/><path d="M72.07 5.039h-1.601v60.468h1.601V5.039Z" fill="#B2D143"/><path d="M76.875 10.078h-1.602v55.43h1.602v-55.43Z" fill="#7FAF42"/><path d="M86.485 5.039h-1.602v60.468h1.602V5.039Z" fill="#B2D143"/><path d="M30.274 5.039h3.203v65.507h-3.203V5.039Z" fill="#A5C33B"/><path d="M34.166 63.366h-.769V4.258h.77v59.108Z" fill="#7FAF42"/><path d="M44.689 62.988H33.477v2.52H44.69v-2.52Z" fill="#B2D143"/><path d="M44.689 68.027H33.477v2.519H44.69v-2.52Z" fill="#7FAF42"/><path d="M33.477 12.874v50.114H44.69V7.558" fill="#A5C33B"/><path d="M44.689 5.039H33.477v7.559l11.212-5.04" fill="#7FAF42"/><path d="M45.585 70.32h-.768V4.257h.768v66.061Z" fill="#B2D143"/><path d="M119.962 0v5.039H30.274V0h89.688Zm-72.07 5.039h-3.203v65.507h3.203V5.039Z" fill="#A5C33B"/><path d="M48.629 63.366h-.77V4.258h.77v59.108Z" fill="#7FAF42"/><path d="M59.103 62.988H47.89v2.52h11.212v-2.52Z" fill="#B2D143"/><path d="M59.103 68.027H47.89v2.519h11.212v-2.52Z" fill="#7FAF42"/><path d="M47.892 12.874v50.114h11.21V7.558" fill="#A5C33B"/><path d="M59.103 5.039H47.89v7.559l11.212-5.04" fill="#7FAF42"/><path d="M60.047 4.258h-.768v66.061h.768V4.258Z" fill="#B2D143"/><path d="M62.306 5.039h-3.203v65.507h3.203V5.039Z" fill="#A5C33B"/><path d="M63.09 63.366h-.768V4.258h.768v59.108Z" fill="#7FAF42"/><path d="M73.517 62.988H62.306v2.52h11.21v-2.52Z" fill="#B2D143"/><path d="M73.517 68.027H62.306v2.519h11.21v-2.52Z" fill="#7FAF42"/><path d="M62.306 12.874v50.114h11.21V7.558" fill="#A5C33B"/><path d="M73.517 5.039H62.306v7.559l11.21-5.04" fill="#7FAF42"/><path d="M74.51 4.258h-.769v66.061h.769V4.258Z" fill="#B2D143"/><path d="M73.517 5.039h3.203v65.507h-3.203V5.039Z" fill="#A5C33B"/><path d="M77.552 63.366h-.768V4.258h.768v59.108Z" fill="#7FAF42"/><path d="M87.93 62.988H76.72v2.52h11.21v-2.52Z" fill="#B2D143"/><path d="M87.93 68.027H76.72v2.519h11.21v-2.52Z" fill="#7FAF42"/><path d="M76.72 12.874v50.114h11.21V7.558" fill="#A5C33B"/><path d="M87.93 5.039H76.72v7.559l11.21-5.04" fill="#7FAF42"/><path d="M88.972 4.258h-.769v66.061h.769V4.258Z" fill="#B2D143"/><path d="M91.134 5.039H87.93v65.507h3.203V5.039Z" fill="#A5C33B"/><path d="M92.015 63.366h-.769V4.258h.769v59.108Z" fill="#7FAF42"/><path d="M91.134 62.988h11.211v2.52h-11.21v-2.52Z" fill="#B2D143"/><path d="M91.134 68.027h11.211v2.519h-11.21v-2.52Z" fill="#7FAF42"/><path d="M91.134 12.874v50.114h11.211V7.558" fill="#A5C33B"/><path d="M102.345 5.039h-11.21v7.559l11.21-5.04" fill="#7FAF42"/><path d="M103.434 70.32h-.769V4.257h.769v66.061Z" fill="#B2D143"/><path d="M105.548 5.039h-3.203v65.507h3.203V5.039Z" fill="#A5C33B"/><path d="M106.477 63.366h-.769V4.258h.769v59.108Z" fill="#7FAF42"/><path d="M116.759 62.988h-11.211v2.52h11.211v-2.52Z" fill="#B2D143"/><path d="M116.759 68.027h-11.211v2.519h11.211v-2.52Z" fill="#7FAF42"/><path d="M44.689 65.507H33.477v2.52H44.69v-2.52Zm14.414 0H47.89v2.52h11.212v-2.52Zm14.414 0H62.306v2.52h11.21v-2.52Zm14.413 0H76.72v2.52h11.21v-2.52Zm3.204 0h11.211v2.52h-11.21v-2.52Zm25.625 0h-11.211v2.52h11.211v-2.52Zm-11.211-52.633v50.114h11.211V7.558" fill="#A5C33B"/><path d="M116.759 5.039h-11.211v7.559l11.211-5.04" fill="#7FAF42"/><path d="M117.896 70.32h-.769V4.257h.769v66.061Z" fill="#B2D143"/><path d="M116.759 5.039h3.203v65.507h-3.203V5.039Z" fill="#A5C33B"/><path d="M35.079 10.078h-1.602v55.43h1.602v-55.43Z" fill="#7FAF42"/><path d="M44.688 5.039h-1.601v60.468h1.601V5.039Z" fill="#B2D143"/><path d="M49.493 10.078h-1.602v55.43h1.602v-55.43Z" fill="#7FAF42"/><path d="M59.102 5.039h-1.601v60.468h1.601V5.039Z" fill="#B2D143"/><path d="M63.907 10.078h-1.601v55.43h1.601v-55.43Z" fill="#7FAF42"/><path d="M73.517 5.039h-1.602v60.468h1.602V5.039Z" fill="#B2D143"/><path d="M78.321 10.078h-1.602v55.43h1.602v-55.43Z" fill="#7FAF42"/><path d="M87.93 5.039h-1.6v60.468h1.6V5.039Z" fill="#B2D143"/><path d="M92.736 10.078h-1.602v55.43h1.602v-55.43Z" fill="#7FAF42"/><path d="M102.345 5.039h-1.602v60.468h1.602V5.039Z" fill="#B2D143"/><path d="M107.15 10.078h-1.602v55.43h1.602v-55.43Z" fill="#7FAF42"/><path d="M116.759 5.039h-1.602v60.468h1.602V5.039Z" fill="#B2D143"/></g><defs><clipPath id="a"><path fill="#fff" d="M0 0h119.962v70.546H0z"/></clipPath></defs></svg>