<svg width="18" height="18" xmlns="http://www.w3.org/2000/svg"><path d="M14.975 3.13C13.6 1.14 11.423 0 9 0 6.578 0 4.4 1.14 3.026 3.13c-1.368 1.978-1.684 4.484-.847 6.697a5.75 5.75 0 0 0 1.055 1.742l5.287 6.21a.629.629 0 0 0 .958 0l5.286-6.209a5.73 5.73 0 0 0 1.054-1.74c.839-2.216.523-4.722-.844-6.7Zm-.334 6.26a4.488 4.488 0 0 1-.833 1.363L9 16.4l-4.81-5.65a4.493 4.493 0 0 1-.832-1.364c-.692-1.83-.43-3.902.703-5.54A5.924 5.924 0 0 1 9 1.258c2.002 0 3.803.943 4.938 2.586a6.013 6.013 0 0 1 .702 5.545Z"/><path d="M9 3.734A3.528 3.528 0 0 0 5.476 7.26 3.528 3.528 0 0 0 9 10.783a3.528 3.528 0 0 0 3.525-3.524A3.529 3.529 0 0 0 9 3.734Zm0 5.79A2.268 2.268 0 0 1 6.734 7.26 2.268 2.268 0 0 1 9 4.993a2.268 2.268 0 0 1 2.266 2.266A2.268 2.268 0 0 1 9 9.524Z"/></svg>