<svg width="51" height="71" fill="none" xmlns="http://www.w3.org/2000/svg"><path fill-rule="evenodd" clip-rule="evenodd" d="M12.541 59.678c3.188 0 5.797 2.445 5.797 5.434 0 2.988-2.608 5.434-5.797 5.434-3.206 0-5.814-2.446-5.814-5.434 0-2.989 2.608-5.434 5.814-5.434Zm27.677 0c3.206 0 5.814 2.445 5.814 5.434 0 2.988-2.608 5.434-5.814 5.434-3.188 0-5.797-2.446-5.797-5.434 0-2.989 2.609-5.434 5.797-5.434Z" fill="#333745"/><path d="M43.434 7.144H2.977v.018-.018l2.017 45.454c0 1.862 1.204 3.363 2.698 3.363h37.004c1.495 0 2.7-1.5 2.7-3.363l2.016-45.454h-5.978Z" fill="#A5C33B"/><path d="M50.603 3.572H0V8.93h50.603V3.572Z" fill="#A5C33B"/><path d="M50.007 4.167H1.191v.596h48.816v-.596Z" fill="#7FAF42"/><path d="M3.835 0h42.932c1.462 0 2.645 1.268 2.645 2.858v.714H1.191v-.714C1.19 1.268 2.374 0 3.835 0Z" fill="#A5C33B"/><path fill-rule="evenodd" clip-rule="evenodd" d="M37.241.595h8.599V2.92h-8.599V.595Zm-10.85.058h8.599v2.324h-8.6V.653Zm-10.778 0h8.599v2.324h-8.6V.653ZM4.763.595h8.599V2.92h-8.6V.595Z" fill="#7FAF42"/></svg>