<svg width="141" height="71" fill="none" xmlns="http://www.w3.org/2000/svg"><g clip-path="url(#a)"><path d="M.1 5.039h2.536v65.507H.1V5.039Z" fill="#A5C33B"/><path d="M3.181 63.365h-.608V4.258h.608v59.107Z" fill="#7FAF42"/><path d="M11.514 62.988H2.636v2.52h8.878v-2.52Z" fill="#B2D143"/><path d="M11.514 68.027H2.636v2.519h8.878v-2.52Z" fill="#7FAF42"/><path d="M2.636 12.874v50.114h8.878V7.558" fill="#A5C33B"/><path d="M11.514 5.039H2.636v7.559l8.878-5.04" fill="#7FAF42"/><path d="M12.225 70.32h-.609V4.257h.609v66.061Z" fill="#B2D143"/><path d="M71.124 0v5.039H.101V0h71.023ZM14.05 5.039h-2.536v65.507h2.537V5.039Z" fill="#A5C33B"/><path d="M14.634 63.365h-.609V4.258h.61v59.107Z" fill="#7FAF42"/><path d="M22.929 62.988h-8.878v2.52h8.878v-2.52Z" fill="#B2D143"/><path d="M22.929 68.027h-8.878v2.519h8.878v-2.52Z" fill="#7FAF42"/><path d="M14.05 12.874v50.114h8.879V7.558" fill="#A5C33B"/><path d="M22.929 5.039h-8.878v7.559l8.878-5.04" fill="#7FAF42"/><path d="M23.677 4.258h-.609v66.061h.61V4.258Z" fill="#B2D143"/><path d="M25.466 5.039h-2.537v65.507h2.537V5.039Z" fill="#A5C33B"/><path d="M26.087 63.365h-.609V4.258h.61v59.107Z" fill="#7FAF42"/><path d="M34.344 62.988h-8.878v2.52h8.878v-2.52Z" fill="#B2D143"/><path d="M34.344 68.027h-8.878v2.519h8.878v-2.52Z" fill="#7FAF42"/><path d="M25.466 12.874v50.114h8.877V7.558" fill="#A5C33B"/><path d="M34.343 5.039h-8.877v7.559l8.877-5.04" fill="#7FAF42"/><path d="M35.13 4.258h-.609v66.061h.61V4.258Z" fill="#B2D143"/><path d="M34.343 5.039h2.537v65.507h-2.537V5.039Z" fill="#A5C33B"/><path d="M37.54 63.365h-.61V4.258h.61v59.107Z" fill="#7FAF42"/><path d="M45.758 62.988H36.88v2.52h8.878v-2.52Z" fill="#B2D143"/><path d="M45.758 68.027H36.88v2.519h8.878v-2.52Z" fill="#7FAF42"/><path d="M36.88 12.874v50.114h8.878V7.558" fill="#A5C33B"/><path d="M45.758 5.039H36.88v7.559l8.878-5.04" fill="#7FAF42"/><path d="M46.582 4.258h-.609v66.061h.61V4.258Z" fill="#B2D143"/><path d="M48.295 5.039h-2.537v65.507h2.537V5.039Z" fill="#A5C33B"/><path d="M48.992 63.365h-.609V4.258h.61v59.107Z" fill="#7FAF42"/><path d="M48.295 62.988h8.878v2.52h-8.878v-2.52Z" fill="#B2D143"/><path d="M48.295 68.027h8.878v2.519h-8.878v-2.52Z" fill="#7FAF42"/><path d="M48.295 12.874v50.114h8.878V7.558" fill="#A5C33B"/><path d="M57.173 5.039h-8.878v7.559l8.878-5.04" fill="#7FAF42"/><path d="M58.035 70.32h-.609V4.257h.609v66.061Z" fill="#B2D143"/><path d="M59.71 5.039h-2.537v65.507h2.536V5.039Z" fill="#A5C33B"/><path d="M60.445 63.365h-.61V4.258h.61v59.107Z" fill="#7FAF42"/><path d="M68.587 62.988H59.71v2.52h8.878v-2.52Z" fill="#B2D143"/><path d="M68.587 68.027H59.71v2.519h8.878v-2.52Z" fill="#7FAF42"/><path d="M11.514 65.507H2.636v2.52h8.878v-2.52Zm11.415 0h-8.878v2.52h8.878v-2.52Zm11.415 0h-8.878v2.52h8.878v-2.52Zm11.414 0H36.88v2.52h8.878v-2.52Zm2.537 0h8.878v2.52h-8.878v-2.52Zm20.292 0H59.71v2.52h8.878v-2.52Zm-8.878-52.633v50.114h8.878V7.558" fill="#A5C33B"/><path d="M68.587 5.039h-8.878v7.559l8.878-5.04" fill="#7FAF42"/><path d="M69.488 70.32h-.61V4.257h.61v66.061Z" fill="#B2D143"/><path d="M68.587 5.039h2.537v65.507h-2.537V5.039Z" fill="#A5C33B"/><path d="M3.904 10.078H2.636v55.43h1.268v-55.43Z" fill="#7FAF42"/><path d="M11.514 5.039h-1.268v60.468h1.268V5.039Z" fill="#B2D143"/><path d="M15.319 10.078H14.05v55.43h1.268v-55.43Z" fill="#7FAF42"/><path d="M22.929 5.039h-1.268v60.468h1.268V5.039Z" fill="#B2D143"/><path d="M26.734 10.078h-1.268v55.43h1.268v-55.43Z" fill="#7FAF42"/><path d="M34.343 5.039h-1.268v60.468h1.268V5.039Z" fill="#B2D143"/><path d="M38.148 10.078H36.88v55.43h1.268v-55.43Z" fill="#7FAF42"/><path d="M45.758 5.039H44.49v60.468h1.268V5.039Z" fill="#B2D143"/><path d="M49.563 10.078h-1.268v55.43h1.268v-55.43Z" fill="#7FAF42"/><path d="M57.172 5.039h-1.268v60.468h1.268V5.039Z" fill="#B2D143"/><path d="M60.977 10.078h-1.268v55.43h1.268v-55.43Z" fill="#7FAF42"/><path d="M68.587 5.039h-1.268v60.468h1.268V5.039Z" fill="#B2D143"/><path d="M69.063 5.039h2.536v65.507h-2.537V5.039Z" fill="#A5C33B"/><path d="M72.144 63.365h-.608V4.258h.608v59.107Z" fill="#7FAF42"/><path d="M80.477 62.988H71.6v2.52h8.878v-2.52Z" fill="#B2D143"/><path d="M80.477 68.027H71.6v2.519h8.878v-2.52Z" fill="#7FAF42"/><path d="M71.6 12.874v50.114h8.877V7.558" fill="#A5C33B"/><path d="M80.477 5.039H71.6v7.559l8.878-5.04" fill="#7FAF42"/><path d="M81.188 70.32h-.61V4.257h.61v66.061Z" fill="#B2D143"/><path d="M140.087 0v5.039H69.063V0h71.024ZM83.014 5.039h-2.537v65.507h2.537V5.039Z" fill="#A5C33B"/><path d="M83.597 63.365h-.609V4.258h.61v59.107Z" fill="#7FAF42"/><path d="M91.892 62.988h-8.878v2.52h8.878v-2.52Z" fill="#B2D143"/><path d="M91.892 68.027h-8.878v2.519h8.878v-2.52Z" fill="#7FAF42"/><path d="M83.014 12.874v50.114h8.878V7.558" fill="#A5C33B"/><path d="M91.892 5.039h-8.878v7.559l8.878-5.04" fill="#7FAF42"/><path d="M92.64 4.258h-.609v66.061h.61V4.258Z" fill="#B2D143"/><path d="M94.429 5.039h-2.537v65.507h2.537V5.039Z" fill="#A5C33B"/><path d="M95.05 63.365h-.609V4.258h.609v59.107Z" fill="#7FAF42"/><path d="M103.306 62.988h-8.878v2.52h8.878v-2.52Z" fill="#B2D143"/><path d="M103.306 68.027h-8.878v2.519h8.878v-2.52Z" fill="#7FAF42"/><path d="M94.428 12.874v50.114h8.878V7.558" fill="#A5C33B"/><path d="M103.306 5.039h-8.878v7.559l8.878-5.04" fill="#7FAF42"/><path d="M104.093 4.258h-.609v66.061h.609V4.258Z" fill="#B2D143"/><path d="M103.306 5.039h2.537v65.507h-2.537V5.039Z" fill="#A5C33B"/><path d="M106.503 63.365h-.61V4.258h.61v59.107Z" fill="#7FAF42"/><path d="M114.721 62.988h-8.878v2.52h8.878v-2.52Z" fill="#B2D143"/><path d="M114.721 68.027h-8.878v2.519h8.878v-2.52Z" fill="#7FAF42"/><path d="M105.843 12.874v50.114h8.878V7.558" fill="#A5C33B"/><path d="M114.721 5.039h-8.878v7.559l8.878-5.04" fill="#7FAF42"/><path d="M115.545 4.258h-.609v66.061h.609V4.258Z" fill="#B2D143"/><path d="M117.258 5.039h-2.537v65.507h2.537V5.039Z" fill="#A5C33B"/><path d="M117.955 63.365h-.609V4.258h.609v59.107Z" fill="#7FAF42"/><path d="M117.258 62.988h8.877v2.52h-8.877v-2.52Z" fill="#B2D143"/><path d="M117.258 68.027h8.877v2.519h-8.877v-2.52Z" fill="#7FAF42"/><path d="M117.258 12.874v50.114h8.877V7.558" fill="#A5C33B"/><path d="M126.135 5.039h-8.877v7.559l8.877-5.04" fill="#7FAF42"/><path d="M126.998 70.32h-.609V4.257h.609v66.061Z" fill="#B2D143"/><path d="M128.672 5.039h-2.537v65.507h2.537V5.039Z" fill="#A5C33B"/><path d="M129.408 63.365h-.609V4.258h.609v59.107Z" fill="#7FAF42"/><path d="M137.55 62.988h-8.878v2.52h8.878v-2.52Z" fill="#B2D143"/><path d="M137.55 68.027h-8.878v2.519h8.878v-2.52Z" fill="#7FAF42"/><path d="M80.477 65.507H71.6v2.52h8.878v-2.52Zm11.415 0h-8.878v2.52h8.878v-2.52Zm11.414 0h-8.878v2.52h8.878v-2.52Zm11.415 0h-8.878v2.52h8.878v-2.52Zm2.537 0h8.877v2.52h-8.877v-2.52Zm20.292 0h-8.878v2.52h8.878v-2.52Zm-8.878-52.633v50.114h8.878V7.558" fill="#A5C33B"/><path d="M137.55 5.039h-8.878v7.559l8.878-5.04" fill="#7FAF42"/><path d="M138.451 70.32h-.609V4.257h.609v66.061Z" fill="#B2D143"/><path d="M137.55 5.039h2.537v65.507h-2.537V5.039Z" fill="#A5C33B"/><path d="M72.867 10.078H71.6v55.43h1.268v-55.43Z" fill="#7FAF42"/><path d="M80.477 5.039H79.21v60.468h1.268V5.039Z" fill="#B2D143"/><path d="M84.282 10.078h-1.268v55.43h1.268v-55.43Z" fill="#7FAF42"/><path d="M91.891 5.039h-1.268v60.468h1.268V5.039Z" fill="#B2D143"/><path d="M95.696 10.078h-1.268v55.43h1.268v-55.43Z" fill="#7FAF42"/><path d="M103.306 5.039h-1.268v60.468h1.268V5.039Z" fill="#B2D143"/><path d="M107.111 10.078h-1.268v55.43h1.268v-55.43Z" fill="#7FAF42"/><path d="M114.72 5.039h-1.268v60.468h1.268V5.039Z" fill="#B2D143"/><path d="M118.526 10.078h-1.268v55.43h1.268v-55.43Z" fill="#7FAF42"/><path d="M126.135 5.039h-1.268v60.468h1.268V5.039Z" fill="#B2D143"/><path d="M129.94 10.078h-1.268v55.43h1.268v-55.43Z" fill="#7FAF42"/><path d="M137.55 5.039h-1.268v60.468h1.268V5.039Z" fill="#B2D143"/></g><defs><clipPath id="a"><path fill="#fff" d="M0 0h140.087v70.546H0z"/></clipPath></defs></svg>