<svg width="18" height="18" xmlns="http://www.w3.org/2000/svg"><path d="M17.954 15.424a.703.703 0 0 0-1.376.287.734.734 0 0 1-.15.615.714.714 0 0 1-.562.268h-3.175a.703.703 0 0 0 0 1.406h3.175a2.135 2.135 0 0 0 2.088-2.576ZM9.714 9.59a7.735 7.735 0 0 1 5.72 3.402.703.703 0 1 0 1.168-.783 9.145 9.145 0 0 0-4.74-3.6 4.777 4.777 0 0 0 1.92-3.828A4.787 4.787 0 0 0 9 0a4.787 4.787 0 0 0-4.78 4.781 4.78 4.78 0 0 0 1.92 3.83 9.138 9.138 0 0 0-6.094 6.813A2.135 2.135 0 0 0 2.134 18h3.07a.703.703 0 1 0 0-1.406h-3.07a.715.715 0 0 1-.562-.268.735.735 0 0 1-.15-.616c.69-3.307 3.48-5.772 6.792-6.113l-1.342 6.107a.703.703 0 0 0 .19.648l1.406 1.407a.703.703 0 0 0 .994 0l1.407-1.407a.703.703 0 0 0 .19-.648L9.713 9.59ZM5.625 4.78A3.379 3.379 0 0 1 9 1.406a3.379 3.379 0 0 1 3.375 3.375 3.38 3.38 0 0 1-3.207 3.371 9.157 9.157 0 0 0-.332 0 3.38 3.38 0 0 1-3.21-3.37Zm3.34 11.486-.637-.637.637-2.898.637 2.898-.637.637Z"/></svg>