<svg width="56" height="71" fill="none" xmlns="http://www.w3.org/2000/svg"><g clip-path="url(#a)"><path fill-rule="evenodd" clip-rule="evenodd" d="M17.27 60.465c2.756 0 4.986 2.245 4.986 5.002a4.987 4.987 0 1 1-9.974 0c0-2.757 2.23-5.002 4.987-5.002Zm27.35 0c2.758 0 4.988 2.245 4.988 5.002a4.987 4.987 0 1 1-9.974 0c0-2.757 2.23-5.002 4.987-5.002Z" fill="#333745"/><path d="M46.262 17.036H3.097v.016-.016L5.25 55.973a2.875 2.875 0 0 0 2.881 2.88h39.494a2.872 2.872 0 0 0 2.865-2.88l2.168-38.937h-6.396Z" fill="#A5C33B"/><path d="M54.533 13.645h-51.9v.728h51.9v-.728Z" fill="#7FAF42"/><path fill-rule="evenodd" clip-rule="evenodd" d="M10.841 17.238v4.337l6.428-2.788v-1.55h-6.427v.001Zm21.59 0v4.337l6.413-2.788v-1.55H32.43v.001Zm-7.155 0v4.337l6.413-2.788v-1.55h-6.413v.001Zm-7.248 0v4.337l6.427-2.788v-1.55h-6.427v.001Zm28.792-.015v4.32l6.241-2.71.093-1.61H46.82Zm-36.861.015H4.01l.232 4.104L9.96 18.85v-1.61Z" fill="#7FAF42"/><path d="M14.822 19.003h.712v37.853h-.712V19.003Z" fill="#7FAF42"/><path d="M6.334 56.779a2.826 2.826 0 0 0 2.664 1.874h39.17c1.223 0 2.26-.79 2.663-1.874H6.334Z" fill="#7FAF42"/><path d="M41.399 56.779h.712V20.49l-.712.31" fill="#B2D143"/><path d="M39.634 17.238v4.337l6.427-2.788v-1.549" fill="#7FAF42"/><path fill-rule="evenodd" clip-rule="evenodd" d="M46.464 58.854v6.226c0 1.053-.697 1.58-1.456 1.518-.774-.078-1.347-.728-2.4-2.044a970.945 970.945 0 0 0-3.422-4.29v-1.41h7.278Zm-28.327 0v6.226c0 1.053-.713 1.58-1.472 1.518-.775-.078-1.332-.728-2.385-2.044a701.475 701.475 0 0 0-3.438-4.29v-1.41h7.295Z" fill="#B2D143"/><path fill-rule="evenodd" clip-rule="evenodd" d="m52.674 30.976.45-7.744h1.083v7.744h-1.533Zm-49.406 0-.45-7.744H1.55v7.744h1.719Z" fill="#7FAF42"/><path fill-rule="evenodd" clip-rule="evenodd" d="M53.635 14.357H2.122v-.681h51.513v.681ZM0 3.098v27.879h2.122V17.114h51.513v13.861h2.121v-17.3l-.077-9.974C48.074 6.365 38.751 7.93 28.668 7.93 17.842 7.93 7.898 6.118 0 3.097Z" fill="#A5C33B"/><path d="M54.3 0H1.457C.65 0 0 .713 0 1.595v.574c7.899 3.485 17.873 5.576 28.714 5.576 10.098 0 19.422-1.813 27.042-4.88l-.015-1.27C55.74.713 55.106 0 54.3 0Z" fill="#B2D143"/></g><defs><clipPath id="a"><path fill="#fff" d="M0 0h55.756v70.546H0z"/></clipPath></defs></svg>