<svg width="25" height="16" xmlns="http://www.w3.org/2000/svg"><path d="M8.052 8.39a.509.509 0 0 0 .65-.306L9.7 5.33a.509.509 0 1 0-.956-.346l-.997 2.754a.509.509 0 0 0 .306.651Zm2.34 0a.509.509 0 0 0 .651-.306l.997-2.754a.508.508 0 1 0-.957-.346l-.996 2.754a.509.509 0 0 0 .305.651Zm2.34 0a.509.509 0 0 0 .652-.306l.996-2.754a.509.509 0 0 0-.956-.346l-.997 2.754a.509.509 0 0 0 .306.651Z"/><path d="m24.949 7.672-.432-2.16a3.658 3.658 0 0 0-3.577-2.934h-2.278V1.564C18.662.7 17.96 0 17.098 0H5.462A1.57 1.57 0 0 0 3.99 1.032L.084 11.836a1.4 1.4 0 0 0 1.317 1.876h1.832A2.933 2.933 0 0 0 6.09 16c1.395 0 2.564-.98 2.857-2.288h8.2A2.933 2.933 0 0 0 20.002 16c1.395 0 2.564-.98 2.857-2.288h1.31a.794.794 0 0 0 .794-.793c0-5.519.007-5.135-.015-5.247ZM5.478 1.587h11.597v10.538H8.86a2.933 2.933 0 0 0-2.77-1.982c-1.285 0-2.377.83-2.772 1.982H1.667l3.81-10.538Zm.612 12.826a1.343 1.343 0 0 1 0-2.683c.74 0 1.342.602 1.342 1.341 0 .74-.602 1.342-1.342 1.342Zm13.913 0a1.343 1.343 0 0 1 0-2.683c.74 0 1.342.602 1.342 1.341 0 .74-.602 1.342-1.342 1.342Zm3.374-2.288h-.603a2.93 2.93 0 0 0-4.112-1.655V4.165h2.278c.979 0 1.829.697 2.02 1.657l.417 2.084v4.22Z"/></svg>