<svg width="18" height="18" xmlns="http://www.w3.org/2000/svg"><path d="M7.6 0H.667C.3 0 0 .3 0 .667V7.6c0 .367.3.667.667.667H7.6c.367 0 .667-.3.667-.667V.667C8.267.3 7.967 0 7.6 0Zm-.667 6.933h-5.6v-5.6h5.6v5.6ZM17.333 0H10.4c-.367 0-.667.3-.667.667V7.6c0 .367.3.667.667.667h6.933c.367 0 .667-.3.667-.667V.667C18 .3 17.7 0 17.333 0Zm-.666 6.933h-5.6v-5.6h5.6v5.6ZM7.6 9.733H.667c-.367 0-.667.3-.667.667v6.933C0 17.7.3 18 .667 18H7.6c.367 0 .667-.3.667-.667V10.4c0-.367-.3-.667-.667-.667Zm-.667 6.934h-5.6v-5.6h5.6v5.6Zm10.4-6.934H10.4c-.367 0-.667.3-.667.667v6.933c0 .367.3.667.667.667h6.933c.367 0 .667-.3.667-.667V10.4c0-.367-.3-.667-.667-.667Zm-.666 6.934h-5.6v-5.6h5.6v5.6Z"/></svg>