<svg width="130" height="71" fill="none" xmlns="http://www.w3.org/2000/svg"><g clip-path="url(#a)"><path d="M.401 5.039h2.583v65.507H.401V5.039Z" fill="#A5C33B"/><path d="M3.54 63.365h-.62V4.258h.62v59.107Z" fill="#7FAF42"/><path d="M12.025 62.988h-9.04v2.52h9.04v-2.52Z" fill="#B2D143"/><path d="M12.025 68.027h-9.04v2.519h9.04v-2.52Z" fill="#7FAF42"/><path d="M2.984 12.874v50.114h9.041V7.558" fill="#A5C33B"/><path d="M12.025 5.039h-9.04v7.559l9.04-5.04" fill="#7FAF42"/><path d="M12.748 70.32h-.62V4.257h.62v66.061Z" fill="#B2D143"/><path d="M72.728 0v5.039H.403V0h72.325Zm-58.12 5.039h-2.583v65.507h2.583V5.039Z" fill="#A5C33B"/><path d="M15.202 63.365h-.62V4.258h.62v59.107Z" fill="#7FAF42"/><path d="M23.649 62.988h-9.04v2.52h9.04v-2.52Z" fill="#B2D143"/><path d="M23.649 68.027h-9.04v2.519h9.04v-2.52Z" fill="#7FAF42"/><path d="M14.608 12.874v50.114h9.04V7.558" fill="#A5C33B"/><path d="M23.649 5.039h-9.04v7.559l9.04-5.04" fill="#7FAF42"/><path d="M24.41 4.258h-.62v66.061h.62V4.258Z" fill="#B2D143"/><path d="M26.232 5.039h-2.583v65.507h2.583V5.039Z" fill="#A5C33B"/><path d="M26.865 63.365h-.62V4.258h.62v59.107Z" fill="#7FAF42"/><path d="M35.272 62.988h-9.04v2.52h9.04v-2.52Z" fill="#B2D143"/><path d="M35.272 68.027h-9.04v2.519h9.04v-2.52Z" fill="#7FAF42"/><path d="M26.232 12.874v50.114h9.04V7.558" fill="#A5C33B"/><path d="M35.272 5.039h-9.04v7.559l9.04-5.04" fill="#7FAF42"/><path d="M36.072 4.258h-.62v66.061h.62V4.258Z" fill="#B2D143"/><path d="M35.272 5.039h2.584v65.507h-2.584V5.039Z" fill="#A5C33B"/><path d="M38.527 63.365h-.62V4.258h.62v59.107Z" fill="#7FAF42"/><path d="M46.896 62.988h-9.04v2.52h9.04v-2.52Z" fill="#B2D143"/><path d="M46.896 68.027h-9.04v2.519h9.04v-2.52Z" fill="#7FAF42"/><path d="M37.855 12.874v50.114h9.041V7.558" fill="#A5C33B"/><path d="M46.896 5.039h-9.04v7.559l9.04-5.04" fill="#7FAF42"/><path d="M47.736 4.258h-.62v66.061h.62V4.258Z" fill="#B2D143"/><path d="M49.48 5.039h-2.584v65.507h2.583V5.039Z" fill="#A5C33B"/><path d="M50.19 63.365h-.62V4.258h.62v59.107Z" fill="#7FAF42"/><path d="M49.48 62.988h9.04v2.52h-9.04v-2.52Z" fill="#B2D143"/><path d="M49.48 68.027h9.04v2.519h-9.04v-2.52Z" fill="#7FAF42"/><path d="M49.48 12.874v50.114h9.04V7.558" fill="#A5C33B"/><path d="M58.52 5.039h-9.04v7.559l9.04-5.04" fill="#7FAF42"/><path d="M59.398 70.32h-.62V4.257h.62v66.061Z" fill="#B2D143"/><path d="M61.103 5.039H58.52v65.507h2.583V5.039Z" fill="#A5C33B"/><path d="M61.852 63.365h-.62V4.258h.62v59.107Z" fill="#7FAF42"/><path d="M70.144 62.988h-9.041v2.52h9.04v-2.52Z" fill="#B2D143"/><path d="M70.144 68.027h-9.041v2.519h9.04v-2.52Z" fill="#7FAF42"/><path d="M12.025 65.507h-9.04v2.52h9.04v-2.52Zm11.624 0h-9.04v2.52h9.04v-2.52Zm11.623 0h-9.04v2.52h9.04v-2.52Zm11.624 0h-9.04v2.52h9.04v-2.52Zm2.584 0h9.04v2.52h-9.04v-2.52Zm20.664 0h-9.041v2.52h9.04v-2.52Zm-9.041-52.633v50.114h9.04V7.558" fill="#A5C33B"/><path d="M70.144 5.039h-9.041v7.559l9.04-5.04" fill="#7FAF42"/><path d="M71.06 70.32h-.62V4.257h.62v66.061Z" fill="#B2D143"/><path d="M70.144 5.039h2.583v65.507h-2.583V5.039Z" fill="#A5C33B"/><path d="M4.275 10.078H2.984v55.43h1.291v-55.43Z" fill="#7FAF42"/><path d="M12.024 5.039h-1.29v60.468h1.29V5.039Z" fill="#B2D143"/><path d="M15.9 10.078h-1.292v55.43H15.9v-55.43Z" fill="#7FAF42"/><path d="M23.648 5.039h-1.291v60.468h1.291V5.039Z" fill="#B2D143"/><path d="M27.523 10.078H26.23v55.43h1.291v-55.43Z" fill="#7FAF42"/><path d="M35.272 5.039H33.98v60.468h1.29V5.039Z" fill="#B2D143"/><path d="M39.147 10.078h-1.291v55.43h1.29v-55.43Z" fill="#7FAF42"/><path d="M46.895 5.039h-1.29v60.468h1.29V5.039Z" fill="#B2D143"/><path d="M50.77 10.078h-1.29v55.43h1.29v-55.43Z" fill="#7FAF42"/><path d="M58.52 5.039h-1.292v60.468h1.291V5.039Z" fill="#B2D143"/><path d="M62.394 10.078h-1.291v55.43h1.291v-55.43Z" fill="#7FAF42"/><path d="M70.143 5.039h-1.291v60.468h1.291V5.039Z" fill="#B2D143"/><path d="M57.47 5.039h2.582v65.507H57.47V5.039Z" fill="#A5C33B"/><path d="M60.608 63.365h-.62V4.258h.62v59.107Z" fill="#7FAF42"/><path d="M69.093 62.988h-9.04v2.52h9.04v-2.52Z" fill="#B2D143"/><path d="M69.093 68.027h-9.04v2.519h9.04v-2.52Z" fill="#7FAF42"/><path d="M60.052 12.874v50.114h9.04V7.558" fill="#A5C33B"/><path d="M69.093 5.039h-9.04v7.559l9.04-5.04" fill="#7FAF42"/><path d="M69.816 70.32h-.62V4.257h.62v66.061Z" fill="#B2D143"/><path d="M129.795 0v5.039H57.469V0h72.326ZM71.676 5.039h-2.583v65.507h2.583V5.039Z" fill="#A5C33B"/><path d="M72.27 63.365h-.62V4.258h.62v59.107Z" fill="#7FAF42"/><path d="M80.717 62.988h-9.041v2.52h9.04v-2.52Z" fill="#B2D143"/><path d="M80.717 68.027h-9.041v2.519h9.04v-2.52Z" fill="#7FAF42"/><path d="M71.676 12.874v50.114h9.04V7.558" fill="#A5C33B"/><path d="M80.717 5.039h-9.041v7.559l9.04-5.04" fill="#7FAF42"/><path d="M81.479 4.258h-.62v66.061h.62V4.258Z" fill="#B2D143"/><path d="M83.3 5.039h-2.583v65.507H83.3V5.039Z" fill="#A5C33B"/><path d="M83.933 63.365h-.62V4.258h.62v59.107Z" fill="#7FAF42"/><path d="M92.34 62.988H83.3v2.52h9.04v-2.52Z" fill="#B2D143"/><path d="M92.34 68.027H83.3v2.519h9.04v-2.52Z" fill="#7FAF42"/><path d="M83.3 12.874v50.114h9.04V7.558" fill="#A5C33B"/><path d="M92.34 5.039H83.3v7.559l9.04-5.04" fill="#7FAF42"/><path d="M93.141 4.258h-.62v66.061h.62V4.258Z" fill="#B2D143"/><path d="M92.34 5.039h2.583v65.507H92.34V5.039Z" fill="#A5C33B"/><path d="M95.595 63.365h-.62V4.258h.62v59.107Z" fill="#7FAF42"/><path d="M103.964 62.988h-9.04v2.52h9.04v-2.52Z" fill="#B2D143"/><path d="M103.964 68.027h-9.04v2.519h9.04v-2.52Z" fill="#7FAF42"/><path d="M94.923 12.874v50.114h9.041V7.558" fill="#A5C33B"/><path d="M103.964 5.039h-9.04v7.559l9.04-5.04" fill="#7FAF42"/><path d="M104.803 4.258h-.619v66.061h.619V4.258Z" fill="#B2D143"/><path d="M106.547 5.039h-2.583v65.507h2.583V5.039Z" fill="#A5C33B"/><path d="M107.257 63.365h-.619V4.258h.619v59.107Z" fill="#7FAF42"/><path d="M106.547 62.988h9.041v2.52h-9.041v-2.52Z" fill="#B2D143"/><path d="M106.547 68.027h9.041v2.519h-9.041v-2.52Z" fill="#7FAF42"/><path d="M106.547 12.874v50.114h9.041V7.558" fill="#A5C33B"/><path d="M115.588 5.039h-9.041v7.559l9.041-5.04" fill="#7FAF42"/><path d="M116.466 70.32h-.62V4.257h.62v66.061Z" fill="#B2D143"/><path d="M118.171 5.039h-2.583v65.507h2.583V5.039Z" fill="#A5C33B"/><path d="M118.92 63.365h-.62V4.258h.62v59.107Z" fill="#7FAF42"/><path d="M127.211 62.988h-9.04v2.52h9.04v-2.52Z" fill="#B2D143"/><path d="M127.211 68.027h-9.04v2.519h9.04v-2.52Z" fill="#7FAF42"/><path d="M69.093 65.507h-9.04v2.52h9.04v-2.52Zm11.624 0h-9.041v2.52h9.04v-2.52Zm11.623 0H83.3v2.52h9.04v-2.52Zm11.624 0h-9.04v2.52h9.04v-2.52Zm2.583 0h9.041v2.52h-9.041v-2.52Zm20.664 0h-9.04v2.52h9.04v-2.52Zm-9.04-52.633v50.114h9.04V7.558" fill="#A5C33B"/><path d="M127.211 5.039h-9.04v7.559l9.04-5.04" fill="#7FAF42"/><path d="M128.129 70.32h-.62V4.257h.62v66.061Z" fill="#B2D143"/><path d="M127.211 5.039h2.584v65.507h-2.584V5.039Z" fill="#A5C33B"/><path d="M61.343 10.078h-1.29v55.43h1.29v-55.43Z" fill="#7FAF42"/><path d="M69.093 5.039h-1.291v60.468h1.29V5.039Z" fill="#B2D143"/><path d="M72.967 10.078h-1.291v55.43h1.291v-55.43Z" fill="#7FAF42"/><path d="M80.717 5.039h-1.292v60.468h1.292V5.039Z" fill="#B2D143"/><path d="M84.59 10.078H83.3v55.43h1.29v-55.43Z" fill="#7FAF42"/><path d="M92.34 5.039h-1.29v60.468h1.291V5.039Z" fill="#B2D143"/><path d="M96.215 10.078h-1.292v55.43h1.292v-55.43Z" fill="#7FAF42"/><path d="M103.964 5.039h-1.291v60.468h1.291V5.039Z" fill="#B2D143"/><path d="M107.838 10.078h-1.291v55.43h1.291v-55.43Z" fill="#7FAF42"/><path d="M115.588 5.039h-1.292v60.468h1.292V5.039Z" fill="#B2D143"/><path d="M119.462 10.078h-1.291v55.43h1.291v-55.43Z" fill="#7FAF42"/><path d="M127.211 5.039h-1.291v60.468h1.291V5.039Z" fill="#B2D143"/></g><defs><clipPath id="a"><path fill="#fff" d="M0 0h129.022v70.546H0z"/></clipPath></defs></svg>