<svg width="370" height="64" fill="none" xmlns="http://www.w3.org/2000/svg"><g clip-path="url(#a)"><path d="M38.008 6.05s30.734.077 31.438-.011c-.146.192-.896.739-1.067.832-3.204 1.765-6.388 3.564-9.466 5.541-2.462 1.582-4.905 3.195-6.971 5.296-.556.566-1.056 1.179-1.357 1.924-.383.95-.184 1.675.624 2.303.52.405 1.119.667 1.734.89 1.099.398 2.233.673 3.361.974 1.337.358 2.69.673 3.934 1.305 1.771.9 2.084 2.105.974 3.76-.69 1.027-1.596 1.855-2.536 2.642-2.125 1.78-5.848 4.947-5.939 5.226.221.097-.24.53-.246.858-.006.292.298.706.071.83-.437.24-1.463.105-1.944.222-2.22.541-4.487.741-6.762.808-2.59.076-5.183.053-7.765-.23-3.175-.35-6.31-.893-9.278-2.126-3.164-1.316-5.829-3.14-6.616-6.773v-3.39s2.693-3.78 4.993-6.77c2.056-2.675 7.903-10.245 9.224-12.313 1.32-2.068 2.273-1.796 3.594-1.799Z" fill="url(#b)"/><path d="M29.97 11.436c-.02.046-.032.122-.063.132-.122.036-.113-.076-.133-.144-.13-.434-.279-.865-.384-1.307-.418-1.753-1.46-3.149-2.527-4.55C24.522 2.492 21.317.94 17.608.275c-2.145-.385-4.293-.408-6.413.208a6.522 6.522 0 0 0-1.083.426c-.114.057-.261.09-.276.257.32.14.584.367.862.57 1.024.746 2.04 1.504 3.062 2.255 1.161.853 2.326 1.701 3.486 2.556.827.61 1.645 1.233 2.475 1.84 1.282.935 2.573 1.859 3.854 2.796 1.034.756 2.057 1.527 3.089 2.287.198.146.262.239.034.446-.962.877-1.747 1.901-2.41 3.017-.144.241-.283.256-.502.062-.898-.799-1.81-1.582-2.713-2.377-1-.88-2.13-1.477-3.372-1.938-1.305-.484-2.608-.948-3.994-1.132-.99-.037-1.982-.098-2.972.028-3.368.423-6.393 1.646-8.987 3.855a7.597 7.597 0 0 0-1.62 1.877c-.079.13-.22.262-.041.42.057-.093.15-.111.245-.105 1.141.074 2.282.14 3.423.227 1.14.088 2.279.207 3.42.295 1.351.104 2.706.188 4.058.286.836.06 1.67.137 2.506.194 1.009.07 2.019.116 3.026.19.823.06 1.643.154 2.465.219 1.166.092 2.333.184 3.501.248.34.018.335.143.253.4-.237.748-.475 1.494-.568 2.279-.078.657-.181 1.312-.273 1.967.148.151.043.33.044.49.037 6.9 4.932 12.843 11.702 14.18a14.42 14.42 0 0 0 5.77-.024c-.669-.088-1.237-.142-1.798-.24-5.747-1.01-10.38-5.42-11.635-11.064-1.709-7.689 2.89-15.195 10.521-17.255a8.128 8.128 0 0 1 1.653-.273c.218-.014.295-.137.377-.298.636-1.235.928-2.559.966-3.936.04-1.404-.152-2.774-.755-4.06-.155-.331-.297-.684-.626-.901-.697 1.43-1.4 2.858-2.09 4.293a464.812 464.812 0 0 0-2.388 5.048c-.117.252-.297.387-.536.425-.774.12-1.473.458-2.203.703-.395.133-.735.419-1.175.42Z" fill="#A5C33B"/><path d="M22.142 23.929c.092-.655.196-1.31.274-1.968.092-.784.33-1.531.568-2.278.082-.257.085-.381-.253-.4a145.53 145.53 0 0 1-3.501-.249c-.822-.064-1.642-.158-2.465-.218-1.008-.074-2.017-.12-3.026-.19-.836-.057-1.67-.135-2.506-.195-1.353-.097-2.706-.181-4.059-.285-1.14-.089-2.279-.207-3.42-.295-1.14-.088-2.281-.154-3.422-.228-.096-.006-.189.012-.245.105.703 1.109 1.638 2.008 2.642 2.834 3.053 2.513 6.456 4.337 10.358 5.168 2.014.428 3.991.235 5.968-.26 1.154-.288 2.212-.721 3.087-1.541Zm-8.434-12.38c1.387.184 2.689.648 3.994 1.132 1.241.46 2.37 1.057 3.371 1.938.903.794 1.815 1.578 2.714 2.376.218.194.357.179.5-.061.666-1.116 1.45-2.14 2.411-3.017.228-.207.165-.3-.034-.447-1.031-.76-2.055-1.53-3.088-2.287-1.282-.937-2.573-1.86-3.855-2.796-.83-.607-1.648-1.23-2.475-1.839-1.16-.855-2.324-1.702-3.485-2.556-1.022-.751-2.038-1.509-3.063-2.256-.277-.203-.541-.43-.862-.57.014 1.613.448 3.138.975 4.641.716 2.037 1.718 3.934 2.897 5.742Zm16.262-.113c.44-.001.78-.287 1.175-.42.731-.244 1.43-.581 2.203-.703.24-.037.42-.173.536-.424.785-1.688 1.584-3.37 2.39-5.048.688-1.435 1.392-2.862 2.089-4.294-.606.025-1.138.285-1.663.543-2.414 1.19-4.42 2.85-5.872 5.134-.808 1.27-1.062 2.692-1.1 4.165-.009.364.103.712.242 1.047Z" fill="#7FAF42"/><path d="M40.516 5.17c1.927.021 3.854.045 5.78.058.353.003.739.084.947-.357.205-.435.27-1.033.92-1.065 1.19-.06 2.382-.126 3.569.048.042.006.104.033.115.065.887 2.35 2.906.92 4.382 1.293.254.064 4.284-.006 6.016.013.893.01 1.836.18 2.132-1.072.09-.381.568-.412.94-.414.911-.005 1.823-.003 2.735.015.32.007.758.05.811.382.236 1.485 1.36 1.051 2.252 1.078.818.025 6.103 0 7.925.012.878.006 1.867.262 2.155-1.026.076-.337.458-.424.789-.427 1.003-.01 2.005-.01 3.007-.003.403.003.815.201.83.572.047 1.06.775.875 1.419.872.956-.005 7.354-.022 9.597 0 .455.005.784-.086.935-.583.41-1.347 1.536-.924 2.42-.85.933.076.868.905.877 1.593.021 1.734.025 3.469.059 5.203.007.357-.188.898.519.86.636-.033.522-.512.532-.905.014-.593.01-1.187.016-1.78.006-.495-.099-1.06.703-1.03.108.005.257-.091.325-.185.308-.42-.023-3.778-.407-4.275l-.852-.26-.045-1.09c.02-.635.327-.828.958-.725 1.255.204 1.928 1.02 2.391 2.097-.012 1.182.027 2.368-.053 3.545-.059.87.359 1.007 1.057.91l.114 1.037.01 2.2c-.013.838.636.481.989.483 4.707.022 9.413.012 14.12.011.516.253 9.56 17.44 10.491 19.27-.113 1.829-.106 11.644.023 11.747.931.744.689 1.76.72 2.718.021.669-.03 3.632.016 4.439.073 1.262-.388 1.792-1.727 1.748-2.165.03-2.337.26-2.323 2.266.003.43-.014.704-.393.693l-8.28.023c-1.259-.057-1.903-.38-1.864-1.669.016-1.507.044-3.015.046-4.522.004-3.727-2.138-6.747-5.548-7.914-1.224-.276-3.439-.58-5.027-.31-2.946.214-4.695.967-6.39 3.663-1.421 2.26-2.827 4.295-2.349 7.105.188 1.102-.39 1.542-1.513 1.538-8.577-.035-17.154-.035-25.73-.046-.548-.341-.572-.873-.57-1.442.005-1.187-.028-2.374-.045-3.562-1.195-2.158-2.836-4.006-4.194-6.05-.471-.708-.999-.908-1.806-.895l-27.55.044c-.655.073-1.768.772-2.09 1.219-1.174 1.63-2.235 3.357-3.546 4.869-1.622 1.87-2.128 3.938-1.765 6.304-.192.783.297 1.756-.65 2.33-1.818.046-10.35.18-10.946-.455-.025-.627-.078-3.521-.079-3.79.259-.874-.184-1.26-.928-1.665-1.463-.797-2.982-.658-4.524-.555-1.856-.121-3.718-.213-5.505-.805l-.31-.55.052-4.059.252-.33.011-.01c1.102-.437 2.145.11 3.217.184.698.048 1.449.387 2.046-.312 1.835-2.151 3.95-4.596 5.79-6.743l-.005-7.601S33.221 9.006 35.221 6.299c.573-.894 1.65-1.194 2.71-1.093.854.077 1.723-.018 2.585-.035Zm46.09 1.963c-1.306-.14-1.93.374-2.012 1.638-.838 1.974-9.226 25.626-9.877 27.454-.11.247-.209.5-.334.738-.514.99-.258 1.361.886 1.273l9.584-.009c.573.011.922-.14 1.12-.74.711-2.16 10.038-27.829 10.843-30.286-.86 0-9.052.056-10.21-.068Zm-23.76.837c.237-.336.569-.717-.187-.797-.392-.04-.794.014-1.191.025-.742 0-7.615-.031-9.215-.04-.393-.001-.87-.082-.927.531-.16.345-10.837 29.844-10.982 30.678 3.672 0 7.283.002 10.895-.005.26 0 .56.058.747-.22 1.095-2.393 10.747-29.816 10.86-30.172Zm39.662 30.442s7.794.008 9.63.048c2.009.25 4.007 1.005 5.717 3.283 1.075 1.398 1.769 3.115 2.353 4.758-.034.072 6.205.066 6.205.066 2.11.067 2.116.007 2.289 2.099.03.368-.028.706.52.749.605.048 1.436.028 1.516-.548.206-1.477.522-2.892-.127-4.17-.448-.88-.592-1.638-.599-2.503-.024-3.378-.014-6.757-.007-10.135.002-.597-.041-1.151-.341-1.71a2574.35 2574.35 0 0 1-8.668-16.26c-.272-.516-.582-.726-1.162-.716-2.563.046-5.127.06-7.691.084h-5.507c-1.006-.02-2.02.034-3.015-.08-1.251-.146-1.622.289-1.613 1.548.055 7.388.025 14.776.036 22.164.001.34-.048 1.22.303 1.506l.161-.183Zm-5.39-.195c1.969-.008 1.648.002 1.817-1.988l-.002-28.396-.269-.057c-2.045 5.816-9.475 26.46-10.156 28.37-.681 1.763-.716 2.072 1.488 2.084l7.121-.013Zm-28.19 2.517c1.222 1.682 2.327 3.228 3.461 4.753.39.524.717 1.048.688 1.726l-.044 2.545c-.006.373.099.619.546.483l22.038-.002c1.024.267 1.516-.04 1.367-1.173-.081-.612-.04-1.24-.055-1.862.011-.611.243-1.117.613-1.614.867-1.165 3.328-4.548 3.48-4.851-.048.09-32.203-.005-32.095-.005Zm57.677 11.586c.063-3.608.232-3.783-.491-3.783-.727-.018-4.406.01-5.132-.014-.456-.015-.663.187-.657.648.013.862 0 1.725.007 2.588.002.29.087.588.433.572l5.84-.01Zm-98.758-2.868-3.856.003c-.274-.015-.548-.04-.822-.043-2.922-.024-2.89-.024-2.787 2.898.027.767.306.903.98.888 1.879-.043 3.761-.089 5.637-.01 1.093.045 1.247-.438 1.065-1.308l.008-2.202c.038-.186-.04-.259-.225-.226Zm-7.383-2.24c-.034.176.021.26.213.205l3.308.01c1.04.017 2.087-.039 3.117.07 1.346.14 2.253-.307 2.697-1.602l2.767-3.843c3.09-3.14 12.679-31.396 13.182-33.28.774-1.604.774-1.607-.996-1.615-2.105-.01-4.21.03-6.314-.037-.832-.027-1.309.275-1.799.917a3050.134 3050.134 0 0 1-15.34 19.97c-.657.845-1.083 1.66-.846 2.732-.001 1.829.007 14.643.01 16.473Zm36.856-9.34c-.391.76.292.483.523.481 3.436-.02 6.872-.083 10.307-.096.635-.003.865-.29 1.047-.833.784-2.328 10.035-27.769 10.681-30.023-.762-.496-11.078-.197-11.27-.194-.164-.053-.259.006-.282.177-1.025 2.22-10.95 29.893-11.006 30.488Zm-19.532.484c.596-.073.615-.57.742-.924A10987 10987 0 0 0 49.065 8.077c.096-.271.584-.682-.013-.897-.519-.187-.708.245-.834.67-.065.218-.166.424-.243.639-2.6 7.254-5.196 14.51-7.798 21.763-.863 2.404-1.754 4.799-2.595 7.21-.095.27-.546.804.206.894Zm16.84.001c.604-.151.612-.677.757-1.077A3986.84 3986.84 0 0 0 60.3 23.663c1.877-5.229 3.746-10.46 5.61-15.692.09-.254.468-.589-.046-.784-.364-.139-.605.1-.738.43-.102.254-.187.514-.28.772-2.233 6.212-4.47 12.423-6.7 18.637-1.246 3.47-2.49 6.94-3.717 10.417-.107.303-.51.775.2.914Zm16.88-.097c.58-.162.59-.668.738-1.079L76.22 26.13c2.157-5.996 4.318-11.99 6.461-17.992.106-.295.534-.705.046-.944-.49-.239-.72.194-.866.61-.075.214-.162.425-.239.64l-7.417 20.703c-.982 2.743-1.964 5.486-2.943 8.23-.125.348-.469.78.247.884Zm-53.075 5.987c-2.69 1.252-5.392.72-8.066.636-.433-.014-1.113-.635-1.258.394-.124.882.367.988 1.1 1.14 2.71.563 5.595-.596 8.224 1.028v-3.198Zm-3.34-1.282c2.85.223 3.794-.903 3.165-3.68a9766.35 9766.35 0 0 0-3.164 3.68Z" fill="#2B4D73"/><path d="M68.334 46.939c.38 1.014.386 3.036-.1 4.563-.914 2.872-2.955 4.565-5.678 5.59-2.271.287-4.465.196-6.459-1.136-2.92-1.95-4.285-5.357-3.444-8.694.819-3.247 3.648-5.693 7.008-6.057 3.372-.366 6.65 1.502 8.144 4.64.174.367.352.73.528 1.094Zm-7.784-3.837a6.15 6.15 0 0 0-6.22 6.15c-.006 3.278 2.844 6.095 6.16 6.09 3.347-.003 6.13-2.761 6.154-6.097.023-3.328-2.747-6.12-6.094-6.143ZM117 51.556l-.236.767c-2.509 4.247-5.86 5.756-10.043 4.52-3.505-1.035-6.047-4.925-5.537-8.475.607-4.225 3.9-7.187 8.006-7.2 3.925-.014 7.317 2.842 7.96 6.588.224 1.302.062 2.54-.15 3.8Zm-7.744-8.46c-3.43.009-6.214 2.802-6.181 6.2.032 3.29 2.886 6.085 6.202 6.074 3.269-.011 6.173-2.928 6.137-6.162-.038-3.324-2.856-6.12-6.158-6.112Zm-2.617-28.612 3.573-.018.836.006 1.094.012c2.246.015 4.492.07 6.737.023.913-.019 1.416.32 1.826 1.105 1.224 2.346 2.302 4.808 3.826 6.95 2.363 3.323 1.886 7.004 1.917 10.657.007.871-.533 1.168-1.357 1.153-1.743-.032-3.485-.028-5.227-.039l-1.895-1.694c-1.443-1.387-2.907-2.755-4.318-4.175-.454-.456-.954-.451-1.502-.45-2.331.002-4.663 0-6.994-.002-1.891-.003-1.881-.006-1.887-1.965-.012-3.553-.037-7.106-.057-10.659l.442-.765 2.986-.139Zm5.529 1.977v-.008c-1.926 0-3.854.05-5.778-.02-.934-.035-1.275.183-1.242 1.184.083 2.466.1 4.938.023 7.404-.03.975.332 1.12 1.168 1.1 2.063-.049 4.13.031 6.191-.042 1.058-.037 1.802.333 2.534 1.062 1.62 1.615 3.321 3.15 4.995 4.712.536.5 3.591.88 4.184.523.103-.062.242-.196.236-.289-.125-2.026.582-4.148-.385-6.067-1.478-2.932-3.131-5.777-4.671-8.68-.338-.635-.711-.924-1.475-.899-1.925.063-3.853.02-5.78.02ZM21.785 36.228c.137-1.83.135-3.662.001-5.493.05-1.161.675-1.536 1.802-1.485 1.69.078 3.388.087 5.078.025 1.164-.042 1.505.436 1.496 1.54-.015 1.815-.168 3.637.097 5.448-.156.588-.063 1.292-.762 1.63l-5.506.023c-1.205.047-2.266-.094-2.206-1.688Zm6.438-2.647c-.002-2.348-.002-2.348-1.914-2.365-2.546-.023-2.546-.023-2.53 2.608.015 2.113.015 2.113 2.057 2.116 2.388.003 2.388.003 2.387-2.359Zm83.415.446s.191.794-.596.844c-.5.026-1.28.224-1.337-.476-.081-.687-.438-.659-.9-.647l-2.19-.002s-1.636.171-1.727-.755c-.047-1.227 1.033-1.119 1.744-1.15l2.619-.03c1.816.005 2.226.382 2.387 2.216ZM45.78 49.268c-.021 2.024-1.68 3.648-3.694 3.613-2.062-.035-3.63-1.669-3.593-3.742.037-2.075 1.631-3.62 3.694-3.577 2.048.043 3.613 1.657 3.592 3.706Zm-1.94-.05a1.732 1.732 0 0 0-1.75-1.727c-.93.017-1.797.883-1.704 1.787.103.99.71 1.587 1.702 1.667.943.078 1.755-.772 1.752-1.728Z" fill="#2B4D73"/><path d="M60.545 45.56c1.967.02 3.68 1.762 3.65 3.712-.029 1.948-1.84 3.697-3.763 3.637-1.987-.062-3.676-1.8-3.64-3.75.038-1.997 1.73-3.621 3.753-3.6Zm-1.817 3.668c.005.91.86 1.758 1.768 1.754.889-.004 1.809-.888 1.744-1.78-.077-1.048-.677-1.674-1.765-1.707-.955-.03-1.753.79-1.747 1.733Zm50.553-3.658c2.012.026 3.642 1.687 3.638 3.702-.005 1.973-1.768 3.675-3.733 3.604-2.051-.073-3.669-1.725-3.636-3.711.034-2.007 1.71-3.623 3.731-3.596Zm.125 1.926c-1.058-.042-1.947.748-1.913 1.662.039 1.053.656 1.738 1.69 1.773 1.043.037 1.739-.631 1.776-1.668.037-1.052-.649-1.624-1.553-1.767Zm8.448-27.462c-.322.37-.459.55-.617.709-1.163 1.162-2.37 2.283-3.479 3.494-.595.65-.869.245-1.283-.142-.45-.423-.686-.74-.095-1.284 1.209-1.112 2.345-2.302 3.527-3.444.194-.188.353-.614.764-.28.386.311.775.62 1.183.947Zm-3.538-.932c-.341.423-.49.645-.676.83-.61.615-1.246 1.204-1.849 1.826-.489.507-.807.973-1.59.181-.824-.834-.159-1.12.278-1.568a63.889 63.889 0 0 1 1.843-1.83c.206-.195.378-.61.772-.359.418.27.798.598 1.222.92ZM26.028 32.205c.722.117 1.262.465 1.28 1.297.018.82-.45 1.31-1.24 1.33-.784.019-1.297-.432-1.32-1.254-.022-.822.48-1.226 1.28-1.373Zm.597 1.316c-.099-.342-.252-.608-.645-.554-.364.05-.57.303-.521.646a.54.54 0 0 0 .57.468c.352-.015.564-.212.596-.56Zm23.342 13.418c.206 1.526.387 3.036-.1 4.563-.913 2.872-2.955 4.565-5.678 5.59-2.27.287-4.464.196-6.459-1.136-2.919-1.95-4.285-5.357-3.444-8.694.819-3.247 3.649-5.693 7.009-6.057 3.372-.366 6.65 1.502 8.144 4.64.174.367.352.73.528 1.094Zm-7.784-3.837a6.15 6.15 0 0 0-6.22 6.15c-.006 3.278 2.844 6.095 6.16 6.09 3.347-.003 6.13-2.761 6.153-6.097.024-3.328-2.746-6.12-6.093-6.143Z" fill="#2B4D73"/><path d="M30.361 58.18c.185-.222.126-.504.176-.756.28-1.407.93-2.642 1.72-3.899.092.198 0 .29-.045.387-.294.638-.53 1.293-.6 1.996-.158 1.624.599 2.776 1.921 3.617 1.424.905 3.025 1.318 4.66 1.612 3.996.717 8.03.658 12.064.52 2.868-.098 5.729-.327 8.583-.628 2.582-.272 5.158-.599 7.738-.895.505-.058 1.005-.176 1.566-.137-.13.146-.28.153-.416.19a128.012 128.012 0 0 1-14.252 2.93 91.871 91.871 0 0 1-7.558.784c-.143.01-.323-.081-.432.098h-.766c-.047-.112-.147-.104-.241-.104l-3.344.003c-.094 0-.194-.008-.244.1h-.67c-.06-.14-.19-.086-.29-.094-1.206-.099-2.41-.22-3.594-.474-1.438-.309-2.832-.73-4.051-1.593-1.025-.724-1.666-1.685-1.826-2.943-.01-.087.025-.197-.1-.238l.001-.476Z" fill="#8E8D8D"/><path d="M173.453 39.187h-9.191l-1.525-5.231h-8.864l-1.526 5.231h-9.191l9.427-27.95h11.443l9.427 27.95Zm-12.515-11.35-2.67-8.888-2.634 8.888h5.304Zm37.943 3.113c0 2.462-.829 4.411-2.488 5.847-1.841 1.593-4.553 2.39-8.137 2.39h-12.769v-27.95h12.206c2.99 0 5.273.737 6.847 2.21 1.356 1.266 2.034 2.865 2.034 4.796 0 2.498-1.247 4.327-3.742 5.486 1.901.434 3.379 1.26 4.433 2.48 1.077 1.254 1.616 2.835 1.616 4.741Zm-10.153-11.114c0-1.702-1.041-2.553-3.124-2.553h-1.562v5.105h.963c2.482 0 3.723-.85 3.723-2.552Zm1.307 10.68c0-1.858-1.137-2.787-3.414-2.787h-2.58v5.34h2.234c1.078 0 1.956-.205 2.634-.616.751-.446 1.126-1.092 1.126-1.937Zm30.915-12.165h-5.994v20.835h-8.664V18.351h-6.031v-7.113h20.689v7.113Zm31.623 6.861c0 4.164-1.375 7.628-4.124 10.39-2.906 2.934-6.763 4.4-11.57 4.4s-8.67-1.466-11.589-4.4c-2.749-2.762-4.123-6.226-4.123-10.39 0-4.163 1.374-7.627 4.123-10.39 2.919-2.932 6.782-4.399 11.589-4.399s8.664 1.466 11.57 4.399c2.749 2.763 4.124 6.227 4.124 10.39Zm-9.009 0c0-2.015-.661-3.686-1.98-5.013-1.271-1.28-2.84-1.919-4.704-1.919-1.865 0-3.439.64-4.723 1.919-1.32 1.327-1.98 2.999-1.98 5.013 0 2.016.66 3.688 1.98 5.015 1.284 1.28 2.857 1.918 4.723 1.918 1.864 0 3.433-.64 4.704-1.918 1.319-1.328 1.98-3 1.98-5.015Z" fill="#183D61"/><path d="M282.179 39.187h-8.664v-20.98h-8.718v20.98h-8.665v-27.95h26.047v27.95Zm32.331 0h-9.19l-1.527-5.231h-8.864l-1.525 5.231h-9.191l9.427-27.95h11.443l9.427 27.95Zm-12.514-11.35-2.67-8.888-2.634 8.888h5.304Zm37.362-7.114c0 2.885-.896 5.114-2.688 6.689-1.792 1.575-4.371 2.362-7.738 2.362h-3.687v9.413h-8.664v-27.95h11.643c3.718 0 6.539.894 8.464 2.68 1.78 1.641 2.67 3.91 2.67 6.806Zm-8.864-.217c0-2.003-1.217-3.005-3.651-3.005h-1.598v6.01h1.525c2.483 0 3.724-1.002 3.724-3.005ZM370 39.187h-10.481l-8.083-12.417v12.417h-8.664v-27.95h8.664V22.95l7.974-11.711h9.917l-9.917 13.486L370 39.187Z" fill="#5A8EC6"/><path d="M143.251 46.745h2.917c1.371 0 2.362.204 2.974.612.612.409.919 1.054.919 1.936 0 .61-.171 1.114-.512 1.51-.342.397-.84.654-1.494.77v.07c1.568.268 2.352 1.09 2.352 2.465 0 .92-.312 1.638-.936 2.154-.624.516-1.496.775-2.617.775h-3.602V46.745h-.001Zm1.201 4.407h1.977c.848 0 1.458-.133 1.829-.398.372-.265.558-.712.558-1.34 0-.578-.207-.995-.621-1.25-.415-.256-1.074-.384-1.978-.384h-1.766v3.371h.001Zm0 1.013v3.851h2.154c.834 0 1.461-.16 1.882-.482.422-.321.632-.825.632-1.51 0-.638-.215-1.107-.646-1.408-.431-.3-1.087-.45-1.967-.45h-2.055Zm12.061.345h2.113c.984 0 1.713.182 2.186.546.473.363.709.907.709 1.63 0 .774-.251 1.36-.752 1.756-.501.397-1.24.594-2.215.594h-3.214v-7.715h1.173v3.19Zm0 1.007v2.541h1.985c1.243 0 1.865-.434 1.865-1.302 0-.432-.144-.747-.431-.944-.287-.197-.777-.295-1.469-.295h-1.95Zm7.481 3.52h-1.173V49.32h1.173v7.715Zm11.659-5.78c0 .502-.144.883-.434 1.144-.29.26-.696.435-1.218.524v.064c.659.089 1.14.282 1.444.578.303.295.455.703.455 1.225 0 .718-.265 1.271-.794 1.66-.53.39-1.304.585-2.321.585h-3.412V49.32h3.398c1.922 0 2.882.645 2.882 1.936Zm-1.144.113c0-.376-.145-.642-.435-.8-.289-.156-.728-.235-1.317-.235h-2.211v2.175h1.985c.725 0 1.237-.089 1.533-.267.297-.179.445-.47.445-.873Zm.218 3.344c0-.418-.159-.722-.477-.912-.318-.19-.844-.285-1.578-.285h-2.127v2.542h2.155c1.352-.001 2.027-.449 2.027-1.345Zm12.451-1.542c0 1.258-.318 2.24-.953 2.946-.636.706-1.514 1.059-2.635 1.059-.692 0-1.307-.162-1.844-.486a3.215 3.215 0 0 1-1.243-1.394c-.291-.606-.437-1.314-.437-2.126 0-1.258.315-2.237.946-2.94.631-.7 1.506-1.052 2.627-1.052 1.084 0 1.944.36 2.582 1.077.638.72.957 1.691.957 2.916Zm-5.898 0c0 .985.198 1.736.593 2.252.396.516.977.775 1.745.775.767 0 1.35-.257 1.748-.771.398-.514.597-1.266.597-2.256 0-.98-.199-1.726-.597-2.235-.398-.51-.985-.764-1.762-.764-.768 0-1.347.251-1.738.753s-.586 1.251-.586 2.246Zm12.323-.648c1.465 0 2.197-.403 2.197-1.21 0-.761-.593-1.141-1.78-1.141-.362 0-.692.032-.988.098a7.602 7.602 0 0 0-1.166.394l-.417-.95a6.364 6.364 0 0 1 2.621-.535c.89 0 1.591.182 2.105.545.513.364.77.86.77 1.49 0 .863-.483 1.428-1.448 1.696v.056c.593.174 1.026.421 1.299.743.274.321.41.724.41 1.207 0 .714-.288 1.269-.865 1.665-.577.397-1.374.595-2.391.595-1.116 0-1.978-.166-2.585-.5v-1.07c.862.404 1.733.606 2.613.606.678 0 1.19-.116 1.536-.348.347-.233.52-.567.52-1.003 0-.897-.733-1.345-2.197-1.345h-1.074v-.992h.84v-.001Zm20.175 3.386.219-.655.303-.83 2.098-5.09h1.49v7.7h-1.039v-6.37l-.141.408-.409 1.077-1.999 4.886h-.982l-1.999-4.9c-.25-.629-.422-1.12-.516-1.472v6.37h-1.045v-7.699h1.433l2.027 4.893c.204.516.39 1.077.56 1.682Zm8.276-6.59h1.257l1.695 4.4c.372 1.005.603 1.73.692 2.176h.057c.061-.24.19-.65.385-1.229.195-.58.835-2.362 1.918-5.346h1.257l-3.328 8.785c-.329.868-.714 1.484-1.155 1.848-.44.363-.981.545-1.62.545a4.72 4.72 0 0 1-1.06-.12v-.936c.259.057.548.085.869.085.805 0 1.38-.45 1.723-1.352l.431-1.098-3.121-7.757Zm14.506 7.857c-1.121 0-1.989-.344-2.604-1.031-.614-.688-.921-1.66-.921-2.918 0-1.29.312-2.288.936-2.992.624-.704 1.512-1.055 2.667-1.055.372 0 .744.04 1.115.12.372.08.665.173.876.281l-.36.993a5.5 5.5 0 0 0-.847-.257 3.802 3.802 0 0 0-.812-.102c-1.573 0-2.36 1-2.36 2.999 0 .948.192 1.675.576 2.182.383.507.952.76 1.705.76.646 0 1.307-.138 1.985-.415v1.035c-.518.266-1.17.4-1.956.4Zm13.368-4.005c0 1.258-.318 2.24-.954 2.946-.636.706-1.514 1.059-2.634 1.059-.693 0-1.307-.162-1.844-.486-.537-.324-.951-.788-1.243-1.394-.292-.606-.438-1.314-.438-2.126 0-1.258.315-2.237.946-2.94.631-.7 1.507-1.052 2.628-1.052 1.083 0 1.943.36 2.581 1.077.639.72.958 1.691.958 2.916Zm-5.898 0c0 .985.198 1.736.593 2.252.396.516.977.775 1.745.775.767 0 1.35-.257 1.748-.771.398-.514.597-1.266.597-2.256 0-.98-.199-1.726-.597-2.235-.398-.51-.985-.764-1.762-.764-.767 0-1.347.251-1.737.753-.392.502-.587 1.251-.587 2.246Zm14.449 4.005a3.35 3.35 0 0 1-1.381-.278 2.601 2.601 0 0 1-1.049-.855h-.085c.057.45.085.877.085 1.281V60.5h-1.172V49.32h.953l.163 1.057h.056c.302-.422.653-.728 1.053-.916.4-.187.859-.281 1.377-.281 1.027 0 1.818.35 2.377 1.049.558.7.837 1.68.837 2.943 0 1.267-.284 2.251-.851 2.953-.568.702-1.355 1.052-2.363 1.052Zm-.169-7.004c-.791 0-1.363.218-1.716.654-.354.437-.535 1.131-.544 2.084v.26c0 1.084.181 1.86.544 2.327.362.467.944.7 1.744.7.669 0 1.193-.27 1.572-.809.379-.54.569-1.283.569-2.231 0-.962-.19-1.7-.569-2.214-.379-.514-.913-.771-1.6-.771Zm13.086 6.863-.233-1.098h-.057c-.386.483-.771.81-1.155.982-.384.171-.863.257-1.437.257-.768 0-1.37-.197-1.805-.591-.436-.395-.654-.955-.654-1.682 0-1.558 1.25-2.375 3.751-2.45l1.313-.042v-.479c0-.605-.13-1.052-.392-1.34-.261-.29-.679-.434-1.254-.434-.645 0-1.375.198-2.189.592l-.36-.894a5.508 5.508 0 0 1 1.254-.486c.454-.117.91-.176 1.366-.176.924 0 1.608.204 2.052.612.446.409.668 1.063.668 1.965v5.266h-.868v-.002Zm-2.649-.823c.73 0 1.303-.199 1.72-.598.416-.4.625-.958.625-1.676v-.697l-1.172.05c-.933.032-1.606.177-2.017.432-.412.256-.618.654-.618 1.193 0 .423.128.744.385.965.256.22.616.331 1.077.331Zm22.859-4.956c0 .502-.144.883-.434 1.144-.29.26-.696.435-1.218.524v.064c.659.089 1.141.282 1.445.578.303.295.455.703.455 1.225 0 .718-.265 1.271-.795 1.66-.53.39-1.303.585-2.321.585h-3.412V49.32h3.398c1.922 0 2.882.645 2.882 1.936Zm-1.144.113c0-.376-.146-.642-.435-.8-.289-.156-.728-.235-1.317-.235h-2.211v2.175h1.985c.725 0 1.236-.089 1.533-.267.296-.179.445-.47.445-.873Zm.219 3.344c0-.418-.159-.722-.477-.912-.318-.19-.844-.285-1.579-.285h-2.126v2.542h2.154c1.352-.001 2.028-.449 2.028-1.345Zm18.268 2.322-3.504-9.123h-.056c.065.723.098 1.581.098 2.577v6.546h-1.109V46.745h1.808l3.271 8.49h.056l3.299-8.49h1.795v10.292h-1.201v-6.632c0-.76.033-1.586.099-2.478h-.057l-3.531 9.11h-.968Zm17.889-3.864c0 1.258-.318 2.24-.954 2.946-.636.706-1.515 1.059-2.635 1.059-.692 0-1.307-.162-1.843-.486a3.202 3.202 0 0 1-1.243-1.394c-.292-.606-.439-1.314-.439-2.126 0-1.258.316-2.237.947-2.94.631-.7 1.507-1.052 2.628-1.052 1.082 0 1.943.36 2.581 1.077.639.72.958 1.691.958 2.916Zm-5.898 0c0 .985.198 1.736.593 2.252.396.516.977.775 1.745.775.767 0 1.35-.257 1.748-.771.398-.514.597-1.266.597-2.256 0-.98-.199-1.726-.597-2.235-.398-.51-.986-.764-1.762-.764-.768 0-1.347.251-1.737.753-.392.502-.587 1.251-.587 2.246Zm13.941 4.005c-1.121 0-1.989-.344-2.603-1.031-.615-.688-.922-1.66-.922-2.918 0-1.29.312-2.288.936-2.992.624-.704 1.512-1.055 2.667-1.055.372 0 .744.04 1.115.12.372.08.665.173.876.281l-.36.993a5.5 5.5 0 0 0-.847-.257 3.802 3.802 0 0 0-.812-.102c-1.573 0-2.36 1-2.36 2.999 0 .948.192 1.675.576 2.182.383.507.952.76 1.705.76.646 0 1.307-.138 1.985-.415v1.035c-.518.266-1.17.4-1.956.4Zm11.199-7.857h1.286l-3.341 3.725 3.617 3.991h-1.371l-3.531-3.907v3.907h-1.172v-7.715h1.172v3.752l3.34-3.752Zm12.168 1.937c0 .502-.144.883-.434 1.144-.29.26-.696.435-1.218.524v.064c.66.089 1.141.282 1.445.578.303.295.455.703.455 1.225 0 .718-.265 1.271-.795 1.66-.529.39-1.303.585-2.32.585h-3.412V49.32h3.397c1.921 0 2.882.645 2.882 1.936Zm-1.144.113c0-.376-.145-.642-.434-.8-.29-.156-.729-.235-1.318-.235h-2.211v2.175h1.985c.726 0 1.237-.089 1.533-.267.296-.179.445-.47.445-.873Zm.219 3.344c0-.418-.159-.722-.477-.912-.318-.19-.844-.285-1.579-.285h-2.126v2.542h2.154c1.352-.001 2.028-.449 2.028-1.345Zm9.038 2.463c-1.143 0-2.047-.347-2.709-1.042-.661-.694-.992-1.66-.992-2.893 0-1.244.307-2.232.921-2.964.615-.732 1.44-1.098 2.476-1.098.971 0 1.738.318 2.303.954.565.636.848 1.475.848 2.516v.74h-5.333c.023.905.253 1.593.688 2.062.436.47 1.049.704 1.84.704a6.25 6.25 0 0 0 2.473-.521v1.042a6.176 6.176 0 0 1-1.176.383 6.59 6.59 0 0 1-1.339.117Zm-.318-7.018c-.621 0-1.117.202-1.486.605-.37.405-.588.962-.654 1.676h4.047c0-.736-.165-1.3-.495-1.693-.328-.392-.799-.588-1.412-.588Z" fill="#8E8D8D"/></g><defs><linearGradient id="b" x1="20.197" y1="22.764" x2="69.447" y2="22.764" gradientUnits="userSpaceOnUse"><stop stop-color="#274668"/><stop offset="1" stop-color="#3B608D"/></linearGradient><clipPath id="a"><path fill="#fff" d="M0 0h370v64H0z"/></clipPath></defs></svg>