<svg width="135" height="71" fill="none" xmlns="http://www.w3.org/2000/svg"><path d="M30.035 4.048h101.103v31.208L102.251 70.58H32.977L5.64 35.256 30.035 4.048Z" fill="#A5C33B"/><path d="m131.138 35.256-118.31 9.29-7.19-9.29h125.5Z" fill="#7FAF42"/><path d="M27.934 0 .22 35.964l2.632 2.854 27.183-34.77" fill="#A5C33B"/><path d="M134.057 0H27.912v4.048h106.145V0Z" fill="#A5C33B"/><path d="m30.035 4.048.819.022L6.148 35.876l-.51-.664L30.036 4.048Z" fill="#7FAF42"/><path d="M53.525 4.048 21.918 14.399l8.117-10.351h23.49Z" fill="#7FAF42"/><path d="M131.005 35.256 5.772 35.234l.022-4.003h125.211v4.025Z" fill="#A5C33B"/><path d="M131.005 30.235v.996H9.731l.796-.996h120.478Z" fill="#B2D143"/><path d="M56.843 4.048 56.82 31.23h-3.296V4.048h3.318Z" fill="#A5C33B"/><path d="M53.525 4.048h-.819V31.23h.82V4.048Z" fill="#B2D143"/><path d="M56.843 4.048h.818V31.23h-.818V4.048Z" fill="#7FAF42"/><path d="m94.377 4.048-.022 27.183h-3.273V4.048h3.295Z" fill="#A5C33B"/><path d="M90.241 4.048h.84V31.23h-.84V4.048Z" fill="#B2D143"/></svg>