<svg width="18" height="18" xmlns="http://www.w3.org/2000/svg"><path d="M15.364 2.636A8.941 8.941 0 0 0 9 0a8.941 8.941 0 0 0-6.364 2.636A8.941 8.941 0 0 0 0 9a8.94 8.94 0 0 0 2.636 6.364A8.941 8.941 0 0 0 9 18a8.986 8.986 0 0 0 4.657-1.297.703.703 0 0 0-.729-1.203A7.58 7.58 0 0 1 9 16.594c-4.187 0-7.594-3.407-7.594-7.594S4.813 1.406 9 1.406 16.594 4.813 16.594 9a7.563 7.563 0 0 1-1.288 4.215.703.703 0 0 0 1.17.781A8.965 8.965 0 0 0 18 9a8.941 8.941 0 0 0-2.636-6.364Z"/><path d="M6.83 13.134a.7.7 0 0 0 .954-.284l3.8-7.031a.703.703 0 1 0-1.237-.669l-3.8 7.031a.703.703 0 0 0 .284.953ZM7.84 6.54a1.76 1.76 0 0 0-1.758-1.76 1.76 1.76 0 0 0-1.758 1.76c0 .97.789 1.758 1.758 1.758A1.76 1.76 0 0 0 7.84 6.539Zm-1.758.35a.352.352 0 1 1 0-.703.352.352 0 0 1 0 .704Zm5.801 6.329a1.76 1.76 0 0 0 1.758-1.758 1.76 1.76 0 0 0-1.758-1.758 1.76 1.76 0 0 0-1.758 1.758c0 .97.789 1.758 1.758 1.758Zm0-2.11a.352.352 0 1 1 0 .704.352.352 0 0 1 0-.704Z"/></svg>