<?xml version="1.0" encoding="utf-8"?><svg viewBox="0 0 1688 71" xmlns="http://www.w3.org/2000/svg" xmlns:xlink="http://www.w3.org/1999/xlink"><style>:root>svg{display:none}:root>svg:target{display:block}</style><svg viewBox="0 0 18 18" id="icon-about" xmlns="http://www.w3.org/2000/svg"><path d="M17.954 15.424a.703.703 0 00-1.376.287.734.734 0 01-.15.615.714.714 0 01-.562.268h-3.175a.703.703 0 000 1.406h3.175a2.135 2.135 0 002.088-2.576zM9.714 9.59a7.735 7.735 0 015.72 3.402.703.703 0 101.168-.783 9.145 9.145 0 00-4.74-3.6 4.777 4.777 0 001.92-3.828A4.787 4.787 0 009 0a4.787 4.787 0 00-4.78 4.781c0 1.565.755 2.957 1.92 3.83a9.138 9.138 0 00-6.094 6.813A2.135 2.135 0 002.134 18h3.07a.703.703 0 100-1.406h-3.07a.715.715 0 01-.562-.268.735.735 0 01-.15-.616c.69-3.307 3.48-5.772 6.792-6.113l-1.342 6.107a.703.703 0 00.19.648l1.406 1.407a.703.703 0 00.994 0l1.407-1.407a.703.703 0 00.19-.648L9.713 9.59zM5.625 4.78A3.379 3.379 0 019 1.406a3.379 3.379 0 013.375 3.375 3.38 3.38 0 01-3.207 3.371 9.157 9.157 0 00-.332 0 3.38 3.38 0 01-3.21-3.37zm3.34 11.486l-.637-.637.637-2.898.637 2.898-.637.637z"/></svg><svg fill="none" viewBox="0 0 11 6" id="icon-arrow" xmlns="http://www.w3.org/2000/svg"><path d="M1 1l4.506 4L10 1" stroke="#5F8AC3"/></svg><svg viewBox="0 0 25 16" id="icon-auto" xmlns="http://www.w3.org/2000/svg"><path d="M8.052 8.39a.509.509 0 00.65-.306L9.7 5.33a.509.509 0 10-.956-.346l-.997 2.754a.509.509 0 00.306.651zM10.392 8.39a.509.509 0 00.651-.306l.997-2.754a.508.508 0 10-.957-.346l-.996 2.754a.509.509 0 00.305.651zM12.732 8.39a.509.509 0 00.652-.306l.996-2.754a.509.509 0 00-.956-.346l-.997 2.754a.509.509 0 00.306.651z"/><path d="M24.949 7.672l-.432-2.16a3.658 3.658 0 00-3.577-2.934h-2.278V1.564C18.662.7 17.96 0 17.098 0H5.462C4.805 0 4.214.415 3.99 1.032L.084 11.836a1.4 1.4 0 001.317 1.876h1.832A2.933 2.933 0 006.09 16c1.395 0 2.564-.98 2.857-2.288h8.2A2.933 2.933 0 0020.002 16c1.395 0 2.564-.98 2.857-2.288h1.31a.794.794 0 00.794-.793c0-5.519.007-5.135-.015-5.247zM5.478 1.587h11.597v10.538H8.86a2.933 2.933 0 00-2.77-1.982c-1.285 0-2.377.83-2.772 1.982H1.667l3.81-10.538zm.612 12.826c-.74 0-1.341-.602-1.341-1.342 0-.74.601-1.341 1.341-1.341s1.342.602 1.342 1.341c0 .74-.602 1.342-1.342 1.342zm13.913 0c-.74 0-1.341-.602-1.341-1.342 0-.74.602-1.341 1.341-1.341.74 0 1.342.602 1.342 1.341 0 .74-.602 1.342-1.342 1.342zm3.374-2.288h-.603a2.93 2.93 0 00-4.112-1.655V4.165h2.278c.979 0 1.829.697 2.02 1.657l.417 2.084v4.22z"/></svg><svg viewBox="0 0 18 18" id="icon-contacts" xmlns="http://www.w3.org/2000/svg"><path d="M14.975 3.13C13.6 1.14 11.423 0 9 0 6.578 0 4.4 1.14 3.026 3.13c-1.368 1.978-1.684 4.484-.847 6.697.224.604.58 1.191 1.055 1.742l5.287 6.21a.629.629 0 00.958 0l5.286-6.209a5.73 5.73 0 001.054-1.74c.839-2.216.523-4.722-.844-6.7zm-.334 6.26a4.488 4.488 0 01-.833 1.363L9 16.4l-4.81-5.65a4.493 4.493 0 01-.832-1.364c-.692-1.83-.43-3.902.703-5.54A5.924 5.924 0 019 1.258c2.002 0 3.803.943 4.938 2.586a6.013 6.013 0 01.702 5.545z"/><path d="M9 3.734A3.528 3.528 0 005.476 7.26 3.528 3.528 0 009 10.783a3.528 3.528 0 003.525-3.524A3.529 3.529 0 009 3.734zm0 5.79A2.268 2.268 0 016.734 7.26 2.268 2.268 0 019 4.993a2.268 2.268 0 012.266 2.266A2.268 2.268 0 019 9.524z"/></svg><svg fill="none" viewBox="0 0 8 13" id="icon-down" xmlns="http://www.w3.org/2000/svg"><path d="M3.646 12.354a.5.5 0 00.708 0l3.182-3.182a.5.5 0 10-.708-.708L4 11.293 1.172 8.464a.5.5 0 10-.708.708l3.182 3.182zM3.5 0v12h1V0h-1z"/></svg><svg fill="none" viewBox="0 0 370 64" id="icon-logo" xmlns="http://www.w3.org/2000/svg"><g clip-path="url(#fclip0_1_1087)"><path d="M38.008 6.05s30.734.077 31.438-.011c-.146.192-.896.739-1.067.832-3.204 1.765-6.388 3.564-9.466 5.541-2.462 1.582-4.905 3.195-6.971 5.296-.556.566-1.056 1.179-1.357 1.924-.383.95-.184 1.675.624 2.303.52.405 1.119.667 1.734.89 1.099.398 2.233.673 3.361.974 1.337.358 2.69.673 3.934 1.305 1.771.9 2.084 2.105.974 3.76-.69 1.027-1.596 1.855-2.536 2.642-2.125 1.78-5.848 4.947-5.939 5.226.221.097-.24.53-.246.858-.006.292.298.706.071.83-.437.24-1.463.105-1.944.222-2.22.541-4.487.741-6.762.808-2.59.076-5.183.053-7.765-.23-3.175-.35-6.31-.893-9.278-2.126-3.164-1.316-5.829-3.14-6.616-6.773v-3.39s2.693-3.78 4.993-6.77c2.056-2.675 7.903-10.245 9.224-12.313 1.32-2.068 2.273-1.796 3.594-1.799z" fill="url(#fpaint0_linear_1_1087)"/><path d="M29.97 11.436c-.02.046-.032.122-.063.132-.122.036-.113-.076-.133-.144-.13-.434-.279-.865-.384-1.307-.418-1.753-1.46-3.149-2.527-4.55C24.522 2.492 21.317.94 17.608.275c-2.145-.385-4.293-.408-6.413.208a6.522 6.522 0 00-1.083.426c-.114.057-.261.09-.276.257.32.14.584.367.862.57 1.024.746 2.04 1.504 3.062 2.255 1.161.853 2.326 1.701 3.486 2.556.827.61 1.645 1.233 2.475 1.84 1.282.935 2.573 1.859 3.854 2.796 1.034.756 2.057 1.527 3.089 2.287.198.146.262.239.034.446-.962.877-1.747 1.901-2.41 3.017-.144.241-.283.256-.502.062-.898-.799-1.81-1.582-2.713-2.377-1-.88-2.13-1.477-3.372-1.938-1.305-.484-2.608-.948-3.994-1.132-.99-.037-1.982-.098-2.972.028-3.368.423-6.393 1.646-8.987 3.855a7.597 7.597 0 00-1.62 1.877c-.079.13-.22.262-.041.42.057-.093.15-.111.245-.105 1.141.074 2.282.14 3.423.227 1.14.088 2.279.207 3.42.295 1.351.104 2.706.188 4.058.286.836.06 1.67.137 2.506.194 1.009.07 2.019.116 3.026.19.823.06 1.643.154 2.465.219 1.166.092 2.333.184 3.501.248.34.018.335.143.253.4-.237.748-.475 1.494-.568 2.279-.078.657-.181 1.312-.273 1.967.148.151.043.33.044.49.037 6.9 4.932 12.843 11.702 14.18a14.42 14.42 0 005.77-.024c-.669-.088-1.237-.142-1.798-.24-5.747-1.01-10.38-5.42-11.635-11.064-1.709-7.689 2.89-15.195 10.521-17.255a8.128 8.128 0 011.653-.273c.218-.014.295-.137.377-.298.636-1.235.928-2.559.966-3.936.04-1.404-.152-2.774-.755-4.06-.155-.331-.297-.684-.626-.901-.697 1.43-1.4 2.858-2.09 4.293a464.812 464.812 0 00-2.388 5.048c-.117.252-.297.387-.536.425-.774.12-1.473.458-2.203.703-.395.133-.735.419-1.175.42z" fill="#A5C33B"/><path d="M22.142 23.929c.092-.655.196-1.31.274-1.968.092-.784.33-1.531.568-2.278.082-.257.085-.381-.253-.4a145.53 145.53 0 01-3.501-.249c-.822-.064-1.642-.158-2.465-.218-1.008-.074-2.017-.12-3.026-.19-.836-.057-1.67-.135-2.506-.195-1.353-.097-2.706-.181-4.059-.285-1.14-.089-2.279-.207-3.42-.295-1.14-.088-2.281-.154-3.422-.228-.096-.006-.189.012-.245.105.703 1.109 1.638 2.008 2.642 2.834 3.053 2.513 6.456 4.337 10.358 5.168 2.014.428 3.991.235 5.968-.26 1.154-.288 2.212-.721 3.087-1.541zM13.708 11.549c1.387.184 2.689.648 3.994 1.132 1.241.46 2.37 1.057 3.371 1.938.903.794 1.815 1.578 2.714 2.376.218.194.357.179.5-.061.666-1.116 1.45-2.14 2.411-3.017.228-.207.165-.3-.034-.447-1.031-.76-2.055-1.53-3.088-2.287-1.282-.937-2.573-1.86-3.855-2.796-.83-.607-1.648-1.23-2.475-1.839-1.16-.855-2.324-1.702-3.485-2.556-1.022-.751-2.038-1.509-3.063-2.256-.277-.203-.541-.43-.862-.57.014 1.613.448 3.138.975 4.641.716 2.037 1.718 3.934 2.897 5.742zM29.97 11.436c.44-.001.78-.287 1.175-.42.731-.244 1.43-.581 2.203-.703.24-.037.42-.173.536-.424.785-1.688 1.584-3.37 2.39-5.048.688-1.435 1.392-2.862 2.089-4.294-.606.025-1.138.285-1.663.543-2.414 1.19-4.42 2.85-5.872 5.134-.808 1.27-1.062 2.692-1.1 4.165-.009.364.103.712.242 1.047z" fill="#7FAF42"/><path d="M40.516 5.17c1.927.021 3.854.045 5.78.058.353.003.739.084.947-.357.205-.435.27-1.033.92-1.065 1.19-.06 2.382-.126 3.569.048.042.006.104.033.115.065.887 2.35 2.906.92 4.382 1.293.254.064 4.284-.006 6.016.013.893.01 1.836.18 2.132-1.072.09-.381.568-.412.94-.414.911-.005 1.823-.003 2.735.015.32.007.758.05.811.382.236 1.485 1.36 1.051 2.252 1.078.818.025 6.103 0 7.925.012.878.006 1.867.262 2.155-1.026.076-.337.458-.424.789-.427 1.003-.01 2.005-.01 3.007-.003.403.003.815.201.83.572.047 1.06.775.875 1.419.872.956-.005 7.354-.022 9.597 0 .455.005.784-.086.935-.583.41-1.347 1.536-.924 2.42-.85.933.076.868.905.877 1.593.021 1.734.025 3.469.059 5.203.007.357-.188.898.519.86.636-.033.522-.512.532-.905.014-.593.01-1.187.016-1.78.006-.495-.099-1.06.703-1.03.108.005.257-.091.325-.185.308-.42-.023-3.778-.407-4.275l-.852-.26-.045-1.09c.02-.635.327-.828.958-.725 1.255.204 1.928 1.02 2.391 2.097-.012 1.182.027 2.368-.053 3.545-.059.87.359 1.007 1.057.91l.114 1.037.01 2.2c-.013.838.636.481.989.483 4.707.022 9.413.012 14.12.011.516.253 9.56 17.44 10.491 19.27-.113 1.829-.106 11.644.023 11.747.931.744.689 1.76.72 2.718.021.669-.03 3.632.016 4.439.073 1.262-.388 1.792-1.727 1.748-2.165.03-2.337.26-2.323 2.266.003.43-.014.704-.393.693l-8.28.023c-1.259-.057-1.903-.38-1.864-1.669.016-1.507.044-3.015.046-4.522.004-3.727-2.138-6.747-5.548-7.914-1.224-.276-3.439-.58-5.027-.31-2.946.214-4.695.967-6.39 3.663-1.421 2.26-2.827 4.295-2.349 7.105.188 1.102-.39 1.542-1.513 1.538-8.577-.035-17.154-.035-25.73-.046-.548-.341-.572-.873-.57-1.442.005-1.187-.028-2.374-.045-3.562-1.195-2.158-2.836-4.006-4.194-6.05-.471-.708-.999-.908-1.806-.895l-27.55.044c-.655.073-1.768.772-2.09 1.219-1.174 1.63-2.235 3.357-3.546 4.869-1.622 1.87-2.128 3.938-1.765 6.304-.192.783.297 1.756-.65 2.33-1.818.046-10.35.18-10.946-.455-.025-.627-.078-3.521-.079-3.79.259-.874-.184-1.26-.928-1.665-1.463-.797-2.982-.658-4.524-.555-1.856-.121-3.718-.213-5.505-.805l-.31-.55.052-4.059.252-.33.011-.01c1.102-.437 2.145.11 3.217.184.698.048 1.449.387 2.046-.312 1.835-2.151 3.95-4.596 5.79-6.743l-.005-7.601S33.221 9.006 35.221 6.299c.573-.894 1.65-1.194 2.71-1.093.854.077 1.723-.018 2.585-.035zm46.09 1.963c-1.306-.14-1.93.374-2.012 1.638-.838 1.974-9.226 25.626-9.877 27.454-.11.247-.209.5-.334.738-.514.99-.258 1.361.886 1.273l9.584-.009c.573.011.922-.14 1.12-.74.711-2.16 10.038-27.829 10.843-30.286-.86 0-9.052.056-10.21-.068zm-23.76.837c.237-.336.569-.717-.187-.797-.392-.04-.794.014-1.191.025-.742 0-7.615-.031-9.215-.04-.393-.001-.87-.082-.927.531-.16.345-10.837 29.844-10.982 30.678 3.672 0 7.283.002 10.895-.005.26 0 .56.058.747-.22 1.095-2.393 10.747-29.816 10.86-30.172zm39.662 30.442s7.794.008 9.63.048c2.009.25 4.007 1.005 5.717 3.283 1.075 1.398 1.769 3.115 2.353 4.758-.034.072 6.205.066 6.205.066 2.11.067 2.116.007 2.289 2.099.03.368-.028.706.52.749.605.048 1.436.028 1.516-.548.206-1.477.522-2.892-.127-4.17-.448-.88-.592-1.638-.599-2.503-.024-3.378-.014-6.757-.007-10.135.002-.597-.041-1.151-.341-1.71a2574.35 2574.35 0 01-8.668-16.26c-.272-.516-.582-.726-1.162-.716-2.563.046-5.127.06-7.691.084h-5.507c-1.006-.02-2.02.034-3.015-.08-1.251-.146-1.622.289-1.613 1.548.055 7.388.025 14.776.036 22.164.001.34-.048 1.22.303 1.506l.161-.183zm-5.39-.195c1.969-.008 1.648.002 1.817-1.988l-.002-28.396-.269-.057c-2.045 5.816-9.475 26.46-10.156 28.37-.681 1.763-.716 2.072 1.488 2.084l7.121-.013zm-28.19 2.517c1.222 1.682 2.327 3.228 3.461 4.753.39.524.717 1.048.688 1.726l-.044 2.545c-.006.373.099.619.546.483l22.038-.002c1.024.267 1.516-.04 1.367-1.173-.081-.612-.04-1.24-.055-1.862.011-.611.243-1.117.613-1.614.867-1.165 3.328-4.548 3.48-4.851-.048.09-32.203-.005-32.095-.005zm57.677 11.586c.063-3.608.232-3.783-.491-3.783-.727-.018-4.406.01-5.132-.014-.456-.015-.663.187-.657.648.013.862 0 1.725.007 2.588.002.29.087.588.433.572l5.84-.01zm-98.758-2.868l-3.856.003c-.274-.015-.548-.04-.822-.043-2.922-.024-2.89-.024-2.787 2.898.027.767.306.903.98.888 1.879-.043 3.761-.089 5.637-.01 1.093.045 1.247-.438 1.065-1.308l.008-2.202c.038-.186-.04-.259-.225-.226zm-7.383-2.24c-.034.176.021.26.213.205l3.308.01c1.04.017 2.087-.039 3.117.07 1.346.14 2.253-.307 2.697-1.602l2.767-3.843c3.09-3.14 12.679-31.396 13.182-33.28.774-1.604.774-1.607-.996-1.615-2.105-.01-4.21.03-6.314-.037-.832-.027-1.309.275-1.799.917a3050.134 3050.134 0 01-15.34 19.97c-.657.845-1.083 1.66-.846 2.732-.001 1.829.007 14.643.01 16.473zm36.856-9.34c-.391.76.292.483.523.481 3.436-.02 6.872-.083 10.307-.096.635-.003.865-.29 1.047-.833.784-2.328 10.035-27.769 10.681-30.023-.762-.496-11.078-.197-11.27-.194-.164-.053-.259.006-.282.177-1.025 2.22-10.95 29.893-11.006 30.488zm-19.532.484c.596-.073.615-.57.742-.924A10987 10987 0 0049.065 8.077c.096-.271.584-.682-.013-.897-.519-.187-.708.245-.834.67-.065.218-.166.424-.243.639-2.6 7.254-5.196 14.51-7.798 21.763-.863 2.404-1.754 4.799-2.595 7.21-.095.27-.546.804.206.894zm16.84.001c.604-.151.612-.677.757-1.077A3986.84 3986.84 0 0060.3 23.663c1.877-5.229 3.746-10.46 5.61-15.692.09-.254.468-.589-.046-.784-.364-.139-.605.1-.738.43-.102.254-.187.514-.28.772-2.233 6.212-4.47 12.423-6.7 18.637-1.246 3.47-2.49 6.94-3.717 10.417-.107.303-.51.775.2.914zm16.88-.097c.58-.162.59-.668.738-1.079L76.22 26.13c2.157-5.996 4.318-11.99 6.461-17.992.106-.295.534-.705.046-.944-.49-.239-.72.194-.866.61-.075.214-.162.425-.239.64l-7.417 20.703c-.982 2.743-1.964 5.486-2.943 8.23-.125.348-.469.78.247.884zm-53.075 5.987c-2.69 1.252-5.392.72-8.066.636-.433-.014-1.113-.635-1.258.394-.124.882.367.988 1.1 1.14 2.71.563 5.595-.596 8.224 1.028v-3.198zm-3.34-1.282c2.85.223 3.794-.903 3.165-3.68a9766.35 9766.35 0 00-3.164 3.68z" fill="#2B4D73"/><path d="M68.334 46.939c.38 1.014.386 3.036-.1 4.563-.914 2.872-2.955 4.565-5.678 5.59-2.271.287-4.465.196-6.459-1.136-2.92-1.95-4.285-5.357-3.444-8.694.819-3.247 3.648-5.693 7.008-6.057 3.372-.366 6.65 1.502 8.144 4.64.174.367.352.73.528 1.094zm-7.784-3.837a6.15 6.15 0 00-6.22 6.15c-.006 3.278 2.844 6.095 6.16 6.09 3.347-.003 6.13-2.761 6.154-6.097.023-3.328-2.747-6.12-6.094-6.143zM117 51.556l-.236.767c-2.509 4.247-5.86 5.756-10.043 4.52-3.505-1.035-6.047-4.925-5.537-8.475.607-4.225 3.9-7.187 8.006-7.2 3.925-.014 7.317 2.842 7.96 6.588.224 1.302.062 2.54-.15 3.8zm-7.744-8.46c-3.43.009-6.214 2.802-6.181 6.2.032 3.29 2.886 6.085 6.202 6.074 3.269-.011 6.173-2.928 6.137-6.162-.038-3.324-2.856-6.12-6.158-6.112zM106.639 14.484l3.573-.018.836.006 1.094.012c2.246.015 4.492.07 6.737.023.913-.019 1.416.32 1.826 1.105 1.224 2.346 2.302 4.808 3.826 6.95 2.363 3.323 1.886 7.004 1.917 10.657.007.871-.533 1.168-1.357 1.153-1.743-.032-3.485-.028-5.227-.039l-1.895-1.694c-1.443-1.387-2.907-2.755-4.318-4.175-.454-.456-.954-.451-1.502-.45-2.331.002-4.663 0-6.994-.002-1.891-.003-1.881-.006-1.887-1.965-.012-3.553-.037-7.106-.057-10.659l.442-.765 2.986-.139zm5.529 1.977v-.008c-1.926 0-3.854.05-5.778-.02-.934-.035-1.275.183-1.242 1.184.083 2.466.1 4.938.023 7.404-.03.975.332 1.12 1.168 1.1 2.063-.049 4.13.031 6.191-.042 1.058-.037 1.802.333 2.534 1.062 1.62 1.615 3.321 3.15 4.995 4.712.536.5 3.591.88 4.184.523.103-.062.242-.196.236-.289-.125-2.026.582-4.148-.385-6.067-1.478-2.932-3.131-5.777-4.671-8.68-.338-.635-.711-.924-1.475-.899-1.925.063-3.853.02-5.78.02zM21.785 36.228c.137-1.83.135-3.662.001-5.493.05-1.161.675-1.536 1.802-1.485 1.69.078 3.388.087 5.078.025 1.164-.042 1.505.436 1.496 1.54-.015 1.815-.168 3.637.097 5.448-.156.588-.063 1.292-.762 1.63l-5.506.023c-1.205.047-2.266-.094-2.206-1.688zm6.438-2.647c-.002-2.348-.002-2.348-1.914-2.365-2.546-.023-2.546-.023-2.53 2.608.015 2.113.015 2.113 2.057 2.116 2.388.003 2.388.003 2.387-2.359zM111.638 34.027s.191.794-.596.844c-.5.026-1.28.224-1.337-.476-.081-.687-.438-.659-.9-.647l-2.19-.002s-1.636.171-1.727-.755c-.047-1.227 1.033-1.119 1.744-1.15l2.619-.03c1.816.005 2.226.382 2.387 2.216zM45.78 49.268c-.021 2.024-1.68 3.648-3.694 3.613-2.062-.035-3.63-1.669-3.593-3.742.037-2.075 1.631-3.62 3.694-3.577 2.048.043 3.613 1.657 3.592 3.706zm-1.94-.05a1.732 1.732 0 00-1.75-1.727c-.93.017-1.797.883-1.704 1.787.103.99.71 1.587 1.702 1.667.943.078 1.755-.772 1.752-1.728z" fill="#2B4D73"/><path d="M60.545 45.56c1.967.02 3.68 1.762 3.65 3.712-.029 1.948-1.84 3.697-3.763 3.637-1.987-.062-3.676-1.8-3.64-3.75.038-1.997 1.73-3.621 3.753-3.6zm-1.817 3.668c.005.91.86 1.758 1.768 1.754.889-.004 1.809-.888 1.744-1.78-.077-1.048-.677-1.674-1.765-1.707-.955-.03-1.753.79-1.747 1.733zM109.281 45.57c2.012.026 3.642 1.687 3.638 3.702-.005 1.973-1.768 3.675-3.733 3.604-2.051-.073-3.669-1.725-3.636-3.711.034-2.007 1.71-3.623 3.731-3.596zm.125 1.926c-1.058-.042-1.947.748-1.913 1.662.039 1.053.656 1.738 1.69 1.773 1.043.037 1.739-.631 1.776-1.668.037-1.052-.649-1.624-1.553-1.767zM117.854 20.034c-.322.37-.459.55-.617.709-1.163 1.162-2.37 2.283-3.479 3.494-.595.65-.869.245-1.283-.142-.45-.423-.686-.74-.095-1.284 1.209-1.112 2.345-2.302 3.527-3.444.194-.188.353-.614.764-.28.386.311.775.62 1.183.947zM114.316 19.102c-.341.423-.49.645-.676.83-.61.615-1.246 1.204-1.849 1.826-.489.507-.807.973-1.59.181-.824-.834-.159-1.12.278-1.568a63.889 63.889 0 011.843-1.83c.206-.195.378-.61.772-.359.418.27.798.598 1.222.92zM26.028 32.205c.722.117 1.262.465 1.28 1.297.018.82-.45 1.31-1.24 1.33-.784.019-1.297-.432-1.32-1.254-.022-.822.48-1.226 1.28-1.373zm.597 1.316c-.099-.342-.252-.608-.645-.554-.364.05-.57.303-.521.646a.54.54 0 00.57.468c.352-.015.564-.212.596-.56zM49.967 46.939c.206 1.526.387 3.036-.1 4.563-.913 2.872-2.955 4.565-5.678 5.59-2.27.287-4.464.196-6.459-1.136-2.919-1.95-4.285-5.357-3.444-8.694.819-3.247 3.649-5.693 7.009-6.057 3.372-.366 6.65 1.502 8.144 4.64.174.367.352.73.528 1.094zm-7.784-3.837a6.15 6.15 0 00-6.22 6.15c-.006 3.278 2.844 6.095 6.16 6.09 3.347-.003 6.13-2.761 6.153-6.097.024-3.328-2.746-6.12-6.093-6.143z" fill="#2B4D73"/><path d="M30.361 58.18c.185-.222.126-.504.176-.756.28-1.407.93-2.642 1.72-3.899.092.198 0 .29-.045.387-.294.638-.53 1.293-.6 1.996-.158 1.624.599 2.776 1.921 3.617 1.424.905 3.025 1.318 4.66 1.612 3.996.717 8.03.658 12.064.52 2.868-.098 5.729-.327 8.583-.628 2.582-.272 5.158-.599 7.738-.895.505-.058 1.005-.176 1.566-.137-.13.146-.28.153-.416.19a128.012 128.012 0 01-14.252 2.93 91.871 91.871 0 01-7.558.784c-.143.01-.323-.081-.432.098h-.766c-.047-.112-.147-.104-.241-.104l-3.344.003c-.094 0-.194-.008-.244.1h-.67c-.06-.14-.19-.086-.29-.094-1.206-.099-2.41-.22-3.594-.474-1.438-.309-2.832-.73-4.051-1.593-1.025-.724-1.666-1.685-1.826-2.943-.01-.087.025-.197-.1-.238l.001-.476z" fill="#8E8D8D"/><path d="M173.453 39.187h-9.191l-1.525-5.231h-8.864l-1.526 5.231h-9.191l9.427-27.95h11.443l9.427 27.95zm-12.515-11.35l-2.67-8.888-2.634 8.888h5.304zM198.881 30.95c0 2.462-.829 4.411-2.488 5.847-1.841 1.593-4.553 2.39-8.137 2.39h-12.769v-27.95h12.206c2.99 0 5.273.737 6.847 2.21 1.356 1.266 2.034 2.865 2.034 4.796 0 2.498-1.247 4.327-3.742 5.486 1.901.434 3.379 1.26 4.433 2.48 1.077 1.254 1.616 2.835 1.616 4.741zm-10.153-11.114c0-1.702-1.041-2.553-3.124-2.553h-1.562v5.105h.963c2.482 0 3.723-.85 3.723-2.552zm1.307 10.68c0-1.858-1.137-2.787-3.414-2.787h-2.58v5.34h2.234c1.078 0 1.956-.205 2.634-.616.751-.446 1.126-1.092 1.126-1.937zM220.95 18.351h-5.994v20.835h-8.664V18.351h-6.031v-7.113h20.689v7.113zM252.573 25.212c0 4.164-1.375 7.628-4.124 10.39-2.906 2.934-6.763 4.4-11.57 4.4s-8.67-1.466-11.589-4.4c-2.749-2.762-4.123-6.226-4.123-10.39 0-4.163 1.374-7.627 4.123-10.39 2.919-2.932 6.782-4.399 11.589-4.399s8.664 1.466 11.57 4.399c2.749 2.763 4.124 6.227 4.124 10.39zm-9.009 0c0-2.015-.661-3.686-1.98-5.013-1.271-1.28-2.84-1.919-4.704-1.919-1.865 0-3.439.64-4.723 1.919-1.32 1.327-1.98 2.999-1.98 5.013 0 2.016.66 3.688 1.98 5.015 1.284 1.28 2.857 1.918 4.723 1.918 1.864 0 3.433-.64 4.704-1.918 1.319-1.328 1.98-3 1.98-5.015z" fill="#183D61"/><path d="M282.179 39.187h-8.664v-20.98h-8.718v20.98h-8.665v-27.95h26.047v27.95zM314.51 39.187h-9.19l-1.527-5.231h-8.864l-1.525 5.231h-9.191l9.427-27.95h11.443l9.427 27.95zm-12.514-11.35l-2.67-8.888-2.634 8.888h5.304zM339.358 20.723c0 2.885-.896 5.114-2.688 6.689-1.792 1.575-4.371 2.362-7.738 2.362h-3.687v9.413h-8.664v-27.95h11.643c3.718 0 6.539.894 8.464 2.68 1.78 1.641 2.67 3.91 2.67 6.806zm-8.864-.217c0-2.003-1.217-3.005-3.651-3.005h-1.598v6.01h1.525c2.483 0 3.724-1.002 3.724-3.005zM370 39.187h-10.481l-8.083-12.417v12.417h-8.664v-27.95h8.664V22.95l7.974-11.711h9.917l-9.917 13.486L370 39.187z" fill="#5A8EC6"/><path d="M143.251 46.745h2.917c1.371 0 2.362.204 2.974.612.612.409.919 1.054.919 1.936 0 .61-.171 1.114-.512 1.51-.342.397-.84.654-1.494.77v.07c1.568.268 2.352 1.09 2.352 2.465 0 .92-.312 1.638-.936 2.154-.624.516-1.496.775-2.617.775h-3.602V46.745h-.001zm1.201 4.407h1.977c.848 0 1.458-.133 1.829-.398.372-.265.558-.712.558-1.34 0-.578-.207-.995-.621-1.25-.415-.256-1.074-.384-1.978-.384h-1.766v3.371h.001zm0 1.013v3.851h2.154c.834 0 1.461-.16 1.882-.482.422-.321.632-.825.632-1.51 0-.638-.215-1.107-.646-1.408-.431-.3-1.087-.45-1.967-.45h-2.055zM156.513 52.51h2.113c.984 0 1.713.182 2.186.546.473.363.709.907.709 1.63 0 .774-.251 1.36-.752 1.756-.501.397-1.24.594-2.215.594h-3.214v-7.715h1.173v3.19zm0 1.007v2.541h1.985c1.243 0 1.865-.434 1.865-1.302 0-.432-.144-.747-.431-.944-.287-.197-.777-.295-1.469-.295h-1.95zm7.481 3.52h-1.173V49.32h1.173v7.715zM175.653 51.257c0 .502-.144.883-.434 1.144-.29.26-.696.435-1.218.524v.064c.659.089 1.14.282 1.444.578.303.295.455.703.455 1.225 0 .718-.265 1.271-.794 1.66-.53.39-1.304.585-2.321.585h-3.412V49.32h3.398c1.922 0 2.882.645 2.882 1.936zm-1.144.113c0-.376-.145-.642-.435-.8-.289-.156-.728-.235-1.317-.235h-2.211v2.175h1.985c.725 0 1.237-.089 1.533-.267.297-.179.445-.47.445-.873zm.218 3.344c0-.418-.159-.722-.477-.912-.318-.19-.844-.285-1.578-.285h-2.127v2.542h2.155c1.352-.001 2.027-.449 2.027-1.345zM187.178 53.172c0 1.258-.318 2.24-.953 2.946-.636.706-1.514 1.059-2.635 1.059-.692 0-1.307-.162-1.844-.486a3.215 3.215 0 01-1.243-1.394c-.291-.606-.437-1.314-.437-2.126 0-1.258.315-2.237.946-2.94.631-.7 1.506-1.052 2.627-1.052 1.084 0 1.944.36 2.582 1.077.638.72.957 1.691.957 2.916zm-5.898 0c0 .985.198 1.736.593 2.252.396.516.977.775 1.745.775.767 0 1.35-.257 1.748-.771.398-.514.597-1.266.597-2.256 0-.98-.199-1.726-.597-2.235-.398-.51-.985-.764-1.762-.764-.768 0-1.347.251-1.738.753s-.586 1.251-.586 2.246zM193.603 52.524c1.465 0 2.197-.403 2.197-1.21 0-.761-.593-1.141-1.78-1.141-.362 0-.692.032-.988.098a7.602 7.602 0 00-1.166.394l-.417-.95a6.364 6.364 0 012.621-.535c.89 0 1.591.182 2.105.545.513.364.77.86.77 1.49 0 .863-.483 1.428-1.448 1.696v.056c.593.174 1.026.421 1.299.743.274.321.41.724.41 1.207 0 .714-.288 1.269-.865 1.665-.577.397-1.374.595-2.391.595-1.116 0-1.978-.166-2.585-.5v-1.07c.862.404 1.733.606 2.613.606.678 0 1.19-.116 1.536-.348.347-.233.52-.567.52-1.003 0-.897-.733-1.345-2.197-1.345h-1.074v-.992h.84v-.001zM213.778 55.91l.219-.655.303-.83 2.098-5.09h1.49v7.7h-1.039v-6.37l-.141.408-.409 1.077-1.999 4.886h-.982l-1.999-4.9c-.25-.629-.422-1.12-.516-1.472v6.37h-1.045v-7.699h1.433l2.027 4.893c.204.516.39 1.077.56 1.682zM222.054 49.32h1.257l1.695 4.4c.372 1.005.603 1.73.692 2.176h.057c.061-.24.19-.65.385-1.229.195-.58.835-2.362 1.918-5.346h1.257l-3.328 8.785c-.329.868-.714 1.484-1.155 1.848-.44.363-.981.545-1.62.545-.359 0-.711-.04-1.06-.12v-.936c.259.057.548.085.869.085.805 0 1.38-.45 1.723-1.352l.431-1.098-3.121-7.757zM236.56 57.177c-1.121 0-1.989-.344-2.604-1.031-.614-.688-.921-1.66-.921-2.918 0-1.29.312-2.288.936-2.992.624-.704 1.512-1.055 2.667-1.055.372 0 .744.04 1.115.12.372.08.665.173.876.281l-.36.993a5.5 5.5 0 00-.847-.257 3.802 3.802 0 00-.812-.102c-1.573 0-2.36 1-2.36 2.999 0 .948.192 1.675.576 2.182.383.507.952.76 1.705.76.646 0 1.307-.138 1.985-.415v1.035c-.518.266-1.17.4-1.956.4zM249.928 53.172c0 1.258-.318 2.24-.954 2.946-.636.706-1.514 1.059-2.634 1.059-.693 0-1.307-.162-1.844-.486-.537-.324-.951-.788-1.243-1.394-.292-.606-.438-1.314-.438-2.126 0-1.258.315-2.237.946-2.94.631-.7 1.507-1.052 2.628-1.052 1.083 0 1.943.36 2.581 1.077.639.72.958 1.691.958 2.916zm-5.898 0c0 .985.198 1.736.593 2.252.396.516.977.775 1.745.775.767 0 1.35-.257 1.748-.771.398-.514.597-1.266.597-2.256 0-.98-.199-1.726-.597-2.235-.398-.51-.985-.764-1.762-.764-.767 0-1.347.251-1.737.753-.392.502-.587 1.251-.587 2.246zM258.479 57.177a3.35 3.35 0 01-1.381-.278 2.601 2.601 0 01-1.049-.855h-.085c.057.45.085.877.085 1.281V60.5h-1.172V49.32h.953l.163 1.057h.056c.302-.422.653-.728 1.053-.916.4-.187.859-.281 1.377-.281 1.027 0 1.818.35 2.377 1.049.558.7.837 1.68.837 2.943 0 1.267-.284 2.251-.851 2.953-.568.702-1.355 1.052-2.363 1.052zm-.169-7.004c-.791 0-1.363.218-1.716.654-.354.437-.535 1.131-.544 2.084v.26c0 1.084.181 1.86.544 2.327.362.467.944.7 1.744.7.669 0 1.193-.27 1.572-.809.379-.54.569-1.283.569-2.231 0-.962-.19-1.7-.569-2.214-.379-.514-.913-.771-1.6-.771zM271.396 57.036l-.233-1.098h-.057c-.386.483-.771.81-1.155.982-.384.171-.863.257-1.437.257-.768 0-1.37-.197-1.805-.591-.436-.395-.654-.955-.654-1.682 0-1.558 1.25-2.375 3.751-2.45l1.313-.042v-.479c0-.605-.13-1.052-.392-1.34-.261-.29-.679-.434-1.254-.434-.645 0-1.375.198-2.189.592l-.36-.894a5.508 5.508 0 011.254-.486c.454-.117.91-.176 1.366-.176.924 0 1.608.204 2.052.612.446.409.668 1.063.668 1.965v5.266h-.868v-.002zm-2.649-.823c.73 0 1.303-.199 1.72-.598.416-.4.625-.958.625-1.676v-.697l-1.172.05c-.933.032-1.606.177-2.017.432-.412.256-.618.654-.618 1.193 0 .423.128.744.385.965.256.22.616.331 1.077.331zM291.606 51.257c0 .502-.144.883-.434 1.144-.29.26-.696.435-1.218.524v.064c.659.089 1.141.282 1.445.578.303.295.455.703.455 1.225 0 .718-.265 1.271-.795 1.66-.53.39-1.303.585-2.321.585h-3.412V49.32h3.398c1.922 0 2.882.645 2.882 1.936zm-1.144.113c0-.376-.146-.642-.435-.8-.289-.156-.728-.235-1.317-.235h-2.211v2.175h1.985c.725 0 1.236-.089 1.533-.267.296-.179.445-.47.445-.873zm.219 3.344c0-.418-.159-.722-.477-.912-.318-.19-.844-.285-1.579-.285h-2.126v2.542h2.154c1.352-.001 2.028-.449 2.028-1.345zM308.949 57.036l-3.504-9.123h-.056c.065.723.098 1.581.098 2.577v6.546h-1.109V46.745h1.808l3.271 8.49h.056l3.299-8.49h1.795v10.292h-1.201v-6.632c0-.76.033-1.586.099-2.478h-.057l-3.531 9.11h-.968zM326.838 53.172c0 1.258-.318 2.24-.954 2.946-.636.706-1.515 1.059-2.635 1.059-.692 0-1.307-.162-1.843-.486a3.202 3.202 0 01-1.243-1.394c-.292-.606-.439-1.314-.439-2.126 0-1.258.316-2.237.947-2.94.631-.7 1.507-1.052 2.628-1.052 1.082 0 1.943.36 2.581 1.077.639.72.958 1.691.958 2.916zm-5.898 0c0 .985.198 1.736.593 2.252.396.516.977.775 1.745.775.767 0 1.35-.257 1.748-.771.398-.514.597-1.266.597-2.256 0-.98-.199-1.726-.597-2.235-.398-.51-.986-.764-1.762-.764-.768 0-1.347.251-1.737.753-.392.502-.587 1.251-.587 2.246zM334.881 57.177c-1.121 0-1.989-.344-2.603-1.031-.615-.688-.922-1.66-.922-2.918 0-1.29.312-2.288.936-2.992.624-.704 1.512-1.055 2.667-1.055.372 0 .744.04 1.115.12.372.08.665.173.876.281l-.36.993a5.5 5.5 0 00-.847-.257 3.802 3.802 0 00-.812-.102c-1.573 0-2.36 1-2.36 2.999 0 .948.192 1.675.576 2.182.383.507.952.76 1.705.76.646 0 1.307-.138 1.985-.415v1.035c-.518.266-1.17.4-1.956.4zM346.08 49.32h1.286l-3.341 3.725 3.617 3.991h-1.371l-3.531-3.907v3.907h-1.172v-7.715h1.172v3.752l3.34-3.752zM358.248 51.257c0 .502-.144.883-.434 1.144-.29.26-.696.435-1.218.524v.064c.66.089 1.141.282 1.445.578.303.295.455.703.455 1.225 0 .718-.265 1.271-.795 1.66-.529.39-1.303.585-2.32.585h-3.412V49.32h3.397c1.921 0 2.882.645 2.882 1.936zm-1.144.113c0-.376-.145-.642-.434-.8-.29-.156-.729-.235-1.318-.235h-2.211v2.175h1.985c.726 0 1.237-.089 1.533-.267.296-.179.445-.47.445-.873zm.219 3.344c0-.418-.159-.722-.477-.912-.318-.19-.844-.285-1.579-.285h-2.126v2.542h2.154c1.352-.001 2.028-.449 2.028-1.345zM366.361 57.177c-1.143 0-2.047-.347-2.709-1.042-.661-.694-.992-1.66-.992-2.893 0-1.244.307-2.232.921-2.964.615-.732 1.44-1.098 2.476-1.098.971 0 1.738.318 2.303.954.565.636.848 1.475.848 2.516v.74h-5.333c.023.905.253 1.593.688 2.062.436.47 1.049.704 1.84.704a6.25 6.25 0 002.473-.521v1.042a6.176 6.176 0 01-1.176.383c-.37.078-.816.117-1.339.117zm-.318-7.018c-.621 0-1.117.202-1.486.605-.37.405-.588.962-.654 1.676h4.047c0-.736-.165-1.3-.495-1.693-.328-.392-.799-.588-1.412-.588z" fill="#8E8D8D"/></g><defs><linearGradient id="fpaint0_linear_1_1087" x1="20.197" y1="22.764" x2="69.447" y2="22.764" gradientUnits="userSpaceOnUse"><stop stop-color="#274668"/><stop offset="1" stop-color="#3B608D"/></linearGradient><clipPath id="fclip0_1_1087"><path fill="#fff" d="M0 0h370v64H0z"/></clipPath></defs></svg><svg viewBox="0 0 18 18" id="icon-price" xmlns="http://www.w3.org/2000/svg"><path d="M7.6 0H.667C.3 0 0 .3 0 .667V7.6c0 .367.3.667.667.667H7.6c.367 0 .667-.3.667-.667V.667C8.267.3 7.967 0 7.6 0zm-.667 6.933h-5.6v-5.6h5.6v5.6zM17.333 0H10.4c-.367 0-.667.3-.667.667V7.6c0 .367.3.667.667.667h6.933c.367 0 .667-.3.667-.667V.667C18 .3 17.7 0 17.333 0zm-.666 6.933h-5.6v-5.6h5.6v5.6zM7.6 9.733H.667c-.367 0-.667.3-.667.667v6.933C0 17.7.3 18 .667 18H7.6c.367 0 .667-.3.667-.667V10.4c0-.367-.3-.667-.667-.667zm-.667 6.934h-5.6v-5.6h5.6v5.6zM17.333 9.733H10.4c-.367 0-.667.3-.667.667v6.933c0 .367.3.667.667.667h6.933c.367 0 .667-.3.667-.667V10.4c0-.367-.3-.667-.667-.667zm-.666 6.934h-5.6v-5.6h5.6v5.6z"/></svg><svg fill="none" viewBox="0 0 115 12" id="icon-row-container" xmlns="http://www.w3.org/2000/svg"><path stroke="#7FAF42" stroke-width="12" stroke-linejoin="round" stroke-dasharray="1 5" d="M0 6h115"/></svg><svg fill="none" viewBox="0 0 1688 12" id="icon-row-header" xmlns="http://www.w3.org/2000/svg"><path stroke="#5F8AC3" stroke-opacity=".2" stroke-width="12" stroke-linejoin="round" stroke-dasharray="1 5" d="M-112 6h1901"/></svg><svg viewBox="0 0 18 18" id="icon-servess" xmlns="http://www.w3.org/2000/svg"><path d="M2.333 11.333a2.333 2.333 0 100-4.666 2.333 2.333 0 000 4.666zM17.048 8.524H6.286a.476.476 0 100 .952h10.762a.476.476 0 100-.952zM2.333 4.667a2.333 2.333 0 100-4.667 2.333 2.333 0 000 4.667zM6.286 2.81h10.762a.476.476 0 100-.953H6.286a.476.476 0 100 .952zM2.333 18a2.333 2.333 0 100-4.667 2.333 2.333 0 000 4.667zM17.048 15.19H6.286a.476.476 0 100 .953h10.762a.476.476 0 100-.953z"/></svg><svg viewBox="0 0 18 18" id="icon-stocks" xmlns="http://www.w3.org/2000/svg"><path d="M15.364 2.636A8.941 8.941 0 009 0a8.941 8.941 0 00-6.364 2.636A8.941 8.941 0 000 9c0 2.404.936 4.664 2.636 6.364A8.941 8.941 0 009 18a8.986 8.986 0 004.657-1.297.703.703 0 00-.729-1.203A7.58 7.58 0 019 16.594c-4.187 0-7.594-3.407-7.594-7.594S4.813 1.406 9 1.406 16.594 4.813 16.594 9a7.563 7.563 0 01-1.288 4.215.703.703 0 001.17.781A8.965 8.965 0 0018 9a8.941 8.941 0 00-2.636-6.364z"/><path d="M6.83 13.134a.7.7 0 00.954-.284l3.8-7.031a.703.703 0 10-1.237-.669l-3.8 7.031a.703.703 0 00.284.953zM7.84 6.54A1.76 1.76 0 006.082 4.78 1.76 1.76 0 004.324 6.54c0 .97.789 1.758 1.758 1.758A1.76 1.76 0 007.84 6.539zm-1.758.35a.352.352 0 110-.703.352.352 0 010 .704zM11.883 13.219a1.76 1.76 0 001.758-1.758 1.76 1.76 0 00-1.758-1.758 1.76 1.76 0 00-1.758 1.758c0 .97.789 1.758 1.758 1.758zm0-2.11a.352.352 0 110 .704.352.352 0 010-.704z"/></svg><svg fill="none" viewBox="0 0 51 71" id="icon-volum-0-8" xmlns="http://www.w3.org/2000/svg"><path fill-rule="evenodd" clip-rule="evenodd" d="M12.541 59.678c3.188 0 5.797 2.445 5.797 5.434 0 2.988-2.608 5.434-5.797 5.434-3.206 0-5.814-2.446-5.814-5.434 0-2.989 2.608-5.434 5.814-5.434zm27.677 0c3.206 0 5.814 2.445 5.814 5.434 0 2.988-2.608 5.434-5.814 5.434-3.188 0-5.797-2.446-5.797-5.434 0-2.989 2.609-5.434 5.797-5.434z" fill="#333745"/><path d="M43.434 7.144H2.977v.018-.018l2.017 45.454c0 1.862 1.204 3.363 2.698 3.363h37.004c1.495 0 2.7-1.5 2.7-3.363l2.016-45.454h-5.978z" fill="#A5C33B"/><path d="M50.603 3.572H0V8.93h50.603V3.572z" fill="#A5C33B"/><path d="M50.007 4.167H1.191v.596h48.816v-.596z" fill="#7FAF42"/><path d="M3.835 0h42.932c1.462 0 2.645 1.268 2.645 2.858v.714H1.191v-.714C1.19 1.268 2.374 0 3.835 0z" fill="#A5C33B"/><path fill-rule="evenodd" clip-rule="evenodd" d="M37.241.595h8.599V2.92h-8.599V.595zm-10.85.058h8.599v2.324h-8.6V.653zm-10.778 0h8.599v2.324h-8.6V.653zM4.763.595h8.599V2.92h-8.6V.595z" fill="#7FAF42"/></svg><svg fill="none" viewBox="0 0 56 71" id="icon-volum-1-1" xmlns="http://www.w3.org/2000/svg"><g clip-path="url(#mclip0_1_100)"><path fill-rule="evenodd" clip-rule="evenodd" d="M17.27 60.465c2.756 0 4.986 2.245 4.986 5.002a4.987 4.987 0 11-9.974 0c0-2.757 2.23-5.002 4.987-5.002zm27.35 0c2.758 0 4.988 2.245 4.988 5.002a4.987 4.987 0 11-9.974 0c0-2.757 2.23-5.002 4.987-5.002z" fill="#333745"/><path d="M46.262 17.036H3.097v.016-.016L5.25 55.973a2.875 2.875 0 002.881 2.88h39.494a2.872 2.872 0 002.865-2.88l2.168-38.937h-6.396z" fill="#A5C33B"/><path d="M54.533 13.645h-51.9v.728h51.9v-.728z" fill="#7FAF42"/><path fill-rule="evenodd" clip-rule="evenodd" d="M10.841 17.238v4.337l6.428-2.788v-1.55h-6.427v.001zm21.59 0v4.337l6.413-2.788v-1.55H32.43v.001zm-7.155 0v4.337l6.413-2.788v-1.55h-6.413v.001zm-7.248 0v4.337l6.427-2.788v-1.55h-6.427v.001zm28.792-.015v4.32l6.241-2.71.093-1.61H46.82zm-36.861.015H4.01l.232 4.104L9.96 18.85v-1.61z" fill="#7FAF42"/><path d="M14.822 19.003h.712v37.853h-.712V19.003z" fill="#7FAF42"/><path d="M6.334 56.779a2.826 2.826 0 002.664 1.874h39.17c1.223 0 2.26-.79 2.663-1.874H6.334z" fill="#7FAF42"/><path d="M41.399 56.779h.712V20.49l-.712.31" fill="#B2D143"/><path d="M39.634 17.238v4.337l6.427-2.788v-1.549" fill="#7FAF42"/><path fill-rule="evenodd" clip-rule="evenodd" d="M46.464 58.854v6.226c0 1.053-.697 1.58-1.456 1.518-.774-.078-1.347-.728-2.4-2.044-1.038-1.317-3.422-4.29-3.422-4.29v-1.41h7.278zm-28.327 0v6.226c0 1.053-.713 1.58-1.472 1.518-.775-.078-1.332-.728-2.385-2.044-1.038-1.317-3.438-4.29-3.438-4.29v-1.41h7.295z" fill="#B2D143"/><path fill-rule="evenodd" clip-rule="evenodd" d="M52.674 30.976l.45-7.744h1.083v7.744h-1.533zm-49.406 0l-.45-7.744H1.55v7.744h1.719z" fill="#7FAF42"/><path fill-rule="evenodd" clip-rule="evenodd" d="M53.635 14.357H2.122v-.681h51.513v.681zM0 3.098v27.879h2.122V17.114h51.513v13.861h2.121v-17.3l-.077-9.974C48.074 6.365 38.751 7.93 28.668 7.93 17.842 7.93 7.898 6.118 0 3.097z" fill="#A5C33B"/><path d="M54.3 0H1.457C.65 0 0 .713 0 1.595v.574c7.899 3.485 17.873 5.576 28.714 5.576 10.098 0 19.422-1.813 27.042-4.88l-.015-1.27C55.74.713 55.106 0 54.3 0z" fill="#B2D143"/></g><defs><clipPath id="mclip0_1_100"><path fill="#fff" d="M0 0h55.756v70.546H0z"/></clipPath></defs></svg><svg fill="none" viewBox="0 0 120 71" id="icon-volum-20" xmlns="http://www.w3.org/2000/svg"><g clip-path="url(#nclip0_1_658)"><path d="M0 5.039h3.203v65.507H0V5.039z" fill="#A5C33B"/><path d="M3.892 63.366h-.769V4.258h.769v59.108z" fill="#7FAF42"/><path d="M14.415 62.988H3.203v2.52h11.212v-2.52z" fill="#B2D143"/><path d="M14.415 68.027H3.203v2.519h11.212v-2.52z" fill="#7FAF42"/><path d="M3.203 12.874v50.114h11.211V7.558" fill="#A5C33B"/><path d="M14.414 5.039H3.203v7.559l11.211-5.04" fill="#7FAF42"/><path d="M15.311 70.32h-.769V4.257h.77v66.061z" fill="#B2D143"/><path d="M89.688 0v5.039H0V0h89.688zM17.617 5.039h-3.203v65.507h3.203V5.039z" fill="#A5C33B"/><path d="M18.354 63.366h-.769V4.258h.769v59.108z" fill="#7FAF42"/><path d="M28.829 62.988H17.617v2.52H28.83v-2.52z" fill="#B2D143"/><path d="M28.829 68.027H17.617v2.519H28.83v-2.52z" fill="#7FAF42"/><path d="M17.617 12.874v50.114h11.211V7.558" fill="#A5C33B"/><path d="M28.828 5.039h-11.21v7.559l11.21-5.04" fill="#7FAF42"/><path d="M29.773 4.258h-.769v66.061h.769V4.258z" fill="#B2D143"/><path d="M32.03 5.039h-3.202v65.507h3.203V5.039z" fill="#A5C33B"/><path d="M32.816 63.366h-.769V4.258h.77v59.108z" fill="#7FAF42"/><path d="M43.243 62.988H32.03v2.52h11.212v-2.52z" fill="#B2D143"/><path d="M43.243 68.027H32.03v2.519h11.212v-2.52z" fill="#7FAF42"/><path d="M32.032 12.874v50.114h11.21V7.558" fill="#A5C33B"/><path d="M43.242 5.039h-11.21v7.559l11.21-5.04" fill="#7FAF42"/><path d="M44.235 4.258h-.768v66.061h.768V4.258z" fill="#B2D143"/><path d="M43.242 5.039h3.204v65.507h-3.204V5.039z" fill="#A5C33B"/><path d="M47.278 63.366h-.768V4.258h.768v59.108z" fill="#7FAF42"/><path d="M57.657 62.988H46.446v2.52h11.21v-2.52z" fill="#B2D143"/><path d="M57.657 68.027H46.446v2.519h11.21v-2.52z" fill="#7FAF42"/><path d="M46.446 12.874v50.114h11.21V7.558" fill="#A5C33B"/><path d="M57.657 5.039H46.446v7.559l11.21-5.04" fill="#7FAF42"/><path d="M58.697 4.258h-.768v66.061h.768V4.258z" fill="#B2D143"/><path d="M60.86 5.039h-3.203v65.507h3.203V5.039z" fill="#A5C33B"/><path d="M61.74 63.366h-.769V4.258h.77v59.108z" fill="#7FAF42"/><path d="M60.86 62.988h11.21v2.52H60.86v-2.52z" fill="#B2D143"/><path d="M60.86 68.027h11.21v2.519H60.86v-2.52z" fill="#7FAF42"/><path d="M60.86 12.874v50.114h11.21V7.558" fill="#A5C33B"/><path d="M72.07 5.039H60.86v7.559l11.21-5.04" fill="#7FAF42"/><path d="M73.16 70.32h-.77V4.257h.77v66.061z" fill="#B2D143"/><path d="M75.273 5.039h-3.202v65.507h3.203V5.039z" fill="#A5C33B"/><path d="M76.203 63.366h-.77V4.258h.77v59.108z" fill="#7FAF42"/><path d="M86.485 62.988H75.273v2.52h11.212v-2.52z" fill="#B2D143"/><path d="M86.485 68.027H75.273v2.519h11.212v-2.52z" fill="#7FAF42"/><path d="M14.415 65.507H3.203v2.52h11.212v-2.52zM28.829 65.507H17.617v2.52H28.83v-2.52zM43.243 65.507H32.03v2.52h11.212v-2.52zM57.657 65.507H46.446v2.52h11.21v-2.52zM60.86 65.507h11.21v2.52H60.86v-2.52zM86.485 65.507H75.273v2.52h11.212v-2.52zM75.273 12.874v50.114h11.212V7.558" fill="#A5C33B"/><path d="M86.485 5.039H75.273v7.559l11.212-5.04" fill="#7FAF42"/><path d="M87.622 70.32h-.769V4.257h.769v66.061z" fill="#B2D143"/><path d="M86.485 5.039h3.203v65.507h-3.203V5.039z" fill="#A5C33B"/><path d="M4.804 10.078H3.203v55.43h1.601v-55.43z" fill="#7FAF42"/><path d="M14.414 5.039h-1.601v60.468h1.601V5.039z" fill="#B2D143"/><path d="M19.219 10.078h-1.602v55.43h1.602v-55.43z" fill="#7FAF42"/><path d="M28.828 5.039h-1.601v60.468h1.601V5.039z" fill="#B2D143"/><path d="M33.633 10.078H32.03v55.43h1.602v-55.43z" fill="#7FAF42"/><path d="M43.242 5.039h-1.601v60.468h1.601V5.039z" fill="#B2D143"/><path d="M48.047 10.078h-1.601v55.43h1.6v-55.43z" fill="#7FAF42"/><path d="M57.656 5.039h-1.601v60.468h1.601V5.039z" fill="#B2D143"/><path d="M62.46 10.078h-1.6v55.43h1.6v-55.43z" fill="#7FAF42"/><path d="M72.07 5.039h-1.601v60.468h1.601V5.039z" fill="#B2D143"/><path d="M76.875 10.078h-1.602v55.43h1.602v-55.43z" fill="#7FAF42"/><path d="M86.485 5.039h-1.602v60.468h1.602V5.039z" fill="#B2D143"/><path d="M30.274 5.039h3.203v65.507h-3.203V5.039z" fill="#A5C33B"/><path d="M34.166 63.366h-.769V4.258h.77v59.108z" fill="#7FAF42"/><path d="M44.689 62.988H33.477v2.52H44.69v-2.52z" fill="#B2D143"/><path d="M44.689 68.027H33.477v2.519H44.69v-2.52z" fill="#7FAF42"/><path d="M33.477 12.874v50.114H44.69V7.558" fill="#A5C33B"/><path d="M44.689 5.039H33.477v7.559l11.212-5.04" fill="#7FAF42"/><path d="M45.585 70.32h-.768V4.257h.768v66.061z" fill="#B2D143"/><path d="M119.962 0v5.039H30.274V0h89.688zM47.892 5.039h-3.203v65.507h3.203V5.039z" fill="#A5C33B"/><path d="M48.629 63.366h-.77V4.258h.77v59.108z" fill="#7FAF42"/><path d="M59.103 62.988H47.89v2.52h11.212v-2.52z" fill="#B2D143"/><path d="M59.103 68.027H47.89v2.519h11.212v-2.52z" fill="#7FAF42"/><path d="M47.892 12.874v50.114h11.21V7.558" fill="#A5C33B"/><path d="M59.103 5.039H47.89v7.559l11.212-5.04" fill="#7FAF42"/><path d="M60.047 4.258h-.768v66.061h.768V4.258z" fill="#B2D143"/><path d="M62.306 5.039h-3.203v65.507h3.203V5.039z" fill="#A5C33B"/><path d="M63.09 63.366h-.768V4.258h.768v59.108z" fill="#7FAF42"/><path d="M73.517 62.988H62.306v2.52h11.21v-2.52z" fill="#B2D143"/><path d="M73.517 68.027H62.306v2.519h11.21v-2.52z" fill="#7FAF42"/><path d="M62.306 12.874v50.114h11.21V7.558" fill="#A5C33B"/><path d="M73.517 5.039H62.306v7.559l11.21-5.04" fill="#7FAF42"/><path d="M74.51 4.258h-.769v66.061h.769V4.258z" fill="#B2D143"/><path d="M73.517 5.039h3.203v65.507h-3.203V5.039z" fill="#A5C33B"/><path d="M77.552 63.366h-.768V4.258h.768v59.108z" fill="#7FAF42"/><path d="M87.93 62.988H76.72v2.52h11.21v-2.52z" fill="#B2D143"/><path d="M87.93 68.027H76.72v2.519h11.21v-2.52z" fill="#7FAF42"/><path d="M76.72 12.874v50.114h11.21V7.558" fill="#A5C33B"/><path d="M87.93 5.039H76.72v7.559l11.21-5.04" fill="#7FAF42"/><path d="M88.972 4.258h-.769v66.061h.769V4.258z" fill="#B2D143"/><path d="M91.134 5.039H87.93v65.507h3.203V5.039z" fill="#A5C33B"/><path d="M92.015 63.366h-.769V4.258h.769v59.108z" fill="#7FAF42"/><path d="M91.134 62.988h11.211v2.52h-11.21v-2.52z" fill="#B2D143"/><path d="M91.134 68.027h11.211v2.519h-11.21v-2.52z" fill="#7FAF42"/><path d="M91.134 12.874v50.114h11.211V7.558" fill="#A5C33B"/><path d="M102.345 5.039h-11.21v7.559l11.21-5.04" fill="#7FAF42"/><path d="M103.434 70.32h-.769V4.257h.769v66.061z" fill="#B2D143"/><path d="M105.548 5.039h-3.203v65.507h3.203V5.039z" fill="#A5C33B"/><path d="M106.477 63.366h-.769V4.258h.769v59.108z" fill="#7FAF42"/><path d="M116.759 62.988h-11.211v2.52h11.211v-2.52z" fill="#B2D143"/><path d="M116.759 68.027h-11.211v2.519h11.211v-2.52z" fill="#7FAF42"/><path d="M44.689 65.507H33.477v2.52H44.69v-2.52zM59.103 65.507H47.89v2.52h11.212v-2.52zM73.517 65.507H62.306v2.52h11.21v-2.52zM87.93 65.507H76.72v2.52h11.21v-2.52zM91.134 65.507h11.211v2.52h-11.21v-2.52zM116.759 65.507h-11.211v2.52h11.211v-2.52zM105.548 12.874v50.114h11.211V7.558" fill="#A5C33B"/><path d="M116.759 5.039h-11.211v7.559l11.211-5.04" fill="#7FAF42"/><path d="M117.896 70.32h-.769V4.257h.769v66.061z" fill="#B2D143"/><path d="M116.759 5.039h3.203v65.507h-3.203V5.039z" fill="#A5C33B"/><path d="M35.079 10.078h-1.602v55.43h1.602v-55.43z" fill="#7FAF42"/><path d="M44.688 5.039h-1.601v60.468h1.601V5.039z" fill="#B2D143"/><path d="M49.493 10.078h-1.602v55.43h1.602v-55.43z" fill="#7FAF42"/><path d="M59.102 5.039h-1.601v60.468h1.601V5.039z" fill="#B2D143"/><path d="M63.907 10.078h-1.601v55.43h1.601v-55.43z" fill="#7FAF42"/><path d="M73.517 5.039h-1.602v60.468h1.602V5.039z" fill="#B2D143"/><path d="M78.321 10.078h-1.602v55.43h1.602v-55.43z" fill="#7FAF42"/><path d="M87.93 5.039h-1.6v60.468h1.6V5.039z" fill="#B2D143"/><path d="M92.736 10.078h-1.602v55.43h1.602v-55.43z" fill="#7FAF42"/><path d="M102.345 5.039h-1.602v60.468h1.602V5.039z" fill="#B2D143"/><path d="M107.15 10.078h-1.602v55.43h1.602v-55.43z" fill="#7FAF42"/><path d="M116.759 5.039h-1.602v60.468h1.602V5.039z" fill="#B2D143"/></g><defs><clipPath id="nclip0_1_658"><path fill="#fff" d="M0 0h119.962v70.546H0z"/></clipPath></defs></svg><svg fill="none" viewBox="0 0 120 71" id="icon-volum-27" xmlns="http://www.w3.org/2000/svg"><g clip-path="url(#oclip0_1_658)"><path d="M0 5.039h3.203v65.507H0V5.039z" fill="#A5C33B"/><path d="M3.892 63.366h-.769V4.258h.769v59.108z" fill="#7FAF42"/><path d="M14.415 62.988H3.203v2.52h11.212v-2.52z" fill="#B2D143"/><path d="M14.415 68.027H3.203v2.519h11.212v-2.52z" fill="#7FAF42"/><path d="M3.203 12.874v50.114h11.211V7.558" fill="#A5C33B"/><path d="M14.414 5.039H3.203v7.559l11.211-5.04" fill="#7FAF42"/><path d="M15.311 70.32h-.769V4.257h.77v66.061z" fill="#B2D143"/><path d="M89.688 0v5.039H0V0h89.688zM17.617 5.039h-3.203v65.507h3.203V5.039z" fill="#A5C33B"/><path d="M18.354 63.366h-.769V4.258h.769v59.108z" fill="#7FAF42"/><path d="M28.829 62.988H17.617v2.52H28.83v-2.52z" fill="#B2D143"/><path d="M28.829 68.027H17.617v2.519H28.83v-2.52z" fill="#7FAF42"/><path d="M17.617 12.874v50.114h11.211V7.558" fill="#A5C33B"/><path d="M28.828 5.039h-11.21v7.559l11.21-5.04" fill="#7FAF42"/><path d="M29.773 4.258h-.769v66.061h.769V4.258z" fill="#B2D143"/><path d="M32.03 5.039h-3.202v65.507h3.203V5.039z" fill="#A5C33B"/><path d="M32.816 63.366h-.769V4.258h.77v59.108z" fill="#7FAF42"/><path d="M43.243 62.988H32.03v2.52h11.212v-2.52z" fill="#B2D143"/><path d="M43.243 68.027H32.03v2.519h11.212v-2.52z" fill="#7FAF42"/><path d="M32.032 12.874v50.114h11.21V7.558" fill="#A5C33B"/><path d="M43.242 5.039h-11.21v7.559l11.21-5.04" fill="#7FAF42"/><path d="M44.235 4.258h-.768v66.061h.768V4.258z" fill="#B2D143"/><path d="M43.242 5.039h3.204v65.507h-3.204V5.039z" fill="#A5C33B"/><path d="M47.278 63.366h-.768V4.258h.768v59.108z" fill="#7FAF42"/><path d="M57.657 62.988H46.446v2.52h11.21v-2.52z" fill="#B2D143"/><path d="M57.657 68.027H46.446v2.519h11.21v-2.52z" fill="#7FAF42"/><path d="M46.446 12.874v50.114h11.21V7.558" fill="#A5C33B"/><path d="M57.657 5.039H46.446v7.559l11.21-5.04" fill="#7FAF42"/><path d="M58.697 4.258h-.768v66.061h.768V4.258z" fill="#B2D143"/><path d="M60.86 5.039h-3.203v65.507h3.203V5.039z" fill="#A5C33B"/><path d="M61.74 63.366h-.769V4.258h.77v59.108z" fill="#7FAF42"/><path d="M60.86 62.988h11.21v2.52H60.86v-2.52z" fill="#B2D143"/><path d="M60.86 68.027h11.21v2.519H60.86v-2.52z" fill="#7FAF42"/><path d="M60.86 12.874v50.114h11.21V7.558" fill="#A5C33B"/><path d="M72.07 5.039H60.86v7.559l11.21-5.04" fill="#7FAF42"/><path d="M73.16 70.32h-.77V4.257h.77v66.061z" fill="#B2D143"/><path d="M75.273 5.039h-3.202v65.507h3.203V5.039z" fill="#A5C33B"/><path d="M76.203 63.366h-.77V4.258h.77v59.108z" fill="#7FAF42"/><path d="M86.485 62.988H75.273v2.52h11.212v-2.52z" fill="#B2D143"/><path d="M86.485 68.027H75.273v2.519h11.212v-2.52z" fill="#7FAF42"/><path d="M14.415 65.507H3.203v2.52h11.212v-2.52zM28.829 65.507H17.617v2.52H28.83v-2.52zM43.243 65.507H32.03v2.52h11.212v-2.52zM57.657 65.507H46.446v2.52h11.21v-2.52zM60.86 65.507h11.21v2.52H60.86v-2.52zM86.485 65.507H75.273v2.52h11.212v-2.52zM75.273 12.874v50.114h11.212V7.558" fill="#A5C33B"/><path d="M86.485 5.039H75.273v7.559l11.212-5.04" fill="#7FAF42"/><path d="M87.622 70.32h-.769V4.257h.769v66.061z" fill="#B2D143"/><path d="M86.485 5.039h3.203v65.507h-3.203V5.039z" fill="#A5C33B"/><path d="M4.804 10.078H3.203v55.43h1.601v-55.43z" fill="#7FAF42"/><path d="M14.414 5.039h-1.601v60.468h1.601V5.039z" fill="#B2D143"/><path d="M19.219 10.078h-1.602v55.43h1.602v-55.43z" fill="#7FAF42"/><path d="M28.828 5.039h-1.601v60.468h1.601V5.039z" fill="#B2D143"/><path d="M33.633 10.078H32.03v55.43h1.602v-55.43z" fill="#7FAF42"/><path d="M43.242 5.039h-1.601v60.468h1.601V5.039z" fill="#B2D143"/><path d="M48.047 10.078h-1.601v55.43h1.6v-55.43z" fill="#7FAF42"/><path d="M57.656 5.039h-1.601v60.468h1.601V5.039z" fill="#B2D143"/><path d="M62.46 10.078h-1.6v55.43h1.6v-55.43z" fill="#7FAF42"/><path d="M72.07 5.039h-1.601v60.468h1.601V5.039z" fill="#B2D143"/><path d="M76.875 10.078h-1.602v55.43h1.602v-55.43z" fill="#7FAF42"/><path d="M86.485 5.039h-1.602v60.468h1.602V5.039z" fill="#B2D143"/><path d="M30.274 5.039h3.203v65.507h-3.203V5.039z" fill="#A5C33B"/><path d="M34.166 63.366h-.769V4.258h.77v59.108z" fill="#7FAF42"/><path d="M44.689 62.988H33.477v2.52H44.69v-2.52z" fill="#B2D143"/><path d="M44.689 68.027H33.477v2.519H44.69v-2.52z" fill="#7FAF42"/><path d="M33.477 12.874v50.114H44.69V7.558" fill="#A5C33B"/><path d="M44.689 5.039H33.477v7.559l11.212-5.04" fill="#7FAF42"/><path d="M45.585 70.32h-.768V4.257h.768v66.061z" fill="#B2D143"/><path d="M119.962 0v5.039H30.274V0h89.688zM47.892 5.039h-3.203v65.507h3.203V5.039z" fill="#A5C33B"/><path d="M48.629 63.366h-.77V4.258h.77v59.108z" fill="#7FAF42"/><path d="M59.103 62.988H47.89v2.52h11.212v-2.52z" fill="#B2D143"/><path d="M59.103 68.027H47.89v2.519h11.212v-2.52z" fill="#7FAF42"/><path d="M47.892 12.874v50.114h11.21V7.558" fill="#A5C33B"/><path d="M59.103 5.039H47.89v7.559l11.212-5.04" fill="#7FAF42"/><path d="M60.047 4.258h-.768v66.061h.768V4.258z" fill="#B2D143"/><path d="M62.306 5.039h-3.203v65.507h3.203V5.039z" fill="#A5C33B"/><path d="M63.09 63.366h-.768V4.258h.768v59.108z" fill="#7FAF42"/><path d="M73.517 62.988H62.306v2.52h11.21v-2.52z" fill="#B2D143"/><path d="M73.517 68.027H62.306v2.519h11.21v-2.52z" fill="#7FAF42"/><path d="M62.306 12.874v50.114h11.21V7.558" fill="#A5C33B"/><path d="M73.517 5.039H62.306v7.559l11.21-5.04" fill="#7FAF42"/><path d="M74.51 4.258h-.769v66.061h.769V4.258z" fill="#B2D143"/><path d="M73.517 5.039h3.203v65.507h-3.203V5.039z" fill="#A5C33B"/><path d="M77.552 63.366h-.768V4.258h.768v59.108z" fill="#7FAF42"/><path d="M87.93 62.988H76.72v2.52h11.21v-2.52z" fill="#B2D143"/><path d="M87.93 68.027H76.72v2.519h11.21v-2.52z" fill="#7FAF42"/><path d="M76.72 12.874v50.114h11.21V7.558" fill="#A5C33B"/><path d="M87.93 5.039H76.72v7.559l11.21-5.04" fill="#7FAF42"/><path d="M88.972 4.258h-.769v66.061h.769V4.258z" fill="#B2D143"/><path d="M91.134 5.039H87.93v65.507h3.203V5.039z" fill="#A5C33B"/><path d="M92.015 63.366h-.769V4.258h.769v59.108z" fill="#7FAF42"/><path d="M91.134 62.988h11.211v2.52h-11.21v-2.52z" fill="#B2D143"/><path d="M91.134 68.027h11.211v2.519h-11.21v-2.52z" fill="#7FAF42"/><path d="M91.134 12.874v50.114h11.211V7.558" fill="#A5C33B"/><path d="M102.345 5.039h-11.21v7.559l11.21-5.04" fill="#7FAF42"/><path d="M103.434 70.32h-.769V4.257h.769v66.061z" fill="#B2D143"/><path d="M105.548 5.039h-3.203v65.507h3.203V5.039z" fill="#A5C33B"/><path d="M106.477 63.366h-.769V4.258h.769v59.108z" fill="#7FAF42"/><path d="M116.759 62.988h-11.211v2.52h11.211v-2.52z" fill="#B2D143"/><path d="M116.759 68.027h-11.211v2.519h11.211v-2.52z" fill="#7FAF42"/><path d="M44.689 65.507H33.477v2.52H44.69v-2.52zM59.103 65.507H47.89v2.52h11.212v-2.52zM73.517 65.507H62.306v2.52h11.21v-2.52zM87.93 65.507H76.72v2.52h11.21v-2.52zM91.134 65.507h11.211v2.52h-11.21v-2.52zM116.759 65.507h-11.211v2.52h11.211v-2.52zM105.548 12.874v50.114h11.211V7.558" fill="#A5C33B"/><path d="M116.759 5.039h-11.211v7.559l11.211-5.04" fill="#7FAF42"/><path d="M117.896 70.32h-.769V4.257h.769v66.061z" fill="#B2D143"/><path d="M116.759 5.039h3.203v65.507h-3.203V5.039z" fill="#A5C33B"/><path d="M35.079 10.078h-1.602v55.43h1.602v-55.43z" fill="#7FAF42"/><path d="M44.688 5.039h-1.601v60.468h1.601V5.039z" fill="#B2D143"/><path d="M49.493 10.078h-1.602v55.43h1.602v-55.43z" fill="#7FAF42"/><path d="M59.102 5.039h-1.601v60.468h1.601V5.039z" fill="#B2D143"/><path d="M63.907 10.078h-1.601v55.43h1.601v-55.43z" fill="#7FAF42"/><path d="M73.517 5.039h-1.602v60.468h1.602V5.039z" fill="#B2D143"/><path d="M78.321 10.078h-1.602v55.43h1.602v-55.43z" fill="#7FAF42"/><path d="M87.93 5.039h-1.6v60.468h1.6V5.039z" fill="#B2D143"/><path d="M92.736 10.078h-1.602v55.43h1.602v-55.43z" fill="#7FAF42"/><path d="M102.345 5.039h-1.602v60.468h1.602V5.039z" fill="#B2D143"/><path d="M107.15 10.078h-1.602v55.43h1.602v-55.43z" fill="#7FAF42"/><path d="M116.759 5.039h-1.602v60.468h1.602V5.039z" fill="#B2D143"/></g><defs><clipPath id="oclip0_1_658"><path fill="#fff" d="M0 0h119.962v70.546H0z"/></clipPath></defs></svg><svg fill="none" viewBox="0 0 130 71" id="icon-volum-32" xmlns="http://www.w3.org/2000/svg"><g clip-path="url(#pclip0_1_799)"><path d="M.401 5.039h2.583v65.507H.401V5.039z" fill="#A5C33B"/><path d="M3.54 63.365h-.62V4.258h.62v59.107z" fill="#7FAF42"/><path d="M12.025 62.988h-9.04v2.52h9.04v-2.52z" fill="#B2D143"/><path d="M12.025 68.027h-9.04v2.519h9.04v-2.52z" fill="#7FAF42"/><path d="M2.984 12.874v50.114h9.041V7.558" fill="#A5C33B"/><path d="M12.025 5.039h-9.04v7.559l9.04-5.04" fill="#7FAF42"/><path d="M12.748 70.32h-.62V4.257h.62v66.061z" fill="#B2D143"/><path d="M72.728 0v5.039H.403V0h72.325zM14.608 5.039h-2.583v65.507h2.583V5.039z" fill="#A5C33B"/><path d="M15.202 63.365h-.62V4.258h.62v59.107z" fill="#7FAF42"/><path d="M23.649 62.988h-9.04v2.52h9.04v-2.52z" fill="#B2D143"/><path d="M23.649 68.027h-9.04v2.519h9.04v-2.52z" fill="#7FAF42"/><path d="M14.608 12.874v50.114h9.04V7.558" fill="#A5C33B"/><path d="M23.649 5.039h-9.04v7.559l9.04-5.04" fill="#7FAF42"/><path d="M24.41 4.258h-.62v66.061h.62V4.258z" fill="#B2D143"/><path d="M26.232 5.039h-2.583v65.507h2.583V5.039z" fill="#A5C33B"/><path d="M26.865 63.365h-.62V4.258h.62v59.107z" fill="#7FAF42"/><path d="M35.272 62.988h-9.04v2.52h9.04v-2.52z" fill="#B2D143"/><path d="M35.272 68.027h-9.04v2.519h9.04v-2.52z" fill="#7FAF42"/><path d="M26.232 12.874v50.114h9.04V7.558" fill="#A5C33B"/><path d="M35.272 5.039h-9.04v7.559l9.04-5.04" fill="#7FAF42"/><path d="M36.072 4.258h-.62v66.061h.62V4.258z" fill="#B2D143"/><path d="M35.272 5.039h2.584v65.507h-2.584V5.039z" fill="#A5C33B"/><path d="M38.527 63.365h-.62V4.258h.62v59.107z" fill="#7FAF42"/><path d="M46.896 62.988h-9.04v2.52h9.04v-2.52z" fill="#B2D143"/><path d="M46.896 68.027h-9.04v2.519h9.04v-2.52z" fill="#7FAF42"/><path d="M37.855 12.874v50.114h9.041V7.558" fill="#A5C33B"/><path d="M46.896 5.039h-9.04v7.559l9.04-5.04" fill="#7FAF42"/><path d="M47.736 4.258h-.62v66.061h.62V4.258z" fill="#B2D143"/><path d="M49.48 5.039h-2.584v65.507h2.583V5.039z" fill="#A5C33B"/><path d="M50.19 63.365h-.62V4.258h.62v59.107z" fill="#7FAF42"/><path d="M49.48 62.988h9.04v2.52h-9.04v-2.52z" fill="#B2D143"/><path d="M49.48 68.027h9.04v2.519h-9.04v-2.52z" fill="#7FAF42"/><path d="M49.48 12.874v50.114h9.04V7.558" fill="#A5C33B"/><path d="M58.52 5.039h-9.04v7.559l9.04-5.04" fill="#7FAF42"/><path d="M59.398 70.32h-.62V4.257h.62v66.061z" fill="#B2D143"/><path d="M61.103 5.039H58.52v65.507h2.583V5.039z" fill="#A5C33B"/><path d="M61.852 63.365h-.62V4.258h.62v59.107z" fill="#7FAF42"/><path d="M70.144 62.988h-9.041v2.52h9.04v-2.52z" fill="#B2D143"/><path d="M70.144 68.027h-9.041v2.519h9.04v-2.52z" fill="#7FAF42"/><path d="M12.025 65.507h-9.04v2.52h9.04v-2.52zM23.649 65.507h-9.04v2.52h9.04v-2.52zM35.272 65.507h-9.04v2.52h9.04v-2.52zM46.896 65.507h-9.04v2.52h9.04v-2.52zM49.48 65.507h9.04v2.52h-9.04v-2.52zM70.144 65.507h-9.041v2.52h9.04v-2.52zM61.103 12.874v50.114h9.04V7.558" fill="#A5C33B"/><path d="M70.144 5.039h-9.041v7.559l9.04-5.04" fill="#7FAF42"/><path d="M71.06 70.32h-.62V4.257h.62v66.061z" fill="#B2D143"/><path d="M70.144 5.039h2.583v65.507h-2.583V5.039z" fill="#A5C33B"/><path d="M4.275 10.078H2.984v55.43h1.291v-55.43z" fill="#7FAF42"/><path d="M12.024 5.039h-1.29v60.468h1.29V5.039z" fill="#B2D143"/><path d="M15.9 10.078h-1.292v55.43H15.9v-55.43z" fill="#7FAF42"/><path d="M23.648 5.039h-1.291v60.468h1.291V5.039z" fill="#B2D143"/><path d="M27.523 10.078H26.23v55.43h1.291v-55.43z" fill="#7FAF42"/><path d="M35.272 5.039H33.98v60.468h1.29V5.039z" fill="#B2D143"/><path d="M39.147 10.078h-1.291v55.43h1.29v-55.43z" fill="#7FAF42"/><path d="M46.895 5.039h-1.29v60.468h1.29V5.039z" fill="#B2D143"/><path d="M50.77 10.078h-1.29v55.43h1.29v-55.43z" fill="#7FAF42"/><path d="M58.52 5.039h-1.292v60.468h1.291V5.039z" fill="#B2D143"/><path d="M62.394 10.078h-1.291v55.43h1.291v-55.43z" fill="#7FAF42"/><path d="M70.143 5.039h-1.291v60.468h1.291V5.039z" fill="#B2D143"/><path d="M57.47 5.039h2.582v65.507H57.47V5.039z" fill="#A5C33B"/><path d="M60.608 63.365h-.62V4.258h.62v59.107z" fill="#7FAF42"/><path d="M69.093 62.988h-9.04v2.52h9.04v-2.52z" fill="#B2D143"/><path d="M69.093 68.027h-9.04v2.519h9.04v-2.52z" fill="#7FAF42"/><path d="M60.052 12.874v50.114h9.04V7.558" fill="#A5C33B"/><path d="M69.093 5.039h-9.04v7.559l9.04-5.04" fill="#7FAF42"/><path d="M69.816 70.32h-.62V4.257h.62v66.061z" fill="#B2D143"/><path d="M129.795 0v5.039H57.469V0h72.326zM71.676 5.039h-2.583v65.507h2.583V5.039z" fill="#A5C33B"/><path d="M72.27 63.365h-.62V4.258h.62v59.107z" fill="#7FAF42"/><path d="M80.717 62.988h-9.041v2.52h9.04v-2.52z" fill="#B2D143"/><path d="M80.717 68.027h-9.041v2.519h9.04v-2.52z" fill="#7FAF42"/><path d="M71.676 12.874v50.114h9.04V7.558" fill="#A5C33B"/><path d="M80.717 5.039h-9.041v7.559l9.04-5.04" fill="#7FAF42"/><path d="M81.479 4.258h-.62v66.061h.62V4.258z" fill="#B2D143"/><path d="M83.3 5.039h-2.583v65.507H83.3V5.039z" fill="#A5C33B"/><path d="M83.933 63.365h-.62V4.258h.62v59.107z" fill="#7FAF42"/><path d="M92.34 62.988H83.3v2.52h9.04v-2.52z" fill="#B2D143"/><path d="M92.34 68.027H83.3v2.519h9.04v-2.52z" fill="#7FAF42"/><path d="M83.3 12.874v50.114h9.04V7.558" fill="#A5C33B"/><path d="M92.34 5.039H83.3v7.559l9.04-5.04" fill="#7FAF42"/><path d="M93.141 4.258h-.62v66.061h.62V4.258z" fill="#B2D143"/><path d="M92.34 5.039h2.583v65.507H92.34V5.039z" fill="#A5C33B"/><path d="M95.595 63.365h-.62V4.258h.62v59.107z" fill="#7FAF42"/><path d="M103.964 62.988h-9.04v2.52h9.04v-2.52z" fill="#B2D143"/><path d="M103.964 68.027h-9.04v2.519h9.04v-2.52z" fill="#7FAF42"/><path d="M94.923 12.874v50.114h9.041V7.558" fill="#A5C33B"/><path d="M103.964 5.039h-9.04v7.559l9.04-5.04" fill="#7FAF42"/><path d="M104.803 4.258h-.619v66.061h.619V4.258z" fill="#B2D143"/><path d="M106.547 5.039h-2.583v65.507h2.583V5.039z" fill="#A5C33B"/><path d="M107.257 63.365h-.619V4.258h.619v59.107z" fill="#7FAF42"/><path d="M106.547 62.988h9.041v2.52h-9.041v-2.52z" fill="#B2D143"/><path d="M106.547 68.027h9.041v2.519h-9.041v-2.52z" fill="#7FAF42"/><path d="M106.547 12.874v50.114h9.041V7.558" fill="#A5C33B"/><path d="M115.588 5.039h-9.041v7.559l9.041-5.04" fill="#7FAF42"/><path d="M116.466 70.32h-.62V4.257h.62v66.061z" fill="#B2D143"/><path d="M118.171 5.039h-2.583v65.507h2.583V5.039z" fill="#A5C33B"/><path d="M118.92 63.365h-.62V4.258h.62v59.107z" fill="#7FAF42"/><path d="M127.211 62.988h-9.04v2.52h9.04v-2.52z" fill="#B2D143"/><path d="M127.211 68.027h-9.04v2.519h9.04v-2.52z" fill="#7FAF42"/><path d="M69.093 65.507h-9.04v2.52h9.04v-2.52zM80.717 65.507h-9.041v2.52h9.04v-2.52zM92.34 65.507H83.3v2.52h9.04v-2.52zM103.964 65.507h-9.04v2.52h9.04v-2.52zM106.547 65.507h9.041v2.52h-9.041v-2.52zM127.211 65.507h-9.04v2.52h9.04v-2.52zM118.171 12.874v50.114h9.04V7.558" fill="#A5C33B"/><path d="M127.211 5.039h-9.04v7.559l9.04-5.04" fill="#7FAF42"/><path d="M128.129 70.32h-.62V4.257h.62v66.061z" fill="#B2D143"/><path d="M127.211 5.039h2.584v65.507h-2.584V5.039z" fill="#A5C33B"/><path d="M61.343 10.078h-1.29v55.43h1.29v-55.43z" fill="#7FAF42"/><path d="M69.093 5.039h-1.291v60.468h1.29V5.039z" fill="#B2D143"/><path d="M72.967 10.078h-1.291v55.43h1.291v-55.43z" fill="#7FAF42"/><path d="M80.717 5.039h-1.292v60.468h1.292V5.039z" fill="#B2D143"/><path d="M84.59 10.078H83.3v55.43h1.29v-55.43z" fill="#7FAF42"/><path d="M92.34 5.039H91.05v60.468h1.291V5.039z" fill="#B2D143"/><path d="M96.215 10.078h-1.292v55.43h1.292v-55.43z" fill="#7FAF42"/><path d="M103.964 5.039h-1.291v60.468h1.291V5.039z" fill="#B2D143"/><path d="M107.838 10.078h-1.291v55.43h1.291v-55.43z" fill="#7FAF42"/><path d="M115.588 5.039h-1.292v60.468h1.292V5.039z" fill="#B2D143"/><path d="M119.462 10.078h-1.291v55.43h1.291v-55.43z" fill="#7FAF42"/><path d="M127.211 5.039h-1.291v60.468h1.291V5.039z" fill="#B2D143"/></g><defs><clipPath id="pclip0_1_799"><path fill="#fff" d="M0 0h129.022v70.546H0z"/></clipPath></defs></svg><svg fill="none" viewBox="0 0 141 71" id="icon-volum-36" xmlns="http://www.w3.org/2000/svg"><g clip-path="url(#qclip0_1_939)"><path d="M.1 5.039h2.536v65.507H.1V5.039z" fill="#A5C33B"/><path d="M3.181 63.365h-.608V4.258h.608v59.107z" fill="#7FAF42"/><path d="M11.514 62.988H2.636v2.52h8.878v-2.52z" fill="#B2D143"/><path d="M11.514 68.027H2.636v2.519h8.878v-2.52z" fill="#7FAF42"/><path d="M2.636 12.874v50.114h8.878V7.558" fill="#A5C33B"/><path d="M11.514 5.039H2.636v7.559l8.878-5.04" fill="#7FAF42"/><path d="M12.225 70.32h-.609V4.257h.609v66.061z" fill="#B2D143"/><path d="M71.124 0v5.039H.101V0h71.023zM14.05 5.039h-2.536v65.507h2.537V5.039z" fill="#A5C33B"/><path d="M14.634 63.365h-.609V4.258h.61v59.107z" fill="#7FAF42"/><path d="M22.929 62.988h-8.878v2.52h8.878v-2.52z" fill="#B2D143"/><path d="M22.929 68.027h-8.878v2.519h8.878v-2.52z" fill="#7FAF42"/><path d="M14.05 12.874v50.114h8.879V7.558" fill="#A5C33B"/><path d="M22.929 5.039h-8.878v7.559l8.878-5.04" fill="#7FAF42"/><path d="M23.677 4.258h-.609v66.061h.61V4.258z" fill="#B2D143"/><path d="M25.466 5.039h-2.537v65.507h2.537V5.039z" fill="#A5C33B"/><path d="M26.087 63.365h-.609V4.258h.61v59.107z" fill="#7FAF42"/><path d="M34.344 62.988h-8.878v2.52h8.878v-2.52z" fill="#B2D143"/><path d="M34.344 68.027h-8.878v2.519h8.878v-2.52z" fill="#7FAF42"/><path d="M25.466 12.874v50.114h8.877V7.558" fill="#A5C33B"/><path d="M34.343 5.039h-8.877v7.559l8.877-5.04" fill="#7FAF42"/><path d="M35.13 4.258h-.609v66.061h.61V4.258z" fill="#B2D143"/><path d="M34.343 5.039h2.537v65.507h-2.537V5.039z" fill="#A5C33B"/><path d="M37.54 63.365h-.61V4.258h.61v59.107z" fill="#7FAF42"/><path d="M45.758 62.988H36.88v2.52h8.878v-2.52z" fill="#B2D143"/><path d="M45.758 68.027H36.88v2.519h8.878v-2.52z" fill="#7FAF42"/><path d="M36.88 12.874v50.114h8.878V7.558" fill="#A5C33B"/><path d="M45.758 5.039H36.88v7.559l8.878-5.04" fill="#7FAF42"/><path d="M46.582 4.258h-.609v66.061h.61V4.258z" fill="#B2D143"/><path d="M48.295 5.039h-2.537v65.507h2.537V5.039z" fill="#A5C33B"/><path d="M48.992 63.365h-.609V4.258h.61v59.107z" fill="#7FAF42"/><path d="M48.295 62.988h8.878v2.52h-8.878v-2.52z" fill="#B2D143"/><path d="M48.295 68.027h8.878v2.519h-8.878v-2.52z" fill="#7FAF42"/><path d="M48.295 12.874v50.114h8.878V7.558" fill="#A5C33B"/><path d="M57.173 5.039h-8.878v7.559l8.878-5.04" fill="#7FAF42"/><path d="M58.035 70.32h-.609V4.257h.609v66.061z" fill="#B2D143"/><path d="M59.71 5.039h-2.537v65.507h2.536V5.039z" fill="#A5C33B"/><path d="M60.445 63.365h-.61V4.258h.61v59.107z" fill="#7FAF42"/><path d="M68.587 62.988H59.71v2.52h8.878v-2.52z" fill="#B2D143"/><path d="M68.587 68.027H59.71v2.519h8.878v-2.52z" fill="#7FAF42"/><path d="M11.514 65.507H2.636v2.52h8.878v-2.52zM22.929 65.507h-8.878v2.52h8.878v-2.52zM34.344 65.507h-8.878v2.52h8.878v-2.52zM45.758 65.507H36.88v2.52h8.878v-2.52zM48.295 65.507h8.878v2.52h-8.878v-2.52zM68.587 65.507H59.71v2.52h8.878v-2.52zM59.709 12.874v50.114h8.878V7.558" fill="#A5C33B"/><path d="M68.587 5.039h-8.878v7.559l8.878-5.04" fill="#7FAF42"/><path d="M69.488 70.32h-.61V4.257h.61v66.061z" fill="#B2D143"/><path d="M68.587 5.039h2.537v65.507h-2.537V5.039z" fill="#A5C33B"/><path d="M3.904 10.078H2.636v55.43h1.268v-55.43z" fill="#7FAF42"/><path d="M11.514 5.039h-1.268v60.468h1.268V5.039z" fill="#B2D143"/><path d="M15.319 10.078H14.05v55.43h1.268v-55.43z" fill="#7FAF42"/><path d="M22.929 5.039h-1.268v60.468h1.268V5.039z" fill="#B2D143"/><path d="M26.734 10.078h-1.268v55.43h1.268v-55.43z" fill="#7FAF42"/><path d="M34.343 5.039h-1.268v60.468h1.268V5.039z" fill="#B2D143"/><path d="M38.148 10.078H36.88v55.43h1.268v-55.43z" fill="#7FAF42"/><path d="M45.758 5.039H44.49v60.468h1.268V5.039z" fill="#B2D143"/><path d="M49.563 10.078h-1.268v55.43h1.268v-55.43z" fill="#7FAF42"/><path d="M57.172 5.039h-1.268v60.468h1.268V5.039z" fill="#B2D143"/><path d="M60.977 10.078h-1.268v55.43h1.268v-55.43z" fill="#7FAF42"/><path d="M68.587 5.039h-1.268v60.468h1.268V5.039z" fill="#B2D143"/><path d="M69.063 5.039h2.536v65.507h-2.537V5.039z" fill="#A5C33B"/><path d="M72.144 63.365h-.608V4.258h.608v59.107z" fill="#7FAF42"/><path d="M80.477 62.988H71.6v2.52h8.878v-2.52z" fill="#B2D143"/><path d="M80.477 68.027H71.6v2.519h8.878v-2.52z" fill="#7FAF42"/><path d="M71.6 12.874v50.114h8.877V7.558" fill="#A5C33B"/><path d="M80.477 5.039H71.6v7.559l8.878-5.04" fill="#7FAF42"/><path d="M81.188 70.32h-.61V4.257h.61v66.061z" fill="#B2D143"/><path d="M140.087 0v5.039H69.063V0h71.024zM83.014 5.039h-2.537v65.507h2.537V5.039z" fill="#A5C33B"/><path d="M83.597 63.365h-.609V4.258h.61v59.107z" fill="#7FAF42"/><path d="M91.892 62.988h-8.878v2.52h8.878v-2.52z" fill="#B2D143"/><path d="M91.892 68.027h-8.878v2.519h8.878v-2.52z" fill="#7FAF42"/><path d="M83.014 12.874v50.114h8.878V7.558" fill="#A5C33B"/><path d="M91.892 5.039h-8.878v7.559l8.878-5.04" fill="#7FAF42"/><path d="M92.64 4.258h-.609v66.061h.61V4.258z" fill="#B2D143"/><path d="M94.429 5.039h-2.537v65.507h2.537V5.039z" fill="#A5C33B"/><path d="M95.05 63.365h-.609V4.258h.609v59.107z" fill="#7FAF42"/><path d="M103.306 62.988h-8.878v2.52h8.878v-2.52z" fill="#B2D143"/><path d="M103.306 68.027h-8.878v2.519h8.878v-2.52z" fill="#7FAF42"/><path d="M94.428 12.874v50.114h8.878V7.558" fill="#A5C33B"/><path d="M103.306 5.039h-8.878v7.559l8.878-5.04" fill="#7FAF42"/><path d="M104.093 4.258h-.609v66.061h.609V4.258z" fill="#B2D143"/><path d="M103.306 5.039h2.537v65.507h-2.537V5.039z" fill="#A5C33B"/><path d="M106.503 63.365h-.61V4.258h.61v59.107z" fill="#7FAF42"/><path d="M114.721 62.988h-8.878v2.52h8.878v-2.52z" fill="#B2D143"/><path d="M114.721 68.027h-8.878v2.519h8.878v-2.52z" fill="#7FAF42"/><path d="M105.843 12.874v50.114h8.878V7.558" fill="#A5C33B"/><path d="M114.721 5.039h-8.878v7.559l8.878-5.04" fill="#7FAF42"/><path d="M115.545 4.258h-.609v66.061h.609V4.258z" fill="#B2D143"/><path d="M117.258 5.039h-2.537v65.507h2.537V5.039z" fill="#A5C33B"/><path d="M117.955 63.365h-.609V4.258h.609v59.107z" fill="#7FAF42"/><path d="M117.258 62.988h8.877v2.52h-8.877v-2.52z" fill="#B2D143"/><path d="M117.258 68.027h8.877v2.519h-8.877v-2.52z" fill="#7FAF42"/><path d="M117.258 12.874v50.114h8.877V7.558" fill="#A5C33B"/><path d="M126.135 5.039h-8.877v7.559l8.877-5.04" fill="#7FAF42"/><path d="M126.998 70.32h-.609V4.257h.609v66.061z" fill="#B2D143"/><path d="M128.672 5.039h-2.537v65.507h2.537V5.039z" fill="#A5C33B"/><path d="M129.408 63.365h-.609V4.258h.609v59.107z" fill="#7FAF42"/><path d="M137.55 62.988h-8.878v2.52h8.878v-2.52z" fill="#B2D143"/><path d="M137.55 68.027h-8.878v2.519h8.878v-2.52z" fill="#7FAF42"/><path d="M80.477 65.507H71.6v2.52h8.878v-2.52zM91.892 65.507h-8.878v2.52h8.878v-2.52zM103.306 65.507h-8.878v2.52h8.878v-2.52zM114.721 65.507h-8.878v2.52h8.878v-2.52zM117.258 65.507h8.877v2.52h-8.877v-2.52zM137.55 65.507h-8.878v2.52h8.878v-2.52zM128.672 12.874v50.114h8.878V7.558" fill="#A5C33B"/><path d="M137.55 5.039h-8.878v7.559l8.878-5.04" fill="#7FAF42"/><path d="M138.451 70.32h-.609V4.257h.609v66.061z" fill="#B2D143"/><path d="M137.55 5.039h2.537v65.507h-2.537V5.039z" fill="#A5C33B"/><path d="M72.867 10.078H71.6v55.43h1.268v-55.43z" fill="#7FAF42"/><path d="M80.477 5.039H79.21v60.468h1.268V5.039z" fill="#B2D143"/><path d="M84.282 10.078h-1.268v55.43h1.268v-55.43z" fill="#7FAF42"/><path d="M91.891 5.039h-1.268v60.468h1.268V5.039z" fill="#B2D143"/><path d="M95.696 10.078h-1.268v55.43h1.268v-55.43z" fill="#7FAF42"/><path d="M103.306 5.039h-1.268v60.468h1.268V5.039z" fill="#B2D143"/><path d="M107.111 10.078h-1.268v55.43h1.268v-55.43z" fill="#7FAF42"/><path d="M114.72 5.039h-1.268v60.468h1.268V5.039z" fill="#B2D143"/><path d="M118.526 10.078h-1.268v55.43h1.268v-55.43z" fill="#7FAF42"/><path d="M126.135 5.039h-1.268v60.468h1.268V5.039z" fill="#B2D143"/><path d="M129.94 10.078h-1.268v55.43h1.268v-55.43z" fill="#7FAF42"/><path d="M137.55 5.039h-1.268v60.468h1.268V5.039z" fill="#B2D143"/></g><defs><clipPath id="qclip0_1_939"><path fill="#fff" d="M0 0h140.087v70.546H0z"/></clipPath></defs></svg><svg fill="none" viewBox="0 0 135 71" id="icon-volum-8" xmlns="http://www.w3.org/2000/svg"><path d="M30.035 4.048h101.103v31.208L102.251 70.58H32.977L5.64 35.256 30.035 4.048z" fill="#A5C33B"/><path d="M131.138 35.256l-118.31 9.29-7.19-9.29h125.5z" fill="#7FAF42"/><path d="M27.934 0L.22 35.964l2.632 2.854 27.183-34.77" fill="#A5C33B"/><path d="M134.057 0H27.912v4.048h106.145V0z" fill="#A5C33B"/><path d="M30.035 4.048l.819.022L6.148 35.876l-.51-.664L30.036 4.048z" fill="#7FAF42"/><path d="M53.525 4.048L21.918 14.399l8.117-10.351h23.49z" fill="#7FAF42"/><path d="M131.005 35.256L5.772 35.234l.022-4.003h125.211v4.025z" fill="#A5C33B"/><path d="M131.005 30.235v.996H9.731l.796-.996h120.478z" fill="#B2D143"/><path d="M56.843 4.048L56.82 31.23h-3.296V4.048h3.318z" fill="#A5C33B"/><path d="M53.525 4.048h-.819V31.23h.82V4.048z" fill="#B2D143"/><path d="M56.843 4.048h.818V31.23h-.818V4.048z" fill="#7FAF42"/><path d="M94.377 4.048l-.022 27.183h-3.273V4.048h3.295z" fill="#A5C33B"/><path d="M90.241 4.048h.84V31.23h-.84V4.048z" fill="#B2D143"/></svg></svg>